SplineFontDB: 3.2
FontName: CoqBrainsMono-Light
FullName: CoqBrains Mono Light
FamilyName: CoqBrains Mono
Weight: Light
Copyright: Copyright 2020 \nCodeBrains Mono for Coq\nAuthor https:github.comvbcpascalCodeBrainsMono\nBased on\nThe JetBrains Mono Project\nAuthors https:github.comJetBrainsJetBrainsMono
Version: 0.1
ItalicAngle: 0
UnderlinePosition: -180
UnderlineWidth: 50
Ascent: 800
Descent: 200
InvalidEm: 0
sfntRevision: 0x0000199a
LayerCount: 2
Layer: 0 0 "Back" 1
Layer: 1 0 "Fore" 0
XUID: [1021 35 135779605 8257]
StyleMap: 0x0040
FSType: 0
OS2Version: 4
OS2_WeightWidthSlopeOnly: 0
OS2_UseTypoMetrics: 1
CreationTime: 1611741801
ModificationTime: 1617099611
PfmFamily: 17
TTFWeight: 300
TTFWidth: 5
LineGap: 0
VLineGap: 0
Panose: 2 0 0 9 0 0 0 0 0 0
OS2TypoAscent: 1020
OS2TypoAOffset: 0
OS2TypoDescent: -300
OS2TypoDOffset: 0
OS2TypoLinegap: 0
OS2WinAscent: 1020
OS2WinAOffset: 0
OS2WinDescent: 300
OS2WinDOffset: 0
HheadAscent: 1020
HheadAOffset: 0
HheadDescent: -300
HheadDOffset: 0
OS2SubXSize: 650
OS2SubYSize: 600
OS2SubXOff: 0
OS2SubYOff: 75
OS2SupXSize: 650
OS2SupYSize: 600
OS2SupXOff: 0
OS2SupYOff: 350
OS2StrikeYSize: 50
OS2StrikeYPos: 320
OS2CapHeight: 730
OS2XHeight: 550
OS2Vendor: 'JB  '
OS2CodePages: 2000019f.dfd70000
OS2UnicodeRanges: a00002ff.1000f8eb.00000008.00000000
Lookup: 4 0 1 "backslash_slash" { "backslash_slash"  } ['liga' ('DFLT' <'dflt' > 'cyrl' <'dflt' > 'grek' <'dflt' > 'latn' <'AZE ' 'CAT ' 'CRT ' 'KAZ ' 'MOL ' 'ROM ' 'TAT ' 'TRK ' 'dflt' > ) ]
Lookup: 4 0 0 "slash_backslash" { "slash_backslash"  } ['liga' ('DFLT' <'dflt' > 'cyrl' <'dflt' > 'grek' <'dflt' > 'latn' <'AZE ' 'CAT ' 'CRT ' 'KAZ ' 'MOL ' 'ROM ' 'TAT ' 'TRK ' 'dflt' > ) ]
Lookup: 1 0 0 "'aalt' Access All Alternates in Latin lookup 0" { "'aalt' Access All Alternates in Latin lookup 0 subtable"  } ['aalt' ('DFLT' <'dflt' > 'latn' <'AZE ' 'CAT ' 'CRT ' 'KAZ ' 'MOL ' 'ROM ' 'TAT ' 'TRK ' 'dflt' > ) ]

StartChar: .notdef
Encoding: 65536 -1 0
Width: 600
Flags: W
LayerCount: 2
Fore
SplineSet
90 0 m 1
 90 730 l 1
 510 730 l 1
 510 0 l 1
 90 0 l 1
140 109 m 1
 440 680 l 1
 140 680 l 1
 140 109 l 1
160 50 m 1
 460 50 l 1
 460 621 l 1
 160 50 l 1
EndSplineSet
Validated: 1
EndChar

StartChar: A
Encoding: 65 65 1
Width: 600
GlyphClass: 2
Flags: W
AnchorPoint: "Anchor-3" 499 0 basechar 0
AnchorPoint: "Anchor-2" 300 0 basechar 0
AnchorPoint: "Anchor-0" 300 730 basechar 0
LayerCount: 2
Fore
SplineSet
55 0 m 1
 248 730 l 1
 353 730 l 1
 545 0 l 1
 465 0 l 1
 414 198 l 1
 186 198 l 1
 136 0 l 1
 55 0 l 1
202 266 m 1
 397 266 l 1
 335 510 l 2
 315 591 303 649 300 666 c 1
 297 649 285 591 265 510 c 2
 202 266 l 1
EndSplineSet
Validated: 1048577
Substitution2: "Single Substitution lookup 375 subtable" ordfeminine
Substitution2: "'aalt' Access All Alternates in Latin lookup 0 subtable" ordfeminine
EndChar

StartChar: Aacute
Encoding: 193 193 2
Width: 600
GlyphClass: 2
Flags: W
AnchorPoint: "Anchor-3" 499 0 basechar 0
AnchorPoint: "Anchor-2" 300 0 basechar 0
AnchorPoint: "Anchor-0" 300 730 basechar 0
LayerCount: 2
Fore
SplineSet
248 810 m 1
 354 950 l 1
 441 950 l 1
 329 810 l 1
 248 810 l 1
55 0 m 1
 248 730 l 1
 353 730 l 1
 545 0 l 1
 465 0 l 1
 414 198 l 1
 186 198 l 1
 136 0 l 1
 55 0 l 1
202 266 m 1
 397 266 l 1
 335 510 l 2
 315 591 303 649 300 666 c 1
 297 649 285 591 265 510 c 2
 202 266 l 1
EndSplineSet
Validated: 1048577
EndChar

StartChar: Abreve
Encoding: 258 258 3
Width: 600
GlyphClass: 2
Flags: W
AnchorPoint: "Anchor-3" 499 0 basechar 0
AnchorPoint: "Anchor-2" 300 0 basechar 0
AnchorPoint: "Anchor-0" 300 730 basechar 0
LayerCount: 2
Fore
SplineSet
300 806 m 0
 206 806 144 863 144 950 c 1
 208 950 l 1
 208 895 244 859 299 859 c 0
 355 859 392 895 392 950 c 1
 456 950 l 1
 456 863 394 806 300 806 c 0
55 0 m 1
 248 730 l 1
 353 730 l 1
 545 0 l 1
 465 0 l 1
 414 198 l 1
 186 198 l 1
 136 0 l 1
 55 0 l 1
202 266 m 1
 397 266 l 1
 335 510 l 2
 315 591 303 649 300 666 c 1
 297 649 285 591 265 510 c 2
 202 266 l 1
EndSplineSet
Validated: 1048577
EndChar

StartChar: uni1EAE
Encoding: 7854 7854 4
Width: 600
GlyphClass: 2
Flags: W
AnchorPoint: "Anchor-3" 499 0 basechar 0
AnchorPoint: "Anchor-2" 300 0 basechar 0
AnchorPoint: "Anchor-0" 300 730 basechar 0
LayerCount: 2
Fore
SplineSet
243 899 m 1
 346 1020 l 1
 433 1020 l 1
 323 899 l 1
 243 899 l 1
276 780 m 2
 192 780 139 830 139 909 c 1
 202 909 l 1
 202 864 231 835 276 835 c 2
 323 835 l 2
 369 835 398 864 398 909 c 1
 461 909 l 1
 461 830 407 780 323 780 c 2
 276 780 l 2
55 0 m 1
 248 730 l 1
 353 730 l 1
 545 0 l 1
 465 0 l 1
 414 198 l 1
 186 198 l 1
 136 0 l 1
 55 0 l 1
202 266 m 1
 397 266 l 1
 335 510 l 2
 315 591 303 649 300 666 c 1
 297 649 285 591 265 510 c 2
 202 266 l 1
EndSplineSet
Validated: 1048577
EndChar

StartChar: uni1EB6
Encoding: 7862 7862 5
Width: 600
GlyphClass: 2
Flags: W
AnchorPoint: "Anchor-3" 499 0 basechar 0
AnchorPoint: "Anchor-2" 300 0 basechar 0
AnchorPoint: "Anchor-0" 300 730 basechar 0
LayerCount: 2
Fore
SplineSet
300 806 m 0
 206 806 144 863 144 950 c 1
 208 950 l 1
 208 895 244 859 299 859 c 0
 355 859 392 895 392 950 c 1
 456 950 l 1
 456 863 394 806 300 806 c 0
55 0 m 1
 248 730 l 1
 353 730 l 1
 545 0 l 1
 465 0 l 1
 414 198 l 1
 186 198 l 1
 136 0 l 1
 55 0 l 1
202 266 m 1
 397 266 l 1
 335 510 l 2
 315 591 303 649 300 666 c 1
 297 649 285 591 265 510 c 2
 202 266 l 1
300 -211 m 0
 258 -211 232 -187 232 -150 c 0
 232 -112 258 -88 300 -88 c 0
 342 -88 368 -112 368 -150 c 0
 368 -187 342 -211 300 -211 c 0
EndSplineSet
Validated: 1048577
EndChar

StartChar: uni1EB0
Encoding: 7856 7856 6
Width: 600
GlyphClass: 2
Flags: W
AnchorPoint: "Anchor-3" 499 0 basechar 0
AnchorPoint: "Anchor-2" 300 0 basechar 0
AnchorPoint: "Anchor-0" 300 730 basechar 0
LayerCount: 2
Fore
SplineSet
279 899 m 1
 178 1020 l 1
 264 1020 l 1
 358 899 l 1
 279 899 l 1
276 780 m 2
 192 780 139 830 139 909 c 1
 202 909 l 1
 202 864 231 835 276 835 c 2
 323 835 l 2
 369 835 398 864 398 909 c 1
 461 909 l 1
 461 830 407 780 323 780 c 2
 276 780 l 2
55 0 m 1
 248 730 l 1
 353 730 l 1
 545 0 l 1
 465 0 l 1
 414 198 l 1
 186 198 l 1
 136 0 l 1
 55 0 l 1
202 266 m 1
 397 266 l 1
 335 510 l 2
 315 591 303 649 300 666 c 1
 297 649 285 591 265 510 c 2
 202 266 l 1
EndSplineSet
Validated: 1048577
EndChar

StartChar: uni1EB2
Encoding: 7858 7858 7
Width: 600
GlyphClass: 2
Flags: W
AnchorPoint: "Anchor-3" 499 0 basechar 0
AnchorPoint: "Anchor-2" 300 0 basechar 0
AnchorPoint: "Anchor-0" 300 730 basechar 0
LayerCount: 2
Fore
SplineSet
258 880 m 1
 305 935 l 2
 312 943 315 951 315 956 c 0
 315 962 309 967 300 967 c 2
 227 967 l 1
 227 1020 l 1
 317 1020 l 2
 354 1020 376 1002 376 972 c 0
 376 954 369 933 357 919 c 2
 325 880 l 1
 258 880 l 1
276 780 m 2
 192 780 139 830 139 909 c 1
 202 909 l 1
 202 864 231 835 276 835 c 2
 323 835 l 2
 369 835 398 864 398 909 c 1
 461 909 l 1
 461 830 407 780 323 780 c 2
 276 780 l 2
55 0 m 1
 248 730 l 1
 353 730 l 1
 545 0 l 1
 465 0 l 1
 414 198 l 1
 186 198 l 1
 136 0 l 1
 55 0 l 1
202 266 m 1
 397 266 l 1
 335 510 l 2
 315 591 303 649 300 666 c 1
 297 649 285 591 265 510 c 2
 202 266 l 1
EndSplineSet
Validated: 1048577
EndChar

StartChar: uni1EB4
Encoding: 7860 7860 8
Width: 600
GlyphClass: 2
Flags: W
AnchorPoint: "Anchor-3" 499 0 basechar 0
AnchorPoint: "Anchor-2" 300 0 basechar 0
AnchorPoint: "Anchor-0" 300 730 basechar 0
LayerCount: 2
Fore
SplineSet
376 920 m 0
 295 920 276 971 230 971 c 0
 210 971 197 958 197 939 c 2
 197 930 l 1
 139 930 l 1
 139 939 l 2
 139 989 173 1020 226 1020 c 0
 309 1020 325 969 371 969 c 0
 390 969 403 982 403 1001 c 2
 403 1010 l 1
 461 1010 l 1
 461 1001 l 2
 461 951 428 920 376 920 c 0
276 780 m 2
 192 780 139 822 139 900 c 1
 202 900 l 1
 202 856 231 835 276 835 c 2
 323 835 l 2
 369 835 398 856 398 900 c 1
 461 900 l 1
 461 822 407 780 323 780 c 2
 276 780 l 2
55 0 m 1
 248 730 l 1
 353 730 l 1
 545 0 l 1
 465 0 l 1
 414 198 l 1
 186 198 l 1
 136 0 l 1
 55 0 l 1
202 266 m 1
 397 266 l 1
 335 510 l 2
 315 591 303 649 300 666 c 1
 297 649 285 591 265 510 c 2
 202 266 l 1
EndSplineSet
Validated: 1048577
EndChar

StartChar: uni01CD
Encoding: 461 461 9
Width: 600
GlyphClass: 2
Flags: W
AnchorPoint: "Anchor-3" 499 0 basechar 0
AnchorPoint: "Anchor-2" 300 0 basechar 0
AnchorPoint: "Anchor-0" 300 730 basechar 0
LayerCount: 2
Fore
SplineSet
262 810 m 1
 127 950 l 1
 213 950 l 1
 301 864 l 1
 386 950 l 1
 473 950 l 1
 339 810 l 1
 262 810 l 1
55 0 m 1
 248 730 l 1
 353 730 l 1
 545 0 l 1
 465 0 l 1
 414 198 l 1
 186 198 l 1
 136 0 l 1
 55 0 l 1
202 266 m 1
 397 266 l 1
 335 510 l 2
 315 591 303 649 300 666 c 1
 297 649 285 591 265 510 c 2
 202 266 l 1
EndSplineSet
Validated: 1048577
EndChar

StartChar: Acircumflex
Encoding: 194 194 10
Width: 600
GlyphClass: 2
Flags: W
AnchorPoint: "Anchor-3" 499 0 basechar 0
AnchorPoint: "Anchor-2" 300 0 basechar 0
AnchorPoint: "Anchor-0" 300 730 basechar 0
LayerCount: 2
Fore
SplineSet
127 810 m 1
 261 950 l 1
 338 950 l 1
 473 810 l 1
 387 810 l 1
 300 896 l 1
 215 810 l 1
 127 810 l 1
55 0 m 1
 248 730 l 1
 353 730 l 1
 545 0 l 1
 465 0 l 1
 414 198 l 1
 186 198 l 1
 136 0 l 1
 55 0 l 1
202 266 m 1
 397 266 l 1
 335 510 l 2
 315 591 303 649 300 666 c 1
 297 649 285 591 265 510 c 2
 202 266 l 1
EndSplineSet
Validated: 1048577
EndChar

StartChar: uni1EA4
Encoding: 7844 7844 11
Width: 600
GlyphClass: 2
Flags: W
AnchorPoint: "Anchor-3" 499 0 basechar 0
AnchorPoint: "Anchor-2" 300 0 basechar 0
AnchorPoint: "Anchor-0" 300 730 basechar 0
LayerCount: 2
Fore
SplineSet
407 899 m 1
 512 1020 l 1
 603 1020 l 1
 492 899 l 1
 407 899 l 1
128 780 m 1
 261 920 l 1
 339 920 l 1
 473 780 l 1
 386 780 l 1
 300 866 l 1
 214 780 l 1
 128 780 l 1
55 0 m 1
 248 730 l 1
 353 730 l 1
 545 0 l 1
 465 0 l 1
 414 198 l 1
 186 198 l 1
 136 0 l 1
 55 0 l 1
202 266 m 1
 397 266 l 1
 335 510 l 2
 315 591 303 649 300 666 c 1
 297 649 285 591 265 510 c 2
 202 266 l 1
EndSplineSet
Validated: 1048577
EndChar

StartChar: uni1EAC
Encoding: 7852 7852 12
Width: 600
GlyphClass: 2
Flags: W
AnchorPoint: "Anchor-3" 499 0 basechar 0
AnchorPoint: "Anchor-2" 300 0 basechar 0
AnchorPoint: "Anchor-0" 300 730 basechar 0
LayerCount: 2
Fore
SplineSet
127 810 m 1
 261 950 l 1
 338 950 l 1
 473 810 l 1
 387 810 l 1
 300 896 l 1
 215 810 l 1
 127 810 l 1
55 0 m 1
 248 730 l 1
 353 730 l 1
 545 0 l 1
 465 0 l 1
 414 198 l 1
 186 198 l 1
 136 0 l 1
 55 0 l 1
202 266 m 1
 397 266 l 1
 335 510 l 2
 315 591 303 649 300 666 c 1
 297 649 285 591 265 510 c 2
 202 266 l 1
300 -211 m 0
 258 -211 232 -187 232 -150 c 0
 232 -112 258 -88 300 -88 c 0
 342 -88 368 -112 368 -150 c 0
 368 -187 342 -211 300 -211 c 0
EndSplineSet
Validated: 1048577
EndChar

StartChar: uni1EA6
Encoding: 7846 7846 13
Width: 600
GlyphClass: 2
Flags: W
AnchorPoint: "Anchor-3" 499 0 basechar 0
AnchorPoint: "Anchor-2" 300 0 basechar 0
AnchorPoint: "Anchor-0" 300 730 basechar 0
LayerCount: 2
Fore
SplineSet
445 899 m 1
 325 1020 l 1
 415 1020 l 1
 528 899 l 1
 445 899 l 1
128 780 m 1
 261 920 l 1
 339 920 l 1
 473 780 l 1
 386 780 l 1
 300 866 l 1
 214 780 l 1
 128 780 l 1
55 0 m 1
 248 730 l 1
 353 730 l 1
 545 0 l 1
 465 0 l 1
 414 198 l 1
 186 198 l 1
 136 0 l 1
 55 0 l 1
202 266 m 1
 397 266 l 1
 335 510 l 2
 315 591 303 649 300 666 c 1
 297 649 285 591 265 510 c 2
 202 266 l 1
EndSplineSet
Validated: 1048577
EndChar

StartChar: uni1EA8
Encoding: 7848 7848 14
Width: 600
GlyphClass: 2
Flags: W
AnchorPoint: "Anchor-3" 499 0 basechar 0
AnchorPoint: "Anchor-2" 300 0 basechar 0
AnchorPoint: "Anchor-0" 300 730 basechar 0
LayerCount: 2
Fore
SplineSet
424 880 m 1
 471 929 l 2
 478 936 482 944 482 951 c 0
 482 961 475 968 464 968 c 2
 396 968 l 1
 396 1020 l 1
 477 1020 l 2
 520 1020 547 997 547 961 c 0
 547 943 539 926 528 914 c 2
 493 880 l 1
 424 880 l 1
128 780 m 1
 261 920 l 1
 339 920 l 1
 473 780 l 1
 386 780 l 1
 300 866 l 1
 214 780 l 1
 128 780 l 1
55 0 m 1
 248 730 l 1
 353 730 l 1
 545 0 l 1
 465 0 l 1
 414 198 l 1
 186 198 l 1
 136 0 l 1
 55 0 l 1
202 266 m 1
 397 266 l 1
 335 510 l 2
 315 591 303 649 300 666 c 1
 297 649 285 591 265 510 c 2
 202 266 l 1
EndSplineSet
Validated: 1048577
EndChar

StartChar: uni1EAA
Encoding: 7850 7850 15
Width: 600
GlyphClass: 2
Flags: W
AnchorPoint: "Anchor-3" 499 0 basechar 0
AnchorPoint: "Anchor-2" 300 0 basechar 0
AnchorPoint: "Anchor-0" 300 730 basechar 0
LayerCount: 2
Fore
SplineSet
376 920 m 0
 295 920 276 971 230 971 c 0
 210 971 197 958 197 939 c 2
 197 930 l 1
 139 930 l 1
 139 939 l 2
 139 989 173 1020 226 1020 c 0
 309 1020 325 969 371 969 c 0
 390 969 403 982 403 1001 c 2
 403 1010 l 1
 461 1010 l 1
 461 1001 l 2
 461 951 428 920 376 920 c 0
128 780 m 1
 245 893 l 1
 355 893 l 1
 472 780 l 1
 385 780 l 1
 300 858 l 1
 214 780 l 1
 128 780 l 1
55 0 m 1
 248 730 l 1
 353 730 l 1
 545 0 l 1
 465 0 l 1
 414 198 l 1
 186 198 l 1
 136 0 l 1
 55 0 l 1
202 266 m 1
 397 266 l 1
 335 510 l 2
 315 591 303 649 300 666 c 1
 297 649 285 591 265 510 c 2
 202 266 l 1
EndSplineSet
Validated: 1048577
EndChar

StartChar: Adieresis
Encoding: 196 196 16
Width: 600
GlyphClass: 2
Flags: W
AnchorPoint: "Anchor-3" 499 0 basechar 0
AnchorPoint: "Anchor-2" 300 0 basechar 0
AnchorPoint: "Anchor-0" 300 730 basechar 0
LayerCount: 2
Fore
SplineSet
411 819 m 0
 374 819 350 843 350 880 c 0
 350 918 374 942 411 942 c 0
 448 942 471 918 471 880 c 0
 471 843 448 819 411 819 c 0
191 819 m 0
 154 819 130 843 130 880 c 0
 130 918 154 942 191 942 c 0
 227 942 251 918 251 880 c 0
 251 843 227 819 191 819 c 0
55 0 m 1
 248 730 l 1
 353 730 l 1
 545 0 l 1
 465 0 l 1
 414 198 l 1
 186 198 l 1
 136 0 l 1
 55 0 l 1
202 266 m 1
 397 266 l 1
 335 510 l 2
 315 591 303 649 300 666 c 1
 297 649 285 591 265 510 c 2
 202 266 l 1
EndSplineSet
Validated: 1048577
EndChar

StartChar: uni1EA0
Encoding: 7840 7840 17
Width: 600
GlyphClass: 2
Flags: W
AnchorPoint: "Anchor-3" 499 0 basechar 0
AnchorPoint: "Anchor-2" 300 0 basechar 0
AnchorPoint: "Anchor-0" 300 730 basechar 0
LayerCount: 2
Fore
SplineSet
55 0 m 1
 248 730 l 1
 353 730 l 1
 545 0 l 1
 465 0 l 1
 414 198 l 1
 186 198 l 1
 136 0 l 1
 55 0 l 1
202 266 m 1
 397 266 l 1
 335 510 l 2
 315 591 303 649 300 666 c 1
 297 649 285 591 265 510 c 2
 202 266 l 1
300 -211 m 0
 258 -211 232 -187 232 -150 c 0
 232 -112 258 -88 300 -88 c 0
 342 -88 368 -112 368 -150 c 0
 368 -187 342 -211 300 -211 c 0
EndSplineSet
Validated: 1048577
EndChar

StartChar: Agrave
Encoding: 192 192 18
Width: 600
GlyphClass: 2
Flags: W
AnchorPoint: "Anchor-3" 499 0 basechar 0
AnchorPoint: "Anchor-2" 300 0 basechar 0
AnchorPoint: "Anchor-0" 300 730 basechar 0
LayerCount: 2
Fore
SplineSet
271 810 m 1
 157 950 l 1
 247 950 l 1
 356 810 l 1
 271 810 l 1
55 0 m 1
 248 730 l 1
 353 730 l 1
 545 0 l 1
 465 0 l 1
 414 198 l 1
 186 198 l 1
 136 0 l 1
 55 0 l 1
202 266 m 1
 397 266 l 1
 335 510 l 2
 315 591 303 649 300 666 c 1
 297 649 285 591 265 510 c 2
 202 266 l 1
EndSplineSet
Validated: 1048577
EndChar

StartChar: uni1EA2
Encoding: 7842 7842 19
Width: 600
GlyphClass: 2
Flags: W
AnchorPoint: "Anchor-3" 499 0 basechar 0
AnchorPoint: "Anchor-2" 300 0 basechar 0
AnchorPoint: "Anchor-0" 300 730 basechar 0
LayerCount: 2
Fore
SplineSet
262 800 m 1
 310 866 l 2
 320 880 325 892 325 900 c 0
 325 914 314 922 292 922 c 2
 213 922 l 1
 213 979 l 1
 295 979 l 2
 354 979 393 951 393 908 c 0
 393 891 387 871 375 855 c 2
 338 800 l 1
 262 800 l 1
55 0 m 1
 248 730 l 1
 353 730 l 1
 545 0 l 1
 465 0 l 1
 414 198 l 1
 186 198 l 1
 136 0 l 1
 55 0 l 1
202 266 m 1
 397 266 l 1
 335 510 l 2
 315 591 303 649 300 666 c 1
 297 649 285 591 265 510 c 2
 202 266 l 1
EndSplineSet
Validated: 1048577
EndChar

StartChar: Amacron
Encoding: 256 256 20
Width: 600
GlyphClass: 2
Flags: W
AnchorPoint: "Anchor-3" 499 0 basechar 0
AnchorPoint: "Anchor-2" 300 0 basechar 0
AnchorPoint: "Anchor-0" 300 730 basechar 0
LayerCount: 2
Fore
SplineSet
145 844 m 1
 145 910 l 1
 455 910 l 1
 455 844 l 1
 145 844 l 1
55 0 m 1
 248 730 l 1
 353 730 l 1
 545 0 l 1
 465 0 l 1
 414 198 l 1
 186 198 l 1
 136 0 l 1
 55 0 l 1
202 266 m 1
 397 266 l 1
 335 510 l 2
 315 591 303 649 300 666 c 1
 297 649 285 591 265 510 c 2
 202 266 l 1
EndSplineSet
Validated: 1048577
EndChar

StartChar: Aogonek
Encoding: 260 260 21
Width: 600
GlyphClass: 2
Flags: W
AnchorPoint: "Anchor-3" 499 0 basechar 0
AnchorPoint: "Anchor-2" 300 0 basechar 0
AnchorPoint: "Anchor-0" 300 730 basechar 0
LayerCount: 2
Fore
SplineSet
55 0 m 1
 248 730 l 1
 353 730 l 1
 545 0 l 1
 529 0 l 1
 486 -36 467 -68 467 -96 c 0
 467 -125 487 -146 520 -146 c 2
 582 -146 l 1
 582 -201 l 1
 505 -201 l 2
 436 -201 392 -164 392 -111 c 0
 392 -75 413 -38 464 1 c 1
 414 198 l 1
 186 198 l 1
 136 0 l 1
 55 0 l 1
202 266 m 1
 397 266 l 1
 335 510 l 2
 315 591 303 649 300 666 c 1
 297 649 285 591 265 510 c 2
 202 266 l 1
EndSplineSet
Validated: 1048577
EndChar

StartChar: Aring
Encoding: 197 197 22
Width: 600
GlyphClass: 2
Flags: W
AnchorPoint: "Anchor-3" 499 0 basechar 0
AnchorPoint: "Anchor-2" 300 0 basechar 0
AnchorPoint: "Anchor-0" 300 730 basechar 0
LayerCount: 2
Fore
SplineSet
300 770 m 0
 231 770 184 814 184 880 c 0
 184 946 231 990 300 990 c 0
 370 990 416 946 416 880 c 0
 416 814 370 770 300 770 c 0
300 818 m 0
 337 818 361 842 361 880 c 0
 361 918 337 943 300 943 c 0
 263 943 239 918 239 880 c 0
 239 842 263 818 300 818 c 0
55 0 m 1
 248 730 l 1
 353 730 l 1
 545 0 l 1
 465 0 l 1
 414 198 l 1
 186 198 l 1
 136 0 l 1
 55 0 l 1
202 266 m 1
 397 266 l 1
 335 510 l 2
 315 591 303 649 300 666 c 1
 297 649 285 591 265 510 c 2
 202 266 l 1
EndSplineSet
Validated: 1048577
EndChar

StartChar: Atilde
Encoding: 195 195 23
Width: 600
GlyphClass: 2
Flags: W
AnchorPoint: "Anchor-3" 499 0 basechar 0
AnchorPoint: "Anchor-2" 300 0 basechar 0
AnchorPoint: "Anchor-0" 300 730 basechar 0
LayerCount: 2
Fore
SplineSet
371 815 m 0
 293 815 280 891 234 891 c 0
 212 891 198 877 198 851 c 2
 198 820 l 1
 140 820 l 1
 140 851 l 2
 140 910 175 945 230 945 c 0
 309 945 322 869 368 869 c 0
 388 869 402 883 402 909 c 2
 402 940 l 1
 460 940 l 1
 460 909 l 2
 460 850 425 815 371 815 c 0
55 0 m 1
 248 730 l 1
 353 730 l 1
 545 0 l 1
 465 0 l 1
 414 198 l 1
 186 198 l 1
 136 0 l 1
 55 0 l 1
202 266 m 1
 397 266 l 1
 335 510 l 2
 315 591 303 649 300 666 c 1
 297 649 285 591 265 510 c 2
 202 266 l 1
EndSplineSet
Validated: 1048577
EndChar

StartChar: AE
Encoding: 198 198 24
Width: 600
GlyphClass: 2
Flags: W
AnchorPoint: "Anchor-2" 300 0 basechar 0
AnchorPoint: "Anchor-0" 300 730 basechar 0
LayerCount: 2
Fore
SplineSet
31 0 m 1
 188 730 l 1
 570 730 l 1
 570 658 l 1
 381 658 l 1
 381 415 l 1
 542 415 l 1
 542 343 l 1
 381 343 l 1
 381 72 l 1
 570 72 l 1
 570 0 l 1
 304 0 l 1
 304 206 l 1
 155 206 l 1
 111 0 l 1
 31 0 l 1
169 273 m 1
 304 273 l 1
 304 658 l 1
 249 658 l 1
 169 273 l 1
EndSplineSet
Validated: 1048577
EndChar

StartChar: AEacute
Encoding: 508 508 25
Width: 600
GlyphClass: 2
Flags: W
AnchorPoint: "Anchor-2" 300 0 basechar 0
AnchorPoint: "Anchor-0" 300 730 basechar 0
LayerCount: 2
Fore
SplineSet
248 810 m 1
 354 950 l 1
 441 950 l 1
 329 810 l 1
 248 810 l 1
31 0 m 1
 188 730 l 1
 570 730 l 1
 570 658 l 1
 381 658 l 1
 381 415 l 1
 542 415 l 1
 542 343 l 1
 381 343 l 1
 381 72 l 1
 570 72 l 1
 570 0 l 1
 304 0 l 1
 304 206 l 1
 155 206 l 1
 111 0 l 1
 31 0 l 1
169 273 m 1
 304 273 l 1
 304 658 l 1
 249 658 l 1
 169 273 l 1
EndSplineSet
Validated: 1048577
EndChar

StartChar: B
Encoding: 66 66 26
Width: 600
GlyphClass: 2
Flags: W
AnchorPoint: "Anchor-2" 300 0 basechar 0
AnchorPoint: "Anchor-0" 300 730 basechar 0
LayerCount: 2
Fore
SplineSet
98 0 m 1
 98 730 l 1
 299 730 l 2
 429 730 509 658 509 541 c 0
 509 460 468 402 398 383 c 1
 478 362 526 296 526 202 c 0
 526 78 444 0 311 0 c 2
 98 0 l 1
175 413 m 1
 299 413 l 2
 380 413 430 460 430 536 c 0
 430 612 381 658 299 658 c 2
 175 658 l 1
 175 413 l 1
175 72 m 1
 304 72 l 2
 393 72 448 122 448 204 c 0
 448 288 393 344 304 344 c 2
 175 344 l 1
 175 72 l 1
EndSplineSet
Validated: 1048577
EndChar

StartChar: C
Encoding: 67 67 27
Width: 600
GlyphClass: 2
Flags: W
AnchorPoint: "Anchor-2" 305 0 basechar 0
AnchorPoint: "Anchor-0" 305 730 basechar 0
LayerCount: 2
Fore
SplineSet
305 -10 m 0
 174 -10 93 69 93 197 c 2
 93 533 l 2
 93 661 174 740 305 740 c 0
 434 740 516 659 516 530 c 1
 437 530 l 1
 437 618 387 669 305 669 c 0
 222 669 172 619 172 533 c 2
 172 197 l 2
 172 111 222 61 305 61 c 0
 387 61 437 112 437 200 c 1
 516 200 l 1
 516 71 434 -10 305 -10 c 0
EndSplineSet
Validated: 1048577
EndChar

StartChar: Cacute
Encoding: 262 262 28
Width: 600
GlyphClass: 2
Flags: W
AnchorPoint: "Anchor-2" 305 0 basechar 0
AnchorPoint: "Anchor-0" 305 730 basechar 0
LayerCount: 2
Fore
SplineSet
253 810 m 1
 359 950 l 1
 446 950 l 1
 334 810 l 1
 253 810 l 1
305 -10 m 0
 174 -10 93 69 93 197 c 2
 93 533 l 2
 93 661 174 740 305 740 c 0
 434 740 516 659 516 530 c 1
 437 530 l 1
 437 618 387 669 305 669 c 0
 222 669 172 619 172 533 c 2
 172 197 l 2
 172 111 222 61 305 61 c 0
 387 61 437 112 437 200 c 1
 516 200 l 1
 516 71 434 -10 305 -10 c 0
EndSplineSet
Validated: 1048577
EndChar

StartChar: Ccaron
Encoding: 268 268 29
Width: 600
GlyphClass: 2
Flags: W
AnchorPoint: "Anchor-2" 305 0 basechar 0
AnchorPoint: "Anchor-0" 305 730 basechar 0
LayerCount: 2
Fore
SplineSet
267 810 m 1
 132 950 l 1
 218 950 l 1
 306 864 l 1
 391 950 l 1
 478 950 l 1
 344 810 l 1
 267 810 l 1
305 -10 m 0
 174 -10 93 69 93 197 c 2
 93 533 l 2
 93 661 174 740 305 740 c 0
 434 740 516 659 516 530 c 1
 437 530 l 1
 437 618 387 669 305 669 c 0
 222 669 172 619 172 533 c 2
 172 197 l 2
 172 111 222 61 305 61 c 0
 387 61 437 112 437 200 c 1
 516 200 l 1
 516 71 434 -10 305 -10 c 0
EndSplineSet
Validated: 1048577
EndChar

StartChar: Ccedilla
Encoding: 199 199 30
Width: 600
GlyphClass: 2
Flags: W
AnchorPoint: "Anchor-2" 305 0 basechar 0
AnchorPoint: "Anchor-0" 305 730 basechar 0
LayerCount: 2
Fore
SplineSet
218 -201 m 1
 218 -151 l 1
 291 -151 l 2
 320 -151 341 -133 341 -114 c 0
 341 -88 301 -68 233 -68 c 1
 256 -6 l 1
 154 12 93 86 93 197 c 2
 93 533 l 2
 93 661 174 740 305 740 c 0
 434 740 516 659 516 530 c 1
 437 530 l 1
 437 618 387 669 305 669 c 0
 222 669 172 619 172 533 c 2
 172 197 l 2
 172 111 222 61 305 61 c 0
 387 61 437 112 437 200 c 1
 516 200 l 1
 516 71 434 -10 308 -10 c 1
 299 -35 l 1
 350 -40 416 -66 416 -119 c 0
 416 -165 370 -201 302 -201 c 2
 218 -201 l 1
EndSplineSet
Validated: 1048577
EndChar

StartChar: Ccircumflex
Encoding: 264 264 31
Width: 600
GlyphClass: 2
Flags: W
AnchorPoint: "Anchor-2" 305 0 basechar 0
AnchorPoint: "Anchor-0" 305 730 basechar 0
LayerCount: 2
Fore
SplineSet
132 810 m 1
 266 950 l 1
 343 950 l 1
 478 810 l 1
 392 810 l 1
 305 896 l 1
 220 810 l 1
 132 810 l 1
305 -10 m 0
 174 -10 93 69 93 197 c 2
 93 533 l 2
 93 661 174 740 305 740 c 0
 434 740 516 659 516 530 c 1
 437 530 l 1
 437 618 387 669 305 669 c 0
 222 669 172 619 172 533 c 2
 172 197 l 2
 172 111 222 61 305 61 c 0
 387 61 437 112 437 200 c 1
 516 200 l 1
 516 71 434 -10 305 -10 c 0
EndSplineSet
Validated: 1048577
EndChar

StartChar: Cdotaccent
Encoding: 266 266 32
Width: 600
GlyphClass: 2
Flags: W
AnchorPoint: "Anchor-2" 305 0 basechar 0
AnchorPoint: "Anchor-0" 305 730 basechar 0
LayerCount: 2
Fore
SplineSet
305 818 m 0
 263 818 237 843 237 880 c 0
 237 917 263 942 305 942 c 0
 347 942 373 917 373 880 c 0
 373 843 347 818 305 818 c 0
305 -10 m 0
 174 -10 93 69 93 197 c 2
 93 533 l 2
 93 661 174 740 305 740 c 0
 434 740 516 659 516 530 c 1
 437 530 l 1
 437 618 387 669 305 669 c 0
 222 669 172 619 172 533 c 2
 172 197 l 2
 172 111 222 61 305 61 c 0
 387 61 437 112 437 200 c 1
 516 200 l 1
 516 71 434 -10 305 -10 c 0
EndSplineSet
Validated: 1048577
EndChar

StartChar: D
Encoding: 68 68 33
Width: 600
GlyphClass: 2
Flags: W
AnchorPoint: "Anchor-4" 300 365 basechar 0
AnchorPoint: "Anchor-2" 300 0 basechar 0
AnchorPoint: "Anchor-0" 300 730 basechar 0
LayerCount: 2
Fore
SplineSet
97 0 m 1
 97 730 l 1
 278 730 l 2
 417 730 507 643 507 511 c 2
 507 220 l 2
 507 87 417 0 278 0 c 2
 97 0 l 1
176 71 m 1
 278 71 l 2
 371 71 428 127 428 220 c 2
 428 511 l 2
 428 602 370 659 278 659 c 2
 176 659 l 1
 176 71 l 1
EndSplineSet
Validated: 1048577
EndChar

StartChar: Eth
Encoding: 208 208 34
Width: 600
GlyphClass: 2
Flags: W
AnchorPoint: "Anchor-4" 300 365 basechar 0
AnchorPoint: "Anchor-2" 300 0 basechar 0
AnchorPoint: "Anchor-0" 300 730 basechar 0
LayerCount: 2
Fore
SplineSet
97 0 m 1
 97 339 l 1
 10 339 l 1
 10 406 l 1
 97 406 l 1
 97 730 l 1
 278 730 l 2
 417 730 507 643 507 511 c 2
 507 220 l 2
 507 87 417 0 278 0 c 2
 97 0 l 1
176 71 m 1
 278 71 l 2
 371 71 428 127 428 220 c 2
 428 511 l 2
 428 602 370 659 278 659 c 2
 176 659 l 1
 176 406 l 1
 290 406 l 1
 290 339 l 1
 176 339 l 1
 176 71 l 1
EndSplineSet
Validated: 1048577
EndChar

StartChar: Dcaron
Encoding: 270 270 35
Width: 600
GlyphClass: 2
Flags: W
AnchorPoint: "Anchor-4" 300 365 basechar 0
AnchorPoint: "Anchor-2" 300 0 basechar 0
AnchorPoint: "Anchor-0" 300 730 basechar 0
LayerCount: 2
Fore
SplineSet
262 810 m 1
 127 950 l 1
 213 950 l 1
 301 864 l 1
 386 950 l 1
 473 950 l 1
 339 810 l 1
 262 810 l 1
97 0 m 1
 97 730 l 1
 278 730 l 2
 417 730 507 643 507 511 c 2
 507 220 l 2
 507 87 417 0 278 0 c 2
 97 0 l 1
176 71 m 1
 278 71 l 2
 371 71 428 127 428 220 c 2
 428 511 l 2
 428 602 370 659 278 659 c 2
 176 659 l 1
 176 71 l 1
EndSplineSet
Validated: 1048577
EndChar

StartChar: Dcroat
Encoding: 272 272 36
Width: 600
GlyphClass: 2
Flags: W
AnchorPoint: "Anchor-4" 300 365 basechar 0
AnchorPoint: "Anchor-2" 300 0 basechar 0
AnchorPoint: "Anchor-0" 300 730 basechar 0
LayerCount: 2
Fore
SplineSet
97 0 m 1
 97 339 l 1
 10 339 l 1
 10 406 l 1
 97 406 l 1
 97 730 l 1
 278 730 l 2
 417 730 507 643 507 511 c 2
 507 220 l 2
 507 87 417 0 278 0 c 2
 97 0 l 1
176 71 m 1
 278 71 l 2
 371 71 428 127 428 220 c 2
 428 511 l 2
 428 602 370 659 278 659 c 2
 176 659 l 1
 176 406 l 1
 290 406 l 1
 290 339 l 1
 176 339 l 1
 176 71 l 1
EndSplineSet
Validated: 1048577
EndChar

StartChar: E
Encoding: 69 69 37
Width: 600
GlyphClass: 2
Flags: W
AnchorPoint: "Anchor-3" 440 0 basechar 0
AnchorPoint: "Anchor-2" 320 0 basechar 0
AnchorPoint: "Anchor-0" 320 730 basechar 0
LayerCount: 2
Fore
SplineSet
105 0 m 1
 105 730 l 1
 517 730 l 1
 517 658 l 1
 184 658 l 1
 184 417 l 1
 482 417 l 1
 482 346 l 1
 184 346 l 1
 184 72 l 1
 517 72 l 1
 517 0 l 1
 105 0 l 1
EndSplineSet
Validated: 1048577
EndChar

StartChar: Eacute
Encoding: 201 201 38
Width: 600
GlyphClass: 2
Flags: W
AnchorPoint: "Anchor-3" 440 0 basechar 0
AnchorPoint: "Anchor-2" 320 0 basechar 0
AnchorPoint: "Anchor-0" 320 730 basechar 0
LayerCount: 2
Fore
SplineSet
268 810 m 1
 374 950 l 1
 461 950 l 1
 349 810 l 1
 268 810 l 1
105 0 m 1
 105 730 l 1
 517 730 l 1
 517 658 l 1
 184 658 l 1
 184 417 l 1
 482 417 l 1
 482 346 l 1
 184 346 l 1
 184 72 l 1
 517 72 l 1
 517 0 l 1
 105 0 l 1
EndSplineSet
Validated: 1048577
EndChar

StartChar: Ebreve
Encoding: 276 276 39
Width: 600
GlyphClass: 2
Flags: W
AnchorPoint: "Anchor-3" 440 0 basechar 0
AnchorPoint: "Anchor-2" 320 0 basechar 0
AnchorPoint: "Anchor-0" 320 730 basechar 0
LayerCount: 2
Fore
SplineSet
320 806 m 0
 226 806 164 863 164 950 c 1
 228 950 l 1
 228 895 264 859 319 859 c 0
 375 859 412 895 412 950 c 1
 476 950 l 1
 476 863 414 806 320 806 c 0
105 0 m 1
 105 730 l 1
 517 730 l 1
 517 658 l 1
 184 658 l 1
 184 417 l 1
 482 417 l 1
 482 346 l 1
 184 346 l 1
 184 72 l 1
 517 72 l 1
 517 0 l 1
 105 0 l 1
EndSplineSet
Validated: 1048577
EndChar

StartChar: Ecaron
Encoding: 282 282 40
Width: 600
GlyphClass: 2
Flags: W
AnchorPoint: "Anchor-3" 440 0 basechar 0
AnchorPoint: "Anchor-2" 320 0 basechar 0
AnchorPoint: "Anchor-0" 320 730 basechar 0
LayerCount: 2
Fore
SplineSet
282 810 m 1
 147 950 l 1
 233 950 l 1
 321 864 l 1
 406 950 l 1
 493 950 l 1
 359 810 l 1
 282 810 l 1
105 0 m 1
 105 730 l 1
 517 730 l 1
 517 658 l 1
 184 658 l 1
 184 417 l 1
 482 417 l 1
 482 346 l 1
 184 346 l 1
 184 72 l 1
 517 72 l 1
 517 0 l 1
 105 0 l 1
EndSplineSet
Validated: 1048577
EndChar

StartChar: Ecircumflex
Encoding: 202 202 41
Width: 600
GlyphClass: 2
Flags: W
AnchorPoint: "Anchor-3" 440 0 basechar 0
AnchorPoint: "Anchor-2" 320 0 basechar 0
AnchorPoint: "Anchor-0" 320 730 basechar 0
LayerCount: 2
Fore
SplineSet
147 810 m 1
 281 950 l 1
 358 950 l 1
 493 810 l 1
 407 810 l 1
 320 896 l 1
 235 810 l 1
 147 810 l 1
105 0 m 1
 105 730 l 1
 517 730 l 1
 517 658 l 1
 184 658 l 1
 184 417 l 1
 482 417 l 1
 482 346 l 1
 184 346 l 1
 184 72 l 1
 517 72 l 1
 517 0 l 1
 105 0 l 1
EndSplineSet
Validated: 1048577
EndChar

StartChar: uni1EBE
Encoding: 7870 7870 42
Width: 600
GlyphClass: 2
Flags: W
AnchorPoint: "Anchor-3" 440 0 basechar 0
AnchorPoint: "Anchor-2" 320 0 basechar 0
AnchorPoint: "Anchor-0" 320 730 basechar 0
LayerCount: 2
Fore
SplineSet
427 899 m 1
 532 1020 l 1
 623 1020 l 1
 512 899 l 1
 427 899 l 1
148 780 m 1
 281 920 l 1
 359 920 l 1
 493 780 l 1
 406 780 l 1
 320 866 l 1
 234 780 l 1
 148 780 l 1
105 0 m 1
 105 730 l 1
 517 730 l 1
 517 658 l 1
 184 658 l 1
 184 417 l 1
 482 417 l 1
 482 346 l 1
 184 346 l 1
 184 72 l 1
 517 72 l 1
 517 0 l 1
 105 0 l 1
EndSplineSet
Validated: 1048577
EndChar

StartChar: uni1EC6
Encoding: 7878 7878 43
Width: 600
GlyphClass: 2
Flags: W
AnchorPoint: "Anchor-3" 440 0 basechar 0
AnchorPoint: "Anchor-2" 320 0 basechar 0
AnchorPoint: "Anchor-0" 320 730 basechar 0
LayerCount: 2
Fore
SplineSet
147 810 m 1
 281 950 l 1
 358 950 l 1
 493 810 l 1
 407 810 l 1
 320 896 l 1
 235 810 l 1
 147 810 l 1
105 0 m 1
 105 730 l 1
 517 730 l 1
 517 658 l 1
 184 658 l 1
 184 417 l 1
 482 417 l 1
 482 346 l 1
 184 346 l 1
 184 72 l 1
 517 72 l 1
 517 0 l 1
 105 0 l 1
320 -211 m 0
 278 -211 252 -187 252 -150 c 0
 252 -112 278 -88 320 -88 c 0
 362 -88 388 -112 388 -150 c 0
 388 -187 362 -211 320 -211 c 0
EndSplineSet
Validated: 1048577
EndChar

StartChar: uni1EC0
Encoding: 7872 7872 44
Width: 600
GlyphClass: 2
Flags: W
AnchorPoint: "Anchor-3" 440 0 basechar 0
AnchorPoint: "Anchor-2" 320 0 basechar 0
AnchorPoint: "Anchor-0" 320 730 basechar 0
LayerCount: 2
Fore
SplineSet
465 899 m 1
 345 1020 l 1
 435 1020 l 1
 548 899 l 1
 465 899 l 1
148 780 m 1
 281 920 l 1
 359 920 l 1
 493 780 l 1
 406 780 l 1
 320 866 l 1
 234 780 l 1
 148 780 l 1
105 0 m 1
 105 730 l 1
 517 730 l 1
 517 658 l 1
 184 658 l 1
 184 417 l 1
 482 417 l 1
 482 346 l 1
 184 346 l 1
 184 72 l 1
 517 72 l 1
 517 0 l 1
 105 0 l 1
EndSplineSet
Validated: 1048577
EndChar

StartChar: uni1EC2
Encoding: 7874 7874 45
Width: 600
GlyphClass: 2
Flags: W
AnchorPoint: "Anchor-3" 440 0 basechar 0
AnchorPoint: "Anchor-2" 320 0 basechar 0
AnchorPoint: "Anchor-0" 320 730 basechar 0
LayerCount: 2
Fore
SplineSet
444 880 m 1
 491 929 l 2
 498 936 502 944 502 951 c 0
 502 961 495 968 484 968 c 2
 416 968 l 1
 416 1020 l 1
 497 1020 l 2
 540 1020 567 997 567 961 c 0
 567 943 559 926 548 914 c 2
 513 880 l 1
 444 880 l 1
148 780 m 1
 281 920 l 1
 359 920 l 1
 493 780 l 1
 406 780 l 1
 320 866 l 1
 234 780 l 1
 148 780 l 1
105 0 m 1
 105 730 l 1
 517 730 l 1
 517 658 l 1
 184 658 l 1
 184 417 l 1
 482 417 l 1
 482 346 l 1
 184 346 l 1
 184 72 l 1
 517 72 l 1
 517 0 l 1
 105 0 l 1
EndSplineSet
Validated: 1048577
EndChar

StartChar: uni1EC4
Encoding: 7876 7876 46
Width: 600
GlyphClass: 2
Flags: W
AnchorPoint: "Anchor-3" 440 0 basechar 0
AnchorPoint: "Anchor-2" 320 0 basechar 0
AnchorPoint: "Anchor-0" 320 730 basechar 0
LayerCount: 2
Fore
SplineSet
396 920 m 0
 315 920 296 971 250 971 c 0
 230 971 217 958 217 939 c 2
 217 930 l 1
 159 930 l 1
 159 939 l 2
 159 989 193 1020 246 1020 c 0
 329 1020 345 969 391 969 c 0
 410 969 423 982 423 1001 c 2
 423 1010 l 1
 481 1010 l 1
 481 1001 l 2
 481 951 448 920 396 920 c 0
148 780 m 1
 265 893 l 1
 375 893 l 1
 492 780 l 1
 405 780 l 1
 320 858 l 1
 234 780 l 1
 148 780 l 1
105 0 m 1
 105 730 l 1
 517 730 l 1
 517 658 l 1
 184 658 l 1
 184 417 l 1
 482 417 l 1
 482 346 l 1
 184 346 l 1
 184 72 l 1
 517 72 l 1
 517 0 l 1
 105 0 l 1
EndSplineSet
Validated: 1048577
EndChar

StartChar: Edieresis
Encoding: 203 203 47
Width: 600
GlyphClass: 2
Flags: W
AnchorPoint: "Anchor-3" 440 0 basechar 0
AnchorPoint: "Anchor-2" 320 0 basechar 0
AnchorPoint: "Anchor-0" 320 730 basechar 0
LayerCount: 2
Fore
SplineSet
431 819 m 0
 394 819 370 843 370 880 c 0
 370 918 394 942 431 942 c 0
 468 942 491 918 491 880 c 0
 491 843 468 819 431 819 c 0
211 819 m 0
 174 819 150 843 150 880 c 0
 150 918 174 942 211 942 c 0
 247 942 271 918 271 880 c 0
 271 843 247 819 211 819 c 0
105 0 m 1
 105 730 l 1
 517 730 l 1
 517 658 l 1
 184 658 l 1
 184 417 l 1
 482 417 l 1
 482 346 l 1
 184 346 l 1
 184 72 l 1
 517 72 l 1
 517 0 l 1
 105 0 l 1
EndSplineSet
Validated: 1048577
EndChar

StartChar: Edotaccent
Encoding: 278 278 48
Width: 600
GlyphClass: 2
Flags: W
AnchorPoint: "Anchor-3" 440 0 basechar 0
AnchorPoint: "Anchor-2" 320 0 basechar 0
AnchorPoint: "Anchor-0" 320 730 basechar 0
LayerCount: 2
Fore
SplineSet
320 818 m 0
 278 818 252 843 252 880 c 0
 252 917 278 942 320 942 c 0
 362 942 388 917 388 880 c 0
 388 843 362 818 320 818 c 0
105 0 m 1
 105 730 l 1
 517 730 l 1
 517 658 l 1
 184 658 l 1
 184 417 l 1
 482 417 l 1
 482 346 l 1
 184 346 l 1
 184 72 l 1
 517 72 l 1
 517 0 l 1
 105 0 l 1
EndSplineSet
Validated: 1048577
EndChar

StartChar: uni1EB8
Encoding: 7864 7864 49
Width: 600
GlyphClass: 2
Flags: W
AnchorPoint: "Anchor-3" 440 0 basechar 0
AnchorPoint: "Anchor-2" 320 0 basechar 0
AnchorPoint: "Anchor-0" 320 730 basechar 0
LayerCount: 2
Fore
SplineSet
105 0 m 1
 105 730 l 1
 517 730 l 1
 517 658 l 1
 184 658 l 1
 184 417 l 1
 482 417 l 1
 482 346 l 1
 184 346 l 1
 184 72 l 1
 517 72 l 1
 517 0 l 1
 105 0 l 1
320 -211 m 0
 278 -211 252 -187 252 -150 c 0
 252 -112 278 -88 320 -88 c 0
 362 -88 388 -112 388 -150 c 0
 388 -187 362 -211 320 -211 c 0
EndSplineSet
Validated: 1048577
EndChar

StartChar: Egrave
Encoding: 200 200 50
Width: 600
GlyphClass: 2
Flags: W
AnchorPoint: "Anchor-3" 440 0 basechar 0
AnchorPoint: "Anchor-2" 320 0 basechar 0
AnchorPoint: "Anchor-0" 320 730 basechar 0
LayerCount: 2
Fore
SplineSet
291 810 m 1
 177 950 l 1
 267 950 l 1
 376 810 l 1
 291 810 l 1
105 0 m 1
 105 730 l 1
 517 730 l 1
 517 658 l 1
 184 658 l 1
 184 417 l 1
 482 417 l 1
 482 346 l 1
 184 346 l 1
 184 72 l 1
 517 72 l 1
 517 0 l 1
 105 0 l 1
EndSplineSet
Validated: 1048577
EndChar

StartChar: uni1EBA
Encoding: 7866 7866 51
Width: 600
GlyphClass: 2
Flags: W
AnchorPoint: "Anchor-3" 440 0 basechar 0
AnchorPoint: "Anchor-2" 320 0 basechar 0
AnchorPoint: "Anchor-0" 320 730 basechar 0
LayerCount: 2
Fore
SplineSet
282 800 m 1
 330 866 l 2
 340 880 345 892 345 900 c 0
 345 914 334 922 312 922 c 2
 233 922 l 1
 233 979 l 1
 315 979 l 2
 374 979 413 951 413 908 c 0
 413 891 407 871 395 855 c 2
 358 800 l 1
 282 800 l 1
105 0 m 1
 105 730 l 1
 517 730 l 1
 517 658 l 1
 184 658 l 1
 184 417 l 1
 482 417 l 1
 482 346 l 1
 184 346 l 1
 184 72 l 1
 517 72 l 1
 517 0 l 1
 105 0 l 1
EndSplineSet
Validated: 1048577
EndChar

StartChar: Emacron
Encoding: 274 274 52
Width: 600
GlyphClass: 2
Flags: W
AnchorPoint: "Anchor-3" 440 0 basechar 0
AnchorPoint: "Anchor-2" 320 0 basechar 0
AnchorPoint: "Anchor-0" 320 730 basechar 0
LayerCount: 2
Fore
SplineSet
165 844 m 1
 165 910 l 1
 475 910 l 1
 475 844 l 1
 165 844 l 1
105 0 m 1
 105 730 l 1
 517 730 l 1
 517 658 l 1
 184 658 l 1
 184 417 l 1
 482 417 l 1
 482 346 l 1
 184 346 l 1
 184 72 l 1
 517 72 l 1
 517 0 l 1
 105 0 l 1
EndSplineSet
Validated: 1048577
EndChar

StartChar: Eogonek
Encoding: 280 280 53
Width: 600
GlyphClass: 2
Flags: W
AnchorPoint: "Anchor-3" 440 0 basechar 0
AnchorPoint: "Anchor-2" 320 0 basechar 0
AnchorPoint: "Anchor-0" 320 730 basechar 0
LayerCount: 2
Fore
SplineSet
105 0 m 1
 105 730 l 1
 517 730 l 1
 517 658 l 1
 184 658 l 1
 184 417 l 1
 482 417 l 1
 482 346 l 1
 184 346 l 1
 184 72 l 1
 517 72 l 1
 517 0 l 1
 470 0 l 1
 427 -36 407 -68 407 -96 c 0
 407 -125 428 -146 461 -146 c 2
 522 -146 l 1
 522 -201 l 1
 446 -201 l 2
 377 -201 332 -164 332 -111 c 0
 332 -76 353 -39 403 0 c 1
 105 0 l 1
EndSplineSet
Validated: 1048577
EndChar

StartChar: uni1EBC
Encoding: 7868 7868 54
Width: 600
GlyphClass: 2
Flags: W
AnchorPoint: "Anchor-3" 440 0 basechar 0
AnchorPoint: "Anchor-2" 320 0 basechar 0
AnchorPoint: "Anchor-0" 320 730 basechar 0
LayerCount: 2
Fore
SplineSet
391 815 m 0
 313 815 300 891 254 891 c 0
 232 891 218 877 218 851 c 2
 218 820 l 1
 160 820 l 1
 160 851 l 2
 160 910 195 945 250 945 c 0
 329 945 342 869 388 869 c 0
 408 869 422 883 422 909 c 2
 422 940 l 1
 480 940 l 1
 480 909 l 2
 480 850 445 815 391 815 c 0
105 0 m 1
 105 730 l 1
 517 730 l 1
 517 658 l 1
 184 658 l 1
 184 417 l 1
 482 417 l 1
 482 346 l 1
 184 346 l 1
 184 72 l 1
 517 72 l 1
 517 0 l 1
 105 0 l 1
EndSplineSet
Validated: 1048577
EndChar

StartChar: F
Encoding: 70 70 55
Width: 600
GlyphClass: 2
Flags: W
AnchorPoint: "Anchor-0" 300 730 basechar 0
LayerCount: 2
Fore
SplineSet
100 0 m 1
 100 730 l 1
 525 730 l 1
 525 658 l 1
 178 658 l 1
 178 402 l 1
 497 402 l 1
 497 330 l 1
 180 330 l 1
 180 0 l 1
 100 0 l 1
EndSplineSet
Validated: 1048577
EndChar

StartChar: G
Encoding: 71 71 56
Width: 600
GlyphClass: 2
Flags: W
AnchorPoint: "Anchor-2" 305 0 basechar 0
AnchorPoint: "Anchor-0" 302 730 basechar 0
LayerCount: 2
Fore
SplineSet
305 -10 m 0
 174 -10 93 69 93 197 c 2
 93 533 l 2
 93 661 174 740 305 740 c 0
 434 740 516 659 516 530 c 1
 437 530 l 1
 437 618 387 669 305 669 c 0
 222 669 172 619 172 533 c 2
 172 197 l 2
 172 111 222 61 305 61 c 0
 387 61 437 112 437 200 c 2
 437 295 l 1
 282 295 l 1
 282 368 l 1
 516 368 l 1
 516 200 l 2
 516 71 434 -10 305 -10 c 0
EndSplineSet
Validated: 1048577
EndChar

StartChar: uni01F4
Encoding: 500 500 57
Width: 600
GlyphClass: 2
Flags: W
AnchorPoint: "Anchor-2" 305 0 basechar 0
AnchorPoint: "Anchor-0" 302 730 basechar 0
LayerCount: 2
Fore
SplineSet
249 810 m 1
 355 950 l 1
 442 950 l 1
 331 810 l 1
 249 810 l 1
305 -10 m 0
 174 -10 93 69 93 197 c 2
 93 533 l 2
 93 661 174 740 305 740 c 0
 434 740 516 659 516 530 c 1
 437 530 l 1
 437 618 387 669 305 669 c 0
 222 669 172 619 172 533 c 2
 172 197 l 2
 172 111 222 61 305 61 c 0
 387 61 437 112 437 200 c 2
 437 295 l 1
 282 295 l 1
 282 368 l 1
 516 368 l 1
 516 200 l 2
 516 71 434 -10 305 -10 c 0
EndSplineSet
Validated: 1048577
EndChar

StartChar: Gbreve
Encoding: 286 286 58
Width: 600
GlyphClass: 2
Flags: W
AnchorPoint: "Anchor-2" 305 0 basechar 0
AnchorPoint: "Anchor-0" 302 730 basechar 0
LayerCount: 2
Fore
SplineSet
302 806 m 0
 207 806 146 863 146 950 c 1
 210 950 l 1
 210 895 245 859 301 859 c 0
 357 859 394 895 394 950 c 1
 458 950 l 1
 458 863 396 806 302 806 c 0
305 -10 m 0
 174 -10 93 69 93 197 c 2
 93 533 l 2
 93 661 174 740 305 740 c 0
 434 740 516 659 516 530 c 1
 437 530 l 1
 437 618 387 669 305 669 c 0
 222 669 172 619 172 533 c 2
 172 197 l 2
 172 111 222 61 305 61 c 0
 387 61 437 112 437 200 c 2
 437 295 l 1
 282 295 l 1
 282 368 l 1
 516 368 l 1
 516 200 l 2
 516 71 434 -10 305 -10 c 0
EndSplineSet
Validated: 1048577
EndChar

StartChar: Gcaron
Encoding: 486 486 59
Width: 600
GlyphClass: 2
Flags: W
AnchorPoint: "Anchor-2" 305 0 basechar 0
AnchorPoint: "Anchor-0" 302 730 basechar 0
LayerCount: 2
Fore
SplineSet
264 810 m 1
 129 950 l 1
 215 950 l 1
 302 864 l 1
 387 950 l 1
 474 950 l 1
 340 810 l 1
 264 810 l 1
305 -10 m 0
 174 -10 93 69 93 197 c 2
 93 533 l 2
 93 661 174 740 305 740 c 0
 434 740 516 659 516 530 c 1
 437 530 l 1
 437 618 387 669 305 669 c 0
 222 669 172 619 172 533 c 2
 172 197 l 2
 172 111 222 61 305 61 c 0
 387 61 437 112 437 200 c 2
 437 295 l 1
 282 295 l 1
 282 368 l 1
 516 368 l 1
 516 200 l 2
 516 71 434 -10 305 -10 c 0
EndSplineSet
Validated: 1048577
EndChar

StartChar: Gcircumflex
Encoding: 284 284 60
Width: 600
GlyphClass: 2
Flags: W
AnchorPoint: "Anchor-2" 305 0 basechar 0
AnchorPoint: "Anchor-0" 302 730 basechar 0
LayerCount: 2
Fore
SplineSet
129 810 m 1
 263 950 l 1
 340 950 l 1
 474 810 l 1
 389 810 l 1
 302 896 l 1
 217 810 l 1
 129 810 l 1
305 -10 m 0
 174 -10 93 69 93 197 c 2
 93 533 l 2
 93 661 174 740 305 740 c 0
 434 740 516 659 516 530 c 1
 437 530 l 1
 437 618 387 669 305 669 c 0
 222 669 172 619 172 533 c 2
 172 197 l 2
 172 111 222 61 305 61 c 0
 387 61 437 112 437 200 c 2
 437 295 l 1
 282 295 l 1
 282 368 l 1
 516 368 l 1
 516 200 l 2
 516 71 434 -10 305 -10 c 0
EndSplineSet
Validated: 1048577
EndChar

StartChar: uni0122
Encoding: 290 290 61
Width: 600
GlyphClass: 2
Flags: W
AnchorPoint: "Anchor-2" 305 0 basechar 0
AnchorPoint: "Anchor-0" 302 730 basechar 0
LayerCount: 2
Fore
SplineSet
305 -10 m 0
 174 -10 93 69 93 197 c 2
 93 533 l 2
 93 661 174 740 305 740 c 0
 434 740 516 659 516 530 c 1
 437 530 l 1
 437 618 387 669 305 669 c 0
 222 669 172 619 172 533 c 2
 172 197 l 2
 172 111 222 61 305 61 c 0
 387 61 437 112 437 200 c 2
 437 295 l 1
 282 295 l 1
 282 368 l 1
 516 368 l 1
 516 200 l 2
 516 71 434 -10 305 -10 c 0
201 -240 m 1
 295 -95 l 1
 389 -95 l 1
 284 -240 l 1
 201 -240 l 1
EndSplineSet
Validated: 1048577
EndChar

StartChar: Gdotaccent
Encoding: 288 288 62
Width: 600
GlyphClass: 2
Flags: W
AnchorPoint: "Anchor-2" 305 0 basechar 0
AnchorPoint: "Anchor-0" 302 730 basechar 0
LayerCount: 2
Fore
SplineSet
302 818 m 0
 260 818 234 843 234 880 c 0
 234 917 260 942 302 942 c 0
 343 942 369 917 369 880 c 0
 369 843 343 818 302 818 c 0
305 -10 m 0
 174 -10 93 69 93 197 c 2
 93 533 l 2
 93 661 174 740 305 740 c 0
 434 740 516 659 516 530 c 1
 437 530 l 1
 437 618 387 669 305 669 c 0
 222 669 172 619 172 533 c 2
 172 197 l 2
 172 111 222 61 305 61 c 0
 387 61 437 112 437 200 c 2
 437 295 l 1
 282 295 l 1
 282 368 l 1
 516 368 l 1
 516 200 l 2
 516 71 434 -10 305 -10 c 0
EndSplineSet
Validated: 1048577
EndChar

StartChar: H
Encoding: 72 72 63
Width: 600
GlyphClass: 2
Flags: W
AnchorPoint: "Anchor-0" 300 730 basechar 0
LayerCount: 2
Fore
SplineSet
98 0 m 1
 98 730 l 1
 177 730 l 1
 177 414 l 1
 423 414 l 1
 423 730 l 1
 502 730 l 1
 502 0 l 1
 423 0 l 1
 423 341 l 1
 177 341 l 1
 177 0 l 1
 98 0 l 1
EndSplineSet
Validated: 1048577
EndChar

StartChar: Hbar
Encoding: 294 294 64
Width: 600
GlyphClass: 2
Flags: W
AnchorPoint: "Anchor-0" 300 730 basechar 0
LayerCount: 2
Fore
SplineSet
98 0 m 1
 98 529 l 1
 10 529 l 1
 10 596 l 1
 98 596 l 1
 98 730 l 1
 177 730 l 1
 177 596 l 1
 423 596 l 1
 423 730 l 1
 502 730 l 1
 502 596 l 1
 590 596 l 1
 590 529 l 1
 502 529 l 1
 502 0 l 1
 423 0 l 1
 423 341 l 1
 177 341 l 1
 177 0 l 1
 98 0 l 1
177 414 m 1
 423 414 l 1
 423 529 l 1
 177 529 l 1
 177 414 l 1
EndSplineSet
Validated: 1048577
EndChar

StartChar: Hcircumflex
Encoding: 292 292 65
Width: 600
GlyphClass: 2
Flags: W
AnchorPoint: "Anchor-0" 300 730 basechar 0
LayerCount: 2
Fore
SplineSet
127 810 m 1
 261 950 l 1
 338 950 l 1
 473 810 l 1
 387 810 l 1
 300 896 l 1
 215 810 l 1
 127 810 l 1
98 0 m 1
 98 730 l 1
 177 730 l 1
 177 414 l 1
 423 414 l 1
 423 730 l 1
 502 730 l 1
 502 0 l 1
 423 0 l 1
 423 341 l 1
 177 341 l 1
 177 0 l 1
 98 0 l 1
EndSplineSet
Validated: 1048577
EndChar

StartChar: I
Encoding: 73 73 66
Width: 600
GlyphClass: 2
Flags: W
AnchorPoint: "Anchor-3" 320 0 basechar 0
AnchorPoint: "Anchor-2" 300 0 basechar 0
AnchorPoint: "Anchor-0" 300 730 basechar 0
LayerCount: 2
Fore
SplineSet
109 0 m 1
 109 72 l 1
 260 72 l 1
 260 658 l 1
 109 658 l 1
 109 730 l 1
 491 730 l 1
 491 658 l 1
 341 658 l 1
 341 72 l 1
 491 72 l 1
 491 0 l 1
 109 0 l 1
EndSplineSet
Validated: 1048577
EndChar

StartChar: Iacute
Encoding: 205 205 67
Width: 600
GlyphClass: 2
Flags: W
AnchorPoint: "Anchor-3" 320 0 basechar 0
AnchorPoint: "Anchor-2" 300 0 basechar 0
AnchorPoint: "Anchor-0" 300 730 basechar 0
LayerCount: 2
Fore
SplineSet
248 810 m 1
 354 950 l 1
 441 950 l 1
 329 810 l 1
 248 810 l 1
109 0 m 1
 109 72 l 1
 260 72 l 1
 260 658 l 1
 109 658 l 1
 109 730 l 1
 491 730 l 1
 491 658 l 1
 341 658 l 1
 341 72 l 1
 491 72 l 1
 491 0 l 1
 109 0 l 1
EndSplineSet
Validated: 1048577
EndChar

StartChar: Ibreve
Encoding: 300 300 68
Width: 600
GlyphClass: 2
Flags: W
AnchorPoint: "Anchor-3" 320 0 basechar 0
AnchorPoint: "Anchor-2" 300 0 basechar 0
AnchorPoint: "Anchor-0" 300 730 basechar 0
LayerCount: 2
Fore
SplineSet
300 806 m 0
 206 806 144 863 144 950 c 1
 208 950 l 1
 208 895 244 859 299 859 c 0
 355 859 392 895 392 950 c 1
 456 950 l 1
 456 863 394 806 300 806 c 0
109 0 m 1
 109 72 l 1
 260 72 l 1
 260 658 l 1
 109 658 l 1
 109 730 l 1
 491 730 l 1
 491 658 l 1
 341 658 l 1
 341 72 l 1
 491 72 l 1
 491 0 l 1
 109 0 l 1
EndSplineSet
Validated: 1048577
EndChar

StartChar: Icircumflex
Encoding: 206 206 69
Width: 600
GlyphClass: 2
Flags: W
AnchorPoint: "Anchor-3" 320 0 basechar 0
AnchorPoint: "Anchor-2" 300 0 basechar 0
AnchorPoint: "Anchor-0" 300 730 basechar 0
LayerCount: 2
Fore
SplineSet
127 810 m 1
 261 950 l 1
 338 950 l 1
 473 810 l 1
 387 810 l 1
 300 896 l 1
 215 810 l 1
 127 810 l 1
109 0 m 1
 109 72 l 1
 260 72 l 1
 260 658 l 1
 109 658 l 1
 109 730 l 1
 491 730 l 1
 491 658 l 1
 341 658 l 1
 341 72 l 1
 491 72 l 1
 491 0 l 1
 109 0 l 1
EndSplineSet
Validated: 1048577
EndChar

StartChar: Idieresis
Encoding: 207 207 70
Width: 600
GlyphClass: 2
Flags: W
AnchorPoint: "Anchor-3" 320 0 basechar 0
AnchorPoint: "Anchor-2" 300 0 basechar 0
AnchorPoint: "Anchor-0" 300 730 basechar 0
LayerCount: 2
Fore
SplineSet
411 819 m 0
 374 819 350 843 350 880 c 0
 350 918 374 942 411 942 c 0
 448 942 471 918 471 880 c 0
 471 843 448 819 411 819 c 0
191 819 m 0
 154 819 130 843 130 880 c 0
 130 918 154 942 191 942 c 0
 227 942 251 918 251 880 c 0
 251 843 227 819 191 819 c 0
109 0 m 1
 109 72 l 1
 260 72 l 1
 260 658 l 1
 109 658 l 1
 109 730 l 1
 491 730 l 1
 491 658 l 1
 341 658 l 1
 341 72 l 1
 491 72 l 1
 491 0 l 1
 109 0 l 1
EndSplineSet
Validated: 1048577
EndChar

StartChar: Idotaccent
Encoding: 304 304 71
Width: 600
GlyphClass: 2
Flags: W
AnchorPoint: "Anchor-3" 320 0 basechar 0
AnchorPoint: "Anchor-2" 300 0 basechar 0
AnchorPoint: "Anchor-0" 300 730 basechar 0
LayerCount: 2
Fore
SplineSet
300 818 m 0
 258 818 232 843 232 880 c 0
 232 917 258 942 300 942 c 0
 342 942 368 917 368 880 c 0
 368 843 342 818 300 818 c 0
109 0 m 1
 109 72 l 1
 260 72 l 1
 260 658 l 1
 109 658 l 1
 109 730 l 1
 491 730 l 1
 491 658 l 1
 341 658 l 1
 341 72 l 1
 491 72 l 1
 491 0 l 1
 109 0 l 1
EndSplineSet
Validated: 1048577
EndChar

StartChar: uni1ECA
Encoding: 7882 7882 72
Width: 600
GlyphClass: 2
Flags: W
AnchorPoint: "Anchor-3" 320 0 basechar 0
AnchorPoint: "Anchor-2" 300 0 basechar 0
AnchorPoint: "Anchor-0" 300 730 basechar 0
LayerCount: 2
Fore
SplineSet
109 0 m 1
 109 72 l 1
 260 72 l 1
 260 658 l 1
 109 658 l 1
 109 730 l 1
 491 730 l 1
 491 658 l 1
 341 658 l 1
 341 72 l 1
 491 72 l 1
 491 0 l 1
 109 0 l 1
300 -211 m 0
 258 -211 232 -187 232 -150 c 0
 232 -112 258 -88 300 -88 c 0
 342 -88 368 -112 368 -150 c 0
 368 -187 342 -211 300 -211 c 0
EndSplineSet
Validated: 1048577
EndChar

StartChar: Igrave
Encoding: 204 204 73
Width: 600
GlyphClass: 2
Flags: W
AnchorPoint: "Anchor-3" 320 0 basechar 0
AnchorPoint: "Anchor-2" 300 0 basechar 0
AnchorPoint: "Anchor-0" 300 730 basechar 0
LayerCount: 2
Fore
SplineSet
271 810 m 1
 157 950 l 1
 247 950 l 1
 356 810 l 1
 271 810 l 1
109 0 m 1
 109 72 l 1
 260 72 l 1
 260 658 l 1
 109 658 l 1
 109 730 l 1
 491 730 l 1
 491 658 l 1
 341 658 l 1
 341 72 l 1
 491 72 l 1
 491 0 l 1
 109 0 l 1
EndSplineSet
Validated: 1048577
EndChar

StartChar: uni1EC8
Encoding: 7880 7880 74
Width: 600
GlyphClass: 2
Flags: W
AnchorPoint: "Anchor-3" 320 0 basechar 0
AnchorPoint: "Anchor-2" 300 0 basechar 0
AnchorPoint: "Anchor-0" 300 730 basechar 0
LayerCount: 2
Fore
SplineSet
262 800 m 1
 310 866 l 2
 320 880 325 892 325 900 c 0
 325 914 314 922 292 922 c 2
 213 922 l 1
 213 979 l 1
 295 979 l 2
 354 979 393 951 393 908 c 0
 393 891 387 871 375 855 c 2
 338 800 l 1
 262 800 l 1
109 0 m 1
 109 72 l 1
 260 72 l 1
 260 658 l 1
 109 658 l 1
 109 730 l 1
 491 730 l 1
 491 658 l 1
 341 658 l 1
 341 72 l 1
 491 72 l 1
 491 0 l 1
 109 0 l 1
EndSplineSet
Validated: 1048577
EndChar

StartChar: Imacron
Encoding: 298 298 75
Width: 600
GlyphClass: 2
Flags: W
AnchorPoint: "Anchor-3" 320 0 basechar 0
AnchorPoint: "Anchor-2" 300 0 basechar 0
AnchorPoint: "Anchor-0" 300 730 basechar 0
LayerCount: 2
Fore
SplineSet
145 844 m 1
 145 910 l 1
 455 910 l 1
 455 844 l 1
 145 844 l 1
109 0 m 1
 109 72 l 1
 260 72 l 1
 260 658 l 1
 109 658 l 1
 109 730 l 1
 491 730 l 1
 491 658 l 1
 341 658 l 1
 341 72 l 1
 491 72 l 1
 491 0 l 1
 109 0 l 1
EndSplineSet
Validated: 1048577
EndChar

StartChar: Iogonek
Encoding: 302 302 76
Width: 600
GlyphClass: 2
Flags: W
AnchorPoint: "Anchor-3" 320 0 basechar 0
AnchorPoint: "Anchor-2" 300 0 basechar 0
AnchorPoint: "Anchor-0" 300 730 basechar 0
LayerCount: 2
Fore
SplineSet
109 0 m 1
 109 72 l 1
 260 72 l 1
 260 658 l 1
 109 658 l 1
 109 730 l 1
 491 730 l 1
 491 658 l 1
 341 658 l 1
 341 72 l 1
 491 72 l 1
 491 0 l 1
 330 0 l 1
 287 -36 267 -68 267 -96 c 0
 267 -125 288 -146 321 -146 c 2
 382 -146 l 1
 382 -201 l 1
 306 -201 l 2
 237 -201 192 -164 192 -111 c 0
 192 -76 213 -39 263 0 c 1
 109 0 l 1
EndSplineSet
Validated: 1048577
EndChar

StartChar: Itilde
Encoding: 296 296 77
Width: 600
GlyphClass: 2
Flags: W
AnchorPoint: "Anchor-3" 320 0 basechar 0
AnchorPoint: "Anchor-2" 300 0 basechar 0
AnchorPoint: "Anchor-0" 300 730 basechar 0
LayerCount: 2
Fore
SplineSet
371 815 m 0
 293 815 280 891 234 891 c 0
 212 891 198 877 198 851 c 2
 198 820 l 1
 140 820 l 1
 140 851 l 2
 140 910 175 945 230 945 c 0
 309 945 322 869 368 869 c 0
 388 869 402 883 402 909 c 2
 402 940 l 1
 460 940 l 1
 460 909 l 2
 460 850 425 815 371 815 c 0
109 0 m 1
 109 72 l 1
 260 72 l 1
 260 658 l 1
 109 658 l 1
 109 730 l 1
 491 730 l 1
 491 658 l 1
 341 658 l 1
 341 72 l 1
 491 72 l 1
 491 0 l 1
 109 0 l 1
EndSplineSet
Validated: 1048577
EndChar

StartChar: J
Encoding: 74 74 78
Width: 600
GlyphClass: 2
Flags: W
AnchorPoint: "Anchor-0" 360 730 basechar 0
LayerCount: 2
Fore
SplineSet
271 -10 m 0
 135 -10 52 73 52 207 c 1
 131 207 l 1
 131 115 183 61 271 61 c 0
 359 61 412 115 412 207 c 2
 412 657 l 1
 201 657 l 1
 201 730 l 1
 491 730 l 1
 491 207 l 2
 491 73 407 -10 271 -10 c 0
EndSplineSet
Validated: 1048577
EndChar

StartChar: Jcircumflex
Encoding: 308 308 79
Width: 600
GlyphClass: 2
Flags: W
AnchorPoint: "Anchor-0" 360 730 basechar 0
LayerCount: 2
Fore
SplineSet
187 810 m 1
 321 950 l 1
 398 950 l 1
 533 810 l 1
 447 810 l 1
 360 896 l 1
 275 810 l 1
 187 810 l 1
271 -10 m 0
 135 -10 52 73 52 207 c 1
 131 207 l 1
 131 115 183 61 271 61 c 0
 359 61 412 115 412 207 c 2
 412 657 l 1
 201 657 l 1
 201 730 l 1
 491 730 l 1
 491 207 l 2
 491 73 407 -10 271 -10 c 0
EndSplineSet
Validated: 1048577
EndChar

StartChar: K
Encoding: 75 75 80
Width: 600
GlyphClass: 2
Flags: W
AnchorPoint: "Anchor-2" 300 0 basechar 0
AnchorPoint: "Anchor-0" 300 730 basechar 0
LayerCount: 2
Fore
SplineSet
97 0 m 1
 97 730 l 1
 176 730 l 1
 176 413 l 1
 296 413 l 1
 458 730 l 1
 545 730 l 1
 366 380 l 1
 555 0 l 1
 463 0 l 1
 294 343 l 1
 176 343 l 1
 176 0 l 1
 97 0 l 1
EndSplineSet
Validated: 1048577
EndChar

StartChar: uni0136
Encoding: 310 310 81
Width: 600
GlyphClass: 2
Flags: W
AnchorPoint: "Anchor-2" 300 0 basechar 0
AnchorPoint: "Anchor-0" 300 730 basechar 0
LayerCount: 2
Fore
SplineSet
97 0 m 1
 97 730 l 1
 176 730 l 1
 176 413 l 1
 296 413 l 1
 458 730 l 1
 545 730 l 1
 366 380 l 1
 555 0 l 1
 463 0 l 1
 294 343 l 1
 176 343 l 1
 176 0 l 1
 97 0 l 1
197 -240 m 1
 290 -95 l 1
 385 -95 l 1
 280 -240 l 1
 197 -240 l 1
EndSplineSet
Validated: 1048577
EndChar

StartChar: L
Encoding: 76 76 82
Width: 600
GlyphClass: 2
Flags: W
AnchorPoint: "Anchor-2" 320 0 basechar 0
AnchorPoint: "Anchor-0" 157 730 basechar 0
LayerCount: 2
Fore
SplineSet
116 0 m 1
 116 730 l 1
 196 730 l 1
 196 72 l 1
 532 72 l 1
 532 0 l 1
 116 0 l 1
EndSplineSet
Validated: 1048577
EndChar

StartChar: Lacute
Encoding: 313 313 83
Width: 600
GlyphClass: 2
Flags: W
AnchorPoint: "Anchor-2" 320 0 basechar 0
AnchorPoint: "Anchor-0" 157 730 basechar 0
LayerCount: 2
Fore
SplineSet
105 810 m 1
 211 950 l 1
 298 950 l 1
 186 810 l 1
 105 810 l 1
116 0 m 1
 116 730 l 1
 196 730 l 1
 196 72 l 1
 532 72 l 1
 532 0 l 1
 116 0 l 1
EndSplineSet
Validated: 1048577
EndChar

StartChar: Lcaron
Encoding: 317 317 84
Width: 600
GlyphClass: 2
Flags: W
AnchorPoint: "Anchor-2" 320 0 basechar 0
AnchorPoint: "Anchor-0" 157 730 basechar 0
LayerCount: 2
Fore
SplineSet
116 0 m 1
 116 730 l 1
 196 730 l 1
 196 72 l 1
 532 72 l 1
 532 0 l 1
 116 0 l 1
357 550 m 1
 367 730 l 1
 443 730 l 1
 423 550 l 1
 357 550 l 1
EndSplineSet
Validated: 1048577
EndChar

StartChar: uni013B
Encoding: 315 315 85
Width: 600
GlyphClass: 2
Flags: W
AnchorPoint: "Anchor-2" 320 0 basechar 0
AnchorPoint: "Anchor-0" 157 730 basechar 0
LayerCount: 2
Fore
SplineSet
116 0 m 1
 116 730 l 1
 196 730 l 1
 196 72 l 1
 532 72 l 1
 532 0 l 1
 116 0 l 1
217 -240 m 1
 310 -95 l 1
 405 -95 l 1
 300 -240 l 1
 217 -240 l 1
EndSplineSet
Validated: 1048577
EndChar

StartChar: Ldot
Encoding: 319 319 86
Width: 600
GlyphClass: 2
Flags: W
AnchorPoint: "Anchor-2" 320 0 basechar 0
AnchorPoint: "Anchor-0" 157 730 basechar 0
LayerCount: 2
Fore
SplineSet
116 0 m 1
 116 730 l 1
 196 730 l 1
 196 72 l 1
 532 72 l 1
 532 0 l 1
 116 0 l 1
444 265 m 0
 394 265 363 295 363 344 c 0
 363 395 394 426 444 426 c 0
 493 426 524 395 524 344 c 0
 524 295 493 265 444 265 c 0
EndSplineSet
Validated: 1048577
EndChar

StartChar: Lslash
Encoding: 321 321 87
Width: 600
GlyphClass: 2
Flags: W
AnchorPoint: "Anchor-2" 323 0 basechar 0
AnchorPoint: "Anchor-0" 160 730 basechar 0
LayerCount: 2
Fore
SplineSet
119 0 m 1
 119 300 l 1
 20 233 l 1
 20 306 l 1
 119 373 l 1
 119 730 l 1
 198 730 l 1
 198 427 l 1
 390 557 l 1
 390 484 l 1
 198 354 l 1
 198 72 l 1
 535 72 l 1
 535 0 l 1
 119 0 l 1
EndSplineSet
Validated: 1048577
EndChar

StartChar: M
Encoding: 77 77 88
Width: 600
GlyphClass: 2
Flags: W
AnchorPoint: "Anchor-2" 300 0 basechar 0
AnchorPoint: "Anchor-0" 300 730 basechar 0
LayerCount: 2
Fore
SplineSet
80 0 m 1
 80 730 l 1
 187 730 l 1
 271 482 l 2
 284 443 296 399 302 376 c 1
 307 399 319 443 332 483 c 2
 413 730 l 1
 520 730 l 1
 520 0 l 1
 442 0 l 1
 442 312 l 2
 442 425 454 597 463 690 c 1
 339 321 l 1
 262 321 l 1
 136 690 l 1
 146 600 158 435 158 312 c 2
 158 0 l 1
 80 0 l 1
EndSplineSet
Validated: 1048577
EndChar

StartChar: N
Encoding: 78 78 89
Width: 600
GlyphClass: 2
Flags: W
AnchorPoint: "Anchor-2" 300 0 basechar 0
AnchorPoint: "Anchor-0" 300 730 basechar 0
LayerCount: 2
Fore
SplineSet
95 0 m 1
 95 730 l 1
 201 730 l 1
 436 92 l 1
 433 138 428 222 428 280 c 2
 428 730 l 1
 505 730 l 1
 505 0 l 1
 398 0 l 1
 165 638 l 1
 168 597 172 517 172 450 c 2
 172 0 l 1
 95 0 l 1
EndSplineSet
Validated: 1048577
EndChar

StartChar: Nacute
Encoding: 323 323 90
Width: 600
GlyphClass: 2
Flags: W
AnchorPoint: "Anchor-2" 300 0 basechar 0
AnchorPoint: "Anchor-0" 300 730 basechar 0
LayerCount: 2
Fore
SplineSet
248 810 m 1
 354 950 l 1
 441 950 l 1
 329 810 l 1
 248 810 l 1
95 0 m 1
 95 730 l 1
 201 730 l 1
 436 92 l 1
 433 138 428 222 428 280 c 2
 428 730 l 1
 505 730 l 1
 505 0 l 1
 398 0 l 1
 165 638 l 1
 168 597 172 517 172 450 c 2
 172 0 l 1
 95 0 l 1
EndSplineSet
Validated: 1048577
EndChar

StartChar: Ncaron
Encoding: 327 327 91
Width: 600
GlyphClass: 2
Flags: W
AnchorPoint: "Anchor-2" 300 0 basechar 0
AnchorPoint: "Anchor-0" 300 730 basechar 0
LayerCount: 2
Fore
SplineSet
262 810 m 1
 127 950 l 1
 213 950 l 1
 301 864 l 1
 386 950 l 1
 473 950 l 1
 339 810 l 1
 262 810 l 1
95 0 m 1
 95 730 l 1
 201 730 l 1
 436 92 l 1
 433 138 428 222 428 280 c 2
 428 730 l 1
 505 730 l 1
 505 0 l 1
 398 0 l 1
 165 638 l 1
 168 597 172 517 172 450 c 2
 172 0 l 1
 95 0 l 1
EndSplineSet
Validated: 1048577
EndChar

StartChar: uni0145
Encoding: 325 325 92
Width: 600
GlyphClass: 2
Flags: W
AnchorPoint: "Anchor-2" 300 0 basechar 0
AnchorPoint: "Anchor-0" 300 730 basechar 0
LayerCount: 2
Fore
SplineSet
95 0 m 1
 95 730 l 1
 201 730 l 1
 436 92 l 1
 433 138 428 222 428 280 c 2
 428 730 l 1
 505 730 l 1
 505 0 l 1
 398 0 l 1
 165 638 l 1
 168 597 172 517 172 450 c 2
 172 0 l 1
 95 0 l 1
197 -240 m 1
 290 -95 l 1
 385 -95 l 1
 280 -240 l 1
 197 -240 l 1
EndSplineSet
Validated: 1048577
EndChar

StartChar: Eng
Encoding: 330 330 93
Width: 600
Flags: W
LayerCount: 2
Fore
SplineSet
237 -180 m 1
 237 -108 l 1
 306 -108 l 2
 381 -108 426 -64 426 11 c 1
 165 638 l 1
 168 597 172 517 172 450 c 2
 172 0 l 1
 95 0 l 1
 95 730 l 1
 201 730 l 1
 437 158 l 1
 433 201 428 282 428 350 c 2
 428 730 l 1
 505 730 l 1
 505 11 l 2
 505 -106 428 -180 306 -180 c 2
 237 -180 l 1
EndSplineSet
Validated: 1
EndChar

StartChar: Ntilde
Encoding: 209 209 94
Width: 600
GlyphClass: 2
Flags: W
AnchorPoint: "Anchor-2" 300 0 basechar 0
AnchorPoint: "Anchor-0" 300 730 basechar 0
LayerCount: 2
Fore
SplineSet
371 815 m 0
 293 815 280 891 234 891 c 0
 212 891 198 877 198 851 c 2
 198 820 l 1
 140 820 l 1
 140 851 l 2
 140 910 175 945 230 945 c 0
 309 945 322 869 368 869 c 0
 388 869 402 883 402 909 c 2
 402 940 l 1
 460 940 l 1
 460 909 l 2
 460 850 425 815 371 815 c 0
95 0 m 1
 95 730 l 1
 201 730 l 1
 436 92 l 1
 433 138 428 222 428 280 c 2
 428 730 l 1
 505 730 l 1
 505 0 l 1
 398 0 l 1
 165 638 l 1
 168 597 172 517 172 450 c 2
 172 0 l 1
 95 0 l 1
EndSplineSet
Validated: 1048577
EndChar

StartChar: O
Encoding: 79 79 95
Width: 600
GlyphClass: 2
Flags: W
AnchorPoint: "Anchor-4" 300 365 basechar 0
AnchorPoint: "Anchor-3" 351 0 basechar 0
AnchorPoint: "Anchor-2" 300 0 basechar 0
AnchorPoint: "Anchor-1" 320 700 basechar 0
AnchorPoint: "Anchor-0" 300 730 basechar 0
LayerCount: 2
Fore
SplineSet
300 -10 m 0
 172 -10 93 69 93 197 c 2
 93 533 l 2
 93 661 172 740 300 740 c 0
 428 740 507 661 507 533 c 2
 507 197 l 2
 507 69 428 -10 300 -10 c 0
300 61 m 0
 382 61 428 110 428 197 c 2
 428 533 l 2
 428 620 381 669 300 669 c 0
 219 669 172 620 172 533 c 2
 172 197 l 2
 172 110 218 61 300 61 c 0
EndSplineSet
Validated: 1
Substitution2: "Single Substitution lookup 375 subtable" ordmasculine
Substitution2: "'aalt' Access All Alternates in Latin lookup 0 subtable" ordmasculine
EndChar

StartChar: Oacute
Encoding: 211 211 96
Width: 600
GlyphClass: 2
Flags: W
AnchorPoint: "Anchor-4" 300 365 basechar 0
AnchorPoint: "Anchor-3" 351 0 basechar 0
AnchorPoint: "Anchor-2" 300 0 basechar 0
AnchorPoint: "Anchor-1" 320 700 basechar 0
AnchorPoint: "Anchor-0" 300 730 basechar 0
LayerCount: 2
Fore
SplineSet
248 810 m 1
 354 950 l 1
 441 950 l 1
 329 810 l 1
 248 810 l 1
300 -10 m 0
 172 -10 93 69 93 197 c 2
 93 533 l 2
 93 661 172 740 300 740 c 0
 428 740 507 661 507 533 c 2
 507 197 l 2
 507 69 428 -10 300 -10 c 0
300 61 m 0
 382 61 428 110 428 197 c 2
 428 533 l 2
 428 620 381 669 300 669 c 0
 219 669 172 620 172 533 c 2
 172 197 l 2
 172 110 218 61 300 61 c 0
EndSplineSet
Validated: 1
EndChar

StartChar: Obreve
Encoding: 334 334 97
Width: 600
GlyphClass: 2
Flags: W
AnchorPoint: "Anchor-4" 300 365 basechar 0
AnchorPoint: "Anchor-3" 351 0 basechar 0
AnchorPoint: "Anchor-2" 300 0 basechar 0
AnchorPoint: "Anchor-1" 320 700 basechar 0
AnchorPoint: "Anchor-0" 300 730 basechar 0
LayerCount: 2
Fore
SplineSet
300 806 m 0
 206 806 144 863 144 950 c 1
 208 950 l 1
 208 895 244 859 299 859 c 0
 355 859 392 895 392 950 c 1
 456 950 l 1
 456 863 394 806 300 806 c 0
300 -10 m 0
 172 -10 93 69 93 197 c 2
 93 533 l 2
 93 661 172 740 300 740 c 0
 428 740 507 661 507 533 c 2
 507 197 l 2
 507 69 428 -10 300 -10 c 0
300 61 m 0
 382 61 428 110 428 197 c 2
 428 533 l 2
 428 620 381 669 300 669 c 0
 219 669 172 620 172 533 c 2
 172 197 l 2
 172 110 218 61 300 61 c 0
EndSplineSet
Validated: 1
EndChar

StartChar: Ocircumflex
Encoding: 212 212 98
Width: 600
GlyphClass: 2
Flags: W
AnchorPoint: "Anchor-4" 300 365 basechar 0
AnchorPoint: "Anchor-3" 351 0 basechar 0
AnchorPoint: "Anchor-2" 300 0 basechar 0
AnchorPoint: "Anchor-1" 320 700 basechar 0
AnchorPoint: "Anchor-0" 300 730 basechar 0
LayerCount: 2
Fore
SplineSet
127 810 m 1
 261 950 l 1
 338 950 l 1
 473 810 l 1
 387 810 l 1
 300 896 l 1
 215 810 l 1
 127 810 l 1
300 -10 m 0
 172 -10 93 69 93 197 c 2
 93 533 l 2
 93 661 172 740 300 740 c 0
 428 740 507 661 507 533 c 2
 507 197 l 2
 507 69 428 -10 300 -10 c 0
300 61 m 0
 382 61 428 110 428 197 c 2
 428 533 l 2
 428 620 381 669 300 669 c 0
 219 669 172 620 172 533 c 2
 172 197 l 2
 172 110 218 61 300 61 c 0
EndSplineSet
Validated: 1
EndChar

StartChar: uni1ED0
Encoding: 7888 7888 99
Width: 600
GlyphClass: 2
Flags: W
AnchorPoint: "Anchor-4" 300 365 basechar 0
AnchorPoint: "Anchor-3" 351 0 basechar 0
AnchorPoint: "Anchor-2" 300 0 basechar 0
AnchorPoint: "Anchor-1" 320 700 basechar 0
AnchorPoint: "Anchor-0" 300 730 basechar 0
LayerCount: 2
Fore
SplineSet
407 899 m 1
 512 1020 l 1
 603 1020 l 1
 492 899 l 1
 407 899 l 1
128 780 m 1
 261 920 l 1
 339 920 l 1
 473 780 l 1
 386 780 l 1
 300 866 l 1
 214 780 l 1
 128 780 l 1
300 -10 m 0
 172 -10 93 69 93 197 c 2
 93 533 l 2
 93 661 172 740 300 740 c 0
 428 740 507 661 507 533 c 2
 507 197 l 2
 507 69 428 -10 300 -10 c 0
300 61 m 0
 382 61 428 110 428 197 c 2
 428 533 l 2
 428 620 381 669 300 669 c 0
 219 669 172 620 172 533 c 2
 172 197 l 2
 172 110 218 61 300 61 c 0
EndSplineSet
Validated: 1
EndChar

StartChar: uni1ED8
Encoding: 7896 7896 100
Width: 600
GlyphClass: 2
Flags: W
AnchorPoint: "Anchor-4" 300 365 basechar 0
AnchorPoint: "Anchor-3" 351 0 basechar 0
AnchorPoint: "Anchor-2" 300 0 basechar 0
AnchorPoint: "Anchor-1" 320 700 basechar 0
AnchorPoint: "Anchor-0" 300 730 basechar 0
LayerCount: 2
Fore
SplineSet
127 810 m 1
 261 950 l 1
 338 950 l 1
 473 810 l 1
 387 810 l 1
 300 896 l 1
 215 810 l 1
 127 810 l 1
300 -10 m 0
 172 -10 93 69 93 197 c 2
 93 533 l 2
 93 661 172 740 300 740 c 0
 428 740 507 661 507 533 c 2
 507 197 l 2
 507 69 428 -10 300 -10 c 0
300 61 m 0
 382 61 428 110 428 197 c 2
 428 533 l 2
 428 620 381 669 300 669 c 0
 219 669 172 620 172 533 c 2
 172 197 l 2
 172 110 218 61 300 61 c 0
300 -211 m 0
 258 -211 232 -187 232 -150 c 0
 232 -112 258 -88 300 -88 c 0
 342 -88 368 -112 368 -150 c 0
 368 -187 342 -211 300 -211 c 0
EndSplineSet
Validated: 1
EndChar

StartChar: uni1ED2
Encoding: 7890 7890 101
Width: 600
GlyphClass: 2
Flags: W
AnchorPoint: "Anchor-4" 300 365 basechar 0
AnchorPoint: "Anchor-3" 351 0 basechar 0
AnchorPoint: "Anchor-2" 300 0 basechar 0
AnchorPoint: "Anchor-1" 320 700 basechar 0
AnchorPoint: "Anchor-0" 300 730 basechar 0
LayerCount: 2
Fore
SplineSet
445 899 m 1
 325 1020 l 1
 415 1020 l 1
 528 899 l 1
 445 899 l 1
128 780 m 1
 261 920 l 1
 339 920 l 1
 473 780 l 1
 386 780 l 1
 300 866 l 1
 214 780 l 1
 128 780 l 1
300 -10 m 0
 172 -10 93 69 93 197 c 2
 93 533 l 2
 93 661 172 740 300 740 c 0
 428 740 507 661 507 533 c 2
 507 197 l 2
 507 69 428 -10 300 -10 c 0
300 61 m 0
 382 61 428 110 428 197 c 2
 428 533 l 2
 428 620 381 669 300 669 c 0
 219 669 172 620 172 533 c 2
 172 197 l 2
 172 110 218 61 300 61 c 0
EndSplineSet
Validated: 1
EndChar

StartChar: uni1ED4
Encoding: 7892 7892 102
Width: 600
GlyphClass: 2
Flags: W
AnchorPoint: "Anchor-4" 300 365 basechar 0
AnchorPoint: "Anchor-3" 351 0 basechar 0
AnchorPoint: "Anchor-2" 300 0 basechar 0
AnchorPoint: "Anchor-1" 320 700 basechar 0
AnchorPoint: "Anchor-0" 300 730 basechar 0
LayerCount: 2
Fore
SplineSet
424 880 m 1
 471 929 l 2
 478 936 482 944 482 951 c 0
 482 961 475 968 464 968 c 2
 396 968 l 1
 396 1020 l 1
 477 1020 l 2
 520 1020 547 997 547 961 c 0
 547 943 539 926 528 914 c 2
 493 880 l 1
 424 880 l 1
128 780 m 1
 261 920 l 1
 339 920 l 1
 473 780 l 1
 386 780 l 1
 300 866 l 1
 214 780 l 1
 128 780 l 1
300 -10 m 0
 172 -10 93 69 93 197 c 2
 93 533 l 2
 93 661 172 740 300 740 c 0
 428 740 507 661 507 533 c 2
 507 197 l 2
 507 69 428 -10 300 -10 c 0
300 61 m 0
 382 61 428 110 428 197 c 2
 428 533 l 2
 428 620 381 669 300 669 c 0
 219 669 172 620 172 533 c 2
 172 197 l 2
 172 110 218 61 300 61 c 0
EndSplineSet
Validated: 1
EndChar

StartChar: uni1ED6
Encoding: 7894 7894 103
Width: 600
GlyphClass: 2
Flags: W
AnchorPoint: "Anchor-4" 300 365 basechar 0
AnchorPoint: "Anchor-3" 351 0 basechar 0
AnchorPoint: "Anchor-2" 300 0 basechar 0
AnchorPoint: "Anchor-1" 320 700 basechar 0
AnchorPoint: "Anchor-0" 300 730 basechar 0
LayerCount: 2
Fore
SplineSet
376 920 m 0
 295 920 276 971 230 971 c 0
 210 971 197 958 197 939 c 2
 197 930 l 1
 139 930 l 1
 139 939 l 2
 139 989 173 1020 226 1020 c 0
 309 1020 325 969 371 969 c 0
 390 969 403 982 403 1001 c 2
 403 1010 l 1
 461 1010 l 1
 461 1001 l 2
 461 951 428 920 376 920 c 0
128 780 m 1
 245 893 l 1
 355 893 l 1
 472 780 l 1
 385 780 l 1
 300 858 l 1
 214 780 l 1
 128 780 l 1
300 -10 m 0
 172 -10 93 69 93 197 c 2
 93 533 l 2
 93 661 172 740 300 740 c 0
 428 740 507 661 507 533 c 2
 507 197 l 2
 507 69 428 -10 300 -10 c 0
300 61 m 0
 382 61 428 110 428 197 c 2
 428 533 l 2
 428 620 381 669 300 669 c 0
 219 669 172 620 172 533 c 2
 172 197 l 2
 172 110 218 61 300 61 c 0
EndSplineSet
Validated: 1
EndChar

StartChar: Odieresis
Encoding: 214 214 104
Width: 600
GlyphClass: 2
Flags: W
AnchorPoint: "Anchor-4" 300 365 basechar 0
AnchorPoint: "Anchor-3" 351 0 basechar 0
AnchorPoint: "Anchor-2" 300 0 basechar 0
AnchorPoint: "Anchor-1" 320 700 basechar 0
AnchorPoint: "Anchor-0" 300 730 basechar 0
LayerCount: 2
Fore
SplineSet
411 819 m 0
 374 819 350 843 350 880 c 0
 350 918 374 942 411 942 c 0
 448 942 471 918 471 880 c 0
 471 843 448 819 411 819 c 0
191 819 m 0
 154 819 130 843 130 880 c 0
 130 918 154 942 191 942 c 0
 227 942 251 918 251 880 c 0
 251 843 227 819 191 819 c 0
300 -10 m 0
 172 -10 93 69 93 197 c 2
 93 533 l 2
 93 661 172 740 300 740 c 0
 428 740 507 661 507 533 c 2
 507 197 l 2
 507 69 428 -10 300 -10 c 0
300 61 m 0
 382 61 428 110 428 197 c 2
 428 533 l 2
 428 620 381 669 300 669 c 0
 219 669 172 620 172 533 c 2
 172 197 l 2
 172 110 218 61 300 61 c 0
EndSplineSet
Validated: 1
EndChar

StartChar: uni1ECC
Encoding: 7884 7884 105
Width: 600
GlyphClass: 2
Flags: W
AnchorPoint: "Anchor-4" 300 365 basechar 0
AnchorPoint: "Anchor-3" 351 0 basechar 0
AnchorPoint: "Anchor-2" 300 0 basechar 0
AnchorPoint: "Anchor-1" 320 700 basechar 0
AnchorPoint: "Anchor-0" 300 730 basechar 0
LayerCount: 2
Fore
SplineSet
300 -10 m 0
 172 -10 93 69 93 197 c 2
 93 533 l 2
 93 661 172 740 300 740 c 0
 428 740 507 661 507 533 c 2
 507 197 l 2
 507 69 428 -10 300 -10 c 0
300 61 m 0
 382 61 428 110 428 197 c 2
 428 533 l 2
 428 620 381 669 300 669 c 0
 219 669 172 620 172 533 c 2
 172 197 l 2
 172 110 218 61 300 61 c 0
300 -211 m 0
 258 -211 232 -187 232 -150 c 0
 232 -112 258 -88 300 -88 c 0
 342 -88 368 -112 368 -150 c 0
 368 -187 342 -211 300 -211 c 0
EndSplineSet
Validated: 1
EndChar

StartChar: Ograve
Encoding: 210 210 106
Width: 600
GlyphClass: 2
Flags: W
AnchorPoint: "Anchor-4" 300 365 basechar 0
AnchorPoint: "Anchor-3" 351 0 basechar 0
AnchorPoint: "Anchor-2" 300 0 basechar 0
AnchorPoint: "Anchor-1" 320 700 basechar 0
AnchorPoint: "Anchor-0" 300 730 basechar 0
LayerCount: 2
Fore
SplineSet
271 810 m 1
 157 950 l 1
 247 950 l 1
 356 810 l 1
 271 810 l 1
300 -10 m 0
 172 -10 93 69 93 197 c 2
 93 533 l 2
 93 661 172 740 300 740 c 0
 428 740 507 661 507 533 c 2
 507 197 l 2
 507 69 428 -10 300 -10 c 0
300 61 m 0
 382 61 428 110 428 197 c 2
 428 533 l 2
 428 620 381 669 300 669 c 0
 219 669 172 620 172 533 c 2
 172 197 l 2
 172 110 218 61 300 61 c 0
EndSplineSet
Validated: 1
EndChar

StartChar: uni1ECE
Encoding: 7886 7886 107
Width: 600
GlyphClass: 2
Flags: W
AnchorPoint: "Anchor-4" 300 365 basechar 0
AnchorPoint: "Anchor-3" 351 0 basechar 0
AnchorPoint: "Anchor-2" 300 0 basechar 0
AnchorPoint: "Anchor-1" 320 700 basechar 0
AnchorPoint: "Anchor-0" 300 730 basechar 0
LayerCount: 2
Fore
SplineSet
262 800 m 1
 310 866 l 2
 320 880 325 892 325 900 c 0
 325 914 314 922 292 922 c 2
 213 922 l 1
 213 979 l 1
 295 979 l 2
 354 979 393 951 393 908 c 0
 393 891 387 871 375 855 c 2
 338 800 l 1
 262 800 l 1
300 -10 m 0
 172 -10 93 69 93 197 c 2
 93 533 l 2
 93 661 172 740 300 740 c 0
 428 740 507 661 507 533 c 2
 507 197 l 2
 507 69 428 -10 300 -10 c 0
300 61 m 0
 382 61 428 110 428 197 c 2
 428 533 l 2
 428 620 381 669 300 669 c 0
 219 669 172 620 172 533 c 2
 172 197 l 2
 172 110 218 61 300 61 c 0
EndSplineSet
Validated: 1
EndChar

StartChar: Ohorn
Encoding: 416 416 108
Width: 600
GlyphClass: 2
Flags: W
AnchorPoint: "Anchor-4" 300 365 basechar 0
AnchorPoint: "Anchor-3" 351 0 basechar 0
AnchorPoint: "Anchor-2" 300 0 basechar 0
AnchorPoint: "Anchor-1" 320 700 basechar 0
AnchorPoint: "Anchor-0" 290 730 basechar 0
LayerCount: 2
Fore
SplineSet
300 -10 m 0
 172 -10 93 69 93 197 c 2
 93 533 l 2
 93 661 172 740 300 740 c 0
 354 740 399 726 433 700 c 1
 454 702 467 717 467 739 c 2
 467 810 l 1
 533 810 l 1
 533 735 l 2
 533 695 512 664 478 651 c 1
 497 619 507 579 507 533 c 2
 507 197 l 2
 507 69 428 -10 300 -10 c 0
300 61 m 0
 382 61 428 110 428 197 c 2
 428 533 l 2
 428 620 381 669 300 669 c 0
 219 669 172 620 172 533 c 2
 172 197 l 2
 172 110 218 61 300 61 c 0
EndSplineSet
Validated: 1
EndChar

StartChar: uni1EDA
Encoding: 7898 7898 109
Width: 600
GlyphClass: 2
Flags: W
AnchorPoint: "Anchor-4" 300 365 basechar 0
AnchorPoint: "Anchor-3" 351 0 basechar 0
AnchorPoint: "Anchor-2" 300 0 basechar 0
AnchorPoint: "Anchor-1" 320 700 basechar 0
AnchorPoint: "Anchor-0" 290 730 basechar 0
LayerCount: 2
Fore
SplineSet
238 810 m 1
 344 950 l 1
 431 950 l 1
 319 810 l 1
 238 810 l 1
300 -10 m 0
 172 -10 93 69 93 197 c 2
 93 533 l 2
 93 661 172 740 300 740 c 0
 354 740 399 726 433 700 c 1
 454 702 467 717 467 739 c 2
 467 810 l 1
 533 810 l 1
 533 735 l 2
 533 695 512 664 478 651 c 1
 497 619 507 579 507 533 c 2
 507 197 l 2
 507 69 428 -10 300 -10 c 0
300 61 m 0
 382 61 428 110 428 197 c 2
 428 533 l 2
 428 620 381 669 300 669 c 0
 219 669 172 620 172 533 c 2
 172 197 l 2
 172 110 218 61 300 61 c 0
EndSplineSet
Validated: 1
EndChar

StartChar: uni1EE2
Encoding: 7906 7906 110
Width: 600
GlyphClass: 2
Flags: W
AnchorPoint: "Anchor-4" 300 365 basechar 0
AnchorPoint: "Anchor-3" 351 0 basechar 0
AnchorPoint: "Anchor-2" 300 0 basechar 0
AnchorPoint: "Anchor-1" 320 700 basechar 0
AnchorPoint: "Anchor-0" 290 730 basechar 0
LayerCount: 2
Fore
SplineSet
300 -10 m 0
 172 -10 93 69 93 197 c 2
 93 533 l 2
 93 661 172 740 300 740 c 0
 354 740 399 726 433 700 c 1
 454 702 467 717 467 739 c 2
 467 810 l 1
 533 810 l 1
 533 735 l 2
 533 695 512 664 478 651 c 1
 497 619 507 579 507 533 c 2
 507 197 l 2
 507 69 428 -10 300 -10 c 0
300 61 m 0
 382 61 428 110 428 197 c 2
 428 533 l 2
 428 620 381 669 300 669 c 0
 219 669 172 620 172 533 c 2
 172 197 l 2
 172 110 218 61 300 61 c 0
300 -211 m 0
 258 -211 232 -187 232 -150 c 0
 232 -112 258 -88 300 -88 c 0
 342 -88 368 -112 368 -150 c 0
 368 -187 342 -211 300 -211 c 0
EndSplineSet
Validated: 1
EndChar

StartChar: uni1EDC
Encoding: 7900 7900 111
Width: 600
GlyphClass: 2
Flags: W
AnchorPoint: "Anchor-4" 300 365 basechar 0
AnchorPoint: "Anchor-3" 351 0 basechar 0
AnchorPoint: "Anchor-2" 300 0 basechar 0
AnchorPoint: "Anchor-1" 320 700 basechar 0
AnchorPoint: "Anchor-0" 290 730 basechar 0
LayerCount: 2
Fore
SplineSet
261 810 m 1
 147 950 l 1
 237 950 l 1
 346 810 l 1
 261 810 l 1
300 -10 m 0
 172 -10 93 69 93 197 c 2
 93 533 l 2
 93 661 172 740 300 740 c 0
 354 740 399 726 433 700 c 1
 454 702 467 717 467 739 c 2
 467 810 l 1
 533 810 l 1
 533 735 l 2
 533 695 512 664 478 651 c 1
 497 619 507 579 507 533 c 2
 507 197 l 2
 507 69 428 -10 300 -10 c 0
300 61 m 0
 382 61 428 110 428 197 c 2
 428 533 l 2
 428 620 381 669 300 669 c 0
 219 669 172 620 172 533 c 2
 172 197 l 2
 172 110 218 61 300 61 c 0
EndSplineSet
Validated: 1
EndChar

StartChar: uni1EDE
Encoding: 7902 7902 112
Width: 600
GlyphClass: 2
Flags: W
AnchorPoint: "Anchor-4" 300 365 basechar 0
AnchorPoint: "Anchor-3" 351 0 basechar 0
AnchorPoint: "Anchor-2" 300 0 basechar 0
AnchorPoint: "Anchor-1" 320 700 basechar 0
AnchorPoint: "Anchor-0" 290 730 basechar 0
LayerCount: 2
Fore
SplineSet
252 800 m 1
 300 866 l 2
 310 880 315 892 315 900 c 0
 315 914 304 922 282 922 c 2
 203 922 l 1
 203 979 l 1
 285 979 l 2
 344 979 383 951 383 908 c 0
 383 891 377 871 365 855 c 2
 328 800 l 1
 252 800 l 1
300 -10 m 0
 172 -10 93 69 93 197 c 2
 93 533 l 2
 93 661 172 740 300 740 c 0
 354 740 399 726 433 700 c 1
 454 702 467 717 467 739 c 2
 467 810 l 1
 533 810 l 1
 533 735 l 2
 533 695 512 664 478 651 c 1
 497 619 507 579 507 533 c 2
 507 197 l 2
 507 69 428 -10 300 -10 c 0
300 61 m 0
 382 61 428 110 428 197 c 2
 428 533 l 2
 428 620 381 669 300 669 c 0
 219 669 172 620 172 533 c 2
 172 197 l 2
 172 110 218 61 300 61 c 0
EndSplineSet
Validated: 1
EndChar

StartChar: uni1EE0
Encoding: 7904 7904 113
Width: 600
GlyphClass: 2
Flags: W
AnchorPoint: "Anchor-4" 300 365 basechar 0
AnchorPoint: "Anchor-3" 351 0 basechar 0
AnchorPoint: "Anchor-2" 300 0 basechar 0
AnchorPoint: "Anchor-1" 320 700 basechar 0
AnchorPoint: "Anchor-0" 290 730 basechar 0
LayerCount: 2
Fore
SplineSet
361 815 m 0
 283 815 270 891 224 891 c 0
 202 891 188 877 188 851 c 2
 188 820 l 1
 130 820 l 1
 130 851 l 2
 130 910 165 945 220 945 c 0
 299 945 312 869 358 869 c 0
 378 869 392 883 392 909 c 2
 392 940 l 1
 450 940 l 1
 450 909 l 2
 450 850 415 815 361 815 c 0
300 -10 m 0
 172 -10 93 69 93 197 c 2
 93 533 l 2
 93 661 172 740 300 740 c 0
 354 740 399 726 433 700 c 1
 454 702 467 717 467 739 c 2
 467 810 l 1
 533 810 l 1
 533 735 l 2
 533 695 512 664 478 651 c 1
 497 619 507 579 507 533 c 2
 507 197 l 2
 507 69 428 -10 300 -10 c 0
300 61 m 0
 382 61 428 110 428 197 c 2
 428 533 l 2
 428 620 381 669 300 669 c 0
 219 669 172 620 172 533 c 2
 172 197 l 2
 172 110 218 61 300 61 c 0
EndSplineSet
Validated: 1
EndChar

StartChar: Ohungarumlaut
Encoding: 336 336 114
Width: 600
GlyphClass: 2
Flags: W
AnchorPoint: "Anchor-4" 300 365 basechar 0
AnchorPoint: "Anchor-3" 351 0 basechar 0
AnchorPoint: "Anchor-2" 300 0 basechar 0
AnchorPoint: "Anchor-1" 320 700 basechar 0
AnchorPoint: "Anchor-0" 300 730 basechar 0
LayerCount: 2
Fore
SplineSet
328 810 m 1
 437 950 l 1
 520 950 l 1
 406 810 l 1
 328 810 l 1
155 810 m 1
 264 950 l 1
 347 950 l 1
 232 810 l 1
 155 810 l 1
300 -10 m 0
 172 -10 93 69 93 197 c 2
 93 533 l 2
 93 661 172 740 300 740 c 0
 428 740 507 661 507 533 c 2
 507 197 l 2
 507 69 428 -10 300 -10 c 0
300 61 m 0
 382 61 428 110 428 197 c 2
 428 533 l 2
 428 620 381 669 300 669 c 0
 219 669 172 620 172 533 c 2
 172 197 l 2
 172 110 218 61 300 61 c 0
EndSplineSet
Validated: 1
EndChar

StartChar: Omacron
Encoding: 332 332 115
Width: 600
GlyphClass: 2
Flags: W
AnchorPoint: "Anchor-4" 300 365 basechar 0
AnchorPoint: "Anchor-3" 351 0 basechar 0
AnchorPoint: "Anchor-2" 300 0 basechar 0
AnchorPoint: "Anchor-1" 320 700 basechar 0
AnchorPoint: "Anchor-0" 300 730 basechar 0
LayerCount: 2
Fore
SplineSet
145 844 m 1
 145 910 l 1
 455 910 l 1
 455 844 l 1
 145 844 l 1
300 -10 m 0
 172 -10 93 69 93 197 c 2
 93 533 l 2
 93 661 172 740 300 740 c 0
 428 740 507 661 507 533 c 2
 507 197 l 2
 507 69 428 -10 300 -10 c 0
300 61 m 0
 382 61 428 110 428 197 c 2
 428 533 l 2
 428 620 381 669 300 669 c 0
 219 669 172 620 172 533 c 2
 172 197 l 2
 172 110 218 61 300 61 c 0
EndSplineSet
Validated: 1
EndChar

StartChar: uni01EA
Encoding: 490 490 116
Width: 600
GlyphClass: 2
Flags: W
AnchorPoint: "Anchor-1" 320 700 basechar 0
AnchorPoint: "Anchor-0" 300 730 basechar 0
LayerCount: 2
Fore
SplineSet
376 -201 m 2
 307 -201 263 -164 263 -111 c 0
 263 -81 284 -43 320 -9 c 1
 314 -10 306 -10 300 -10 c 0
 172 -10 93 69 93 197 c 2
 93 533 l 2
 93 661 172 740 300 740 c 0
 428 740 507 661 507 533 c 2
 507 197 l 2
 507 117 476 56 421 21 c 1
 398 1 l 2
 355 -35 338 -68 338 -96 c 0
 338 -125 358 -146 392 -146 c 2
 453 -146 l 1
 453 -201 l 1
 376 -201 l 2
300 61 m 0
 382 61 428 110 428 197 c 2
 428 533 l 2
 428 620 381 669 300 669 c 0
 219 669 172 620 172 533 c 2
 172 197 l 2
 172 110 218 61 300 61 c 0
EndSplineSet
Validated: 1048577
EndChar

StartChar: Oslash
Encoding: 216 216 117
Width: 600
GlyphClass: 2
Flags: W
AnchorPoint: "Anchor-2" 300 0 basechar 0
AnchorPoint: "Anchor-1" 320 730 basechar 0
AnchorPoint: "Anchor-0" 300 730 basechar 0
LayerCount: 2
Fore
SplineSet
39 -40 m 1
 114 93 l 1
 100 123 93 158 93 197 c 2
 93 533 l 2
 93 661 172 740 300 740 c 0
 363 740 414 721 450 686 c 1
 487 750 l 1
 561 750 l 1
 491 626 l 1
 502 599 507 568 507 533 c 2
 507 197 l 2
 507 69 428 -10 300 -10 c 0
 241 -10 193 7 157 37 c 1
 113 -40 l 1
 39 -40 l 1
172 197 m 1
 172 197 172 197 172 195 c 1
 409 614 l 1
 389 650 351 669 300 669 c 0
 219 669 172 620 172 533 c 2
 172 197 l 1
300 61 m 0
 382 61 428 110 428 197 c 2
 428 515 l 1
 197 107 l 1
 218 77 253 61 300 61 c 0
EndSplineSet
Validated: 1048577
EndChar

StartChar: Oslashacute
Encoding: 510 510 118
Width: 600
GlyphClass: 2
Flags: W
AnchorPoint: "Anchor-2" 300 0 basechar 0
AnchorPoint: "Anchor-1" 320 730 basechar 0
AnchorPoint: "Anchor-0" 300 730 basechar 0
LayerCount: 2
Fore
SplineSet
248 810 m 1
 354 950 l 1
 441 950 l 1
 329 810 l 1
 248 810 l 1
39 -40 m 1
 114 93 l 1
 100 123 93 158 93 197 c 2
 93 533 l 2
 93 661 172 740 300 740 c 0
 363 740 414 721 450 686 c 1
 487 750 l 1
 561 750 l 1
 491 626 l 1
 502 599 507 568 507 533 c 2
 507 197 l 2
 507 69 428 -10 300 -10 c 0
 241 -10 193 7 157 37 c 1
 113 -40 l 1
 39 -40 l 1
172 197 m 1
 172 197 172 197 172 195 c 1
 409 614 l 1
 389 650 351 669 300 669 c 0
 219 669 172 620 172 533 c 2
 172 197 l 1
300 61 m 0
 382 61 428 110 428 197 c 2
 428 515 l 1
 197 107 l 1
 218 77 253 61 300 61 c 0
EndSplineSet
Validated: 1048577
EndChar

StartChar: Otilde
Encoding: 213 213 119
Width: 600
GlyphClass: 2
Flags: W
AnchorPoint: "Anchor-4" 300 365 basechar 0
AnchorPoint: "Anchor-3" 351 0 basechar 0
AnchorPoint: "Anchor-2" 300 0 basechar 0
AnchorPoint: "Anchor-1" 320 700 basechar 0
AnchorPoint: "Anchor-0" 300 730 basechar 0
LayerCount: 2
Fore
SplineSet
371 815 m 0
 293 815 280 891 234 891 c 0
 212 891 198 877 198 851 c 2
 198 820 l 1
 140 820 l 1
 140 851 l 2
 140 910 175 945 230 945 c 0
 309 945 322 869 368 869 c 0
 388 869 402 883 402 909 c 2
 402 940 l 1
 460 940 l 1
 460 909 l 2
 460 850 425 815 371 815 c 0
300 -10 m 0
 172 -10 93 69 93 197 c 2
 93 533 l 2
 93 661 172 740 300 740 c 0
 428 740 507 661 507 533 c 2
 507 197 l 2
 507 69 428 -10 300 -10 c 0
300 61 m 0
 382 61 428 110 428 197 c 2
 428 533 l 2
 428 620 381 669 300 669 c 0
 219 669 172 620 172 533 c 2
 172 197 l 2
 172 110 218 61 300 61 c 0
EndSplineSet
Validated: 1
EndChar

StartChar: OE
Encoding: 338 338 120
Width: 600
Flags: W
LayerCount: 2
Fore
SplineSet
195 -10 m 0
 101 -10 40 64 40 178 c 2
 40 552 l 2
 40 666 101 740 195 740 c 0
 264 740 301 689 308 650 c 1
 313 650 l 1
 313 730 l 1
 573 730 l 1
 573 657 l 1
 392 657 l 1
 392 414 l 1
 545 414 l 1
 545 340 l 1
 392 340 l 1
 392 73 l 1
 573 73 l 1
 573 0 l 1
 313 0 l 1
 313 80 l 1
 308 80 l 1
 301 41 264 -10 195 -10 c 0
217 62 m 0
 275 62 313 107 313 178 c 2
 313 552 l 2
 313 623 275 668 217 668 c 0
 158 668 121 623 121 552 c 2
 121 178 l 2
 121 107 158 62 217 62 c 0
EndSplineSet
Validated: 1
EndChar

StartChar: P
Encoding: 80 80 121
Width: 600
GlyphClass: 2
Flags: W
AnchorPoint: "Anchor-0" 300 730 basechar 0
LayerCount: 2
Fore
SplineSet
97 0 m 1
 97 730 l 1
 326 730 l 2
 460 730 546 647 546 518 c 0
 546 389 460 306 326 306 c 2
 176 306 l 1
 176 0 l 1
 97 0 l 1
176 378 m 1
 326 378 l 2
 410 378 464 432 464 518 c 0
 464 604 411 658 326 658 c 2
 176 658 l 1
 176 378 l 1
EndSplineSet
Validated: 1048577
EndChar

StartChar: Thorn
Encoding: 222 222 122
Width: 600
Flags: W
LayerCount: 2
Fore
SplineSet
94 0 m 1
 94 730 l 1
 173 730 l 1
 173 576 l 1
 333 576 l 2
 461 576 545 498 545 380 c 0
 545 260 462 184 333 184 c 2
 173 184 l 1
 173 0 l 1
 94 0 l 1
173 255 m 1
 333 255 l 2
 414 255 463 303 463 380 c 0
 463 457 413 505 333 505 c 2
 173 505 l 1
 173 255 l 1
EndSplineSet
Validated: 1
EndChar

StartChar: Q
Encoding: 81 81 123
Width: 600
GlyphClass: 2
Flags: W
AnchorPoint: "Anchor-0" 300 730 basechar 0
LayerCount: 2
Fore
SplineSet
429 -180 m 1
 325 -9 l 1
 318 -9 309 -10 300 -10 c 0
 170 -10 87 73 87 201 c 2
 87 529 l 2
 87 658 169 740 300 740 c 0
 431 740 513 656 513 529 c 2
 513 201 l 2
 513 113 474 44 405 12 c 1
 522 -180 l 1
 429 -180 l 1
300 61 m 0
 382 61 434 115 434 201 c 2
 434 529 l 2
 434 615 382 669 300 669 c 0
 218 669 166 615 166 529 c 2
 166 201 l 2
 166 115 218 61 300 61 c 0
EndSplineSet
Validated: 1048577
EndChar

StartChar: R
Encoding: 82 82 124
Width: 600
GlyphClass: 2
Flags: W
AnchorPoint: "Anchor-2" 300 0 basechar 0
AnchorPoint: "Anchor-0" 300 730 basechar 0
LayerCount: 2
Fore
SplineSet
97 0 m 1
 97 730 l 1
 317 730 l 2
 447 730 532 647 532 522 c 0
 532 421 475 347 383 323 c 1
 541 0 l 1
 447 0 l 1
 301 315 l 1
 176 315 l 1
 176 0 l 1
 97 0 l 1
176 387 m 1
 317 387 l 2
 398 387 451 440 451 523 c 0
 451 605 397 658 317 658 c 2
 176 658 l 1
 176 387 l 1
EndSplineSet
Validated: 1048577
EndChar

StartChar: Racute
Encoding: 340 340 125
Width: 600
GlyphClass: 2
Flags: W
AnchorPoint: "Anchor-2" 300 0 basechar 0
AnchorPoint: "Anchor-0" 300 730 basechar 0
LayerCount: 2
Fore
SplineSet
248 810 m 1
 354 950 l 1
 441 950 l 1
 329 810 l 1
 248 810 l 1
97 0 m 1
 97 730 l 1
 317 730 l 2
 447 730 532 647 532 522 c 0
 532 421 475 347 383 323 c 1
 541 0 l 1
 447 0 l 1
 301 315 l 1
 176 315 l 1
 176 0 l 1
 97 0 l 1
176 387 m 1
 317 387 l 2
 398 387 451 440 451 523 c 0
 451 605 397 658 317 658 c 2
 176 658 l 1
 176 387 l 1
EndSplineSet
Validated: 1048577
EndChar

StartChar: Rcaron
Encoding: 344 344 126
Width: 600
GlyphClass: 2
Flags: W
AnchorPoint: "Anchor-2" 300 0 basechar 0
AnchorPoint: "Anchor-0" 300 730 basechar 0
LayerCount: 2
Fore
SplineSet
262 810 m 1
 127 950 l 1
 213 950 l 1
 301 864 l 1
 386 950 l 1
 473 950 l 1
 339 810 l 1
 262 810 l 1
97 0 m 1
 97 730 l 1
 317 730 l 2
 447 730 532 647 532 522 c 0
 532 421 475 347 383 323 c 1
 541 0 l 1
 447 0 l 1
 301 315 l 1
 176 315 l 1
 176 0 l 1
 97 0 l 1
176 387 m 1
 317 387 l 2
 398 387 451 440 451 523 c 0
 451 605 397 658 317 658 c 2
 176 658 l 1
 176 387 l 1
EndSplineSet
Validated: 1048577
EndChar

StartChar: uni0156
Encoding: 342 342 127
Width: 600
GlyphClass: 2
Flags: W
AnchorPoint: "Anchor-2" 300 0 basechar 0
AnchorPoint: "Anchor-0" 300 730 basechar 0
LayerCount: 2
Fore
SplineSet
97 0 m 1
 97 730 l 1
 317 730 l 2
 447 730 532 647 532 522 c 0
 532 421 475 347 383 323 c 1
 541 0 l 1
 447 0 l 1
 301 315 l 1
 176 315 l 1
 176 0 l 1
 97 0 l 1
176 387 m 1
 317 387 l 2
 398 387 451 440 451 523 c 0
 451 605 397 658 317 658 c 2
 176 658 l 1
 176 387 l 1
197 -240 m 1
 290 -95 l 1
 385 -95 l 1
 280 -240 l 1
 197 -240 l 1
EndSplineSet
Validated: 1048577
EndChar

StartChar: S
Encoding: 83 83 128
Width: 600
GlyphClass: 2
Flags: W
AnchorPoint: "Anchor-2" 300 0 basechar 0
AnchorPoint: "Anchor-0" 300 730 basechar 0
LayerCount: 2
Fore
SplineSet
304 -10 m 0
 163 -10 77 66 75 189 c 1
 155 189 l 1
 155 110 211 61 304 61 c 0
 393 61 445 108 445 185 c 0
 445 248 408 299 346 318 c 2
 251 348 l 2
 152 378 95 452 95 549 c 0
 95 665 178 741 306 741 c 0
 432 741 514 664 515 546 c 1
 436 546 l 1
 436 622 387 669 305 669 c 0
 223 669 175 627 175 556 c 0
 175 493 211 444 274 424 c 2
 369 394 l 2
 467 363 525 286 525 187 c 0
 525 68 437 -10 304 -10 c 0
EndSplineSet
Validated: 1048577
EndChar

StartChar: Sacute
Encoding: 346 346 129
Width: 600
GlyphClass: 2
Flags: W
AnchorPoint: "Anchor-2" 300 0 basechar 0
AnchorPoint: "Anchor-0" 300 730 basechar 0
LayerCount: 2
Fore
SplineSet
248 810 m 1
 354 950 l 1
 441 950 l 1
 329 810 l 1
 248 810 l 1
304 -10 m 0
 163 -10 77 66 75 189 c 1
 155 189 l 1
 155 110 211 61 304 61 c 0
 393 61 445 108 445 185 c 0
 445 248 408 299 346 318 c 2
 251 348 l 2
 152 378 95 452 95 549 c 0
 95 665 178 741 306 741 c 0
 432 741 514 664 515 546 c 1
 436 546 l 1
 436 622 387 669 305 669 c 0
 223 669 175 627 175 556 c 0
 175 493 211 444 274 424 c 2
 369 394 l 2
 467 363 525 286 525 187 c 0
 525 68 437 -10 304 -10 c 0
EndSplineSet
Validated: 1048577
EndChar

StartChar: Scaron
Encoding: 352 352 130
Width: 600
GlyphClass: 2
Flags: W
AnchorPoint: "Anchor-2" 300 0 basechar 0
AnchorPoint: "Anchor-0" 300 730 basechar 0
LayerCount: 2
Fore
SplineSet
262 810 m 1
 127 950 l 1
 213 950 l 1
 301 864 l 1
 386 950 l 1
 473 950 l 1
 339 810 l 1
 262 810 l 1
304 -10 m 0
 163 -10 77 66 75 189 c 1
 155 189 l 1
 155 110 211 61 304 61 c 0
 393 61 445 108 445 185 c 0
 445 248 408 299 346 318 c 2
 251 348 l 2
 152 378 95 452 95 549 c 0
 95 665 178 741 306 741 c 0
 432 741 514 664 515 546 c 1
 436 546 l 1
 436 622 387 669 305 669 c 0
 223 669 175 627 175 556 c 0
 175 493 211 444 274 424 c 2
 369 394 l 2
 467 363 525 286 525 187 c 0
 525 68 437 -10 304 -10 c 0
EndSplineSet
Validated: 1048577
EndChar

StartChar: Scedilla
Encoding: 350 350 131
Width: 600
GlyphClass: 2
Flags: W
AnchorPoint: "Anchor-2" 300 0 basechar 0
AnchorPoint: "Anchor-0" 300 730 basechar 0
LayerCount: 2
Fore
SplineSet
213 -201 m 1
 213 -151 l 1
 286 -151 l 2
 315 -151 336 -133 336 -114 c 0
 336 -88 296 -68 228 -68 c 1
 251 -6 l 1
 142 11 77 82 75 189 c 1
 155 189 l 1
 155 110 211 61 304 61 c 0
 393 61 445 108 445 185 c 0
 445 248 408 299 346 318 c 2
 251 348 l 2
 152 378 95 452 95 549 c 0
 95 665 178 741 306 741 c 0
 432 741 514 664 515 546 c 1
 436 546 l 1
 436 622 387 669 305 669 c 0
 223 669 175 627 175 556 c 0
 175 493 211 444 274 424 c 2
 369 394 l 2
 467 363 525 286 525 187 c 0
 525 68 437 -10 304 -10 c 2
 303 -10 l 1
 294 -35 l 1
 345 -40 411 -66 411 -119 c 0
 411 -165 365 -201 297 -201 c 2
 213 -201 l 1
EndSplineSet
Validated: 1048577
Substitution2: "'locl' Localized Forms in Latin lookup 366 subtable" uni0218
Substitution2: "'aalt' Access All Alternates in Latin lookup 0 subtable" uni0218
EndChar

StartChar: Scircumflex
Encoding: 348 348 132
Width: 600
GlyphClass: 2
Flags: W
AnchorPoint: "Anchor-2" 300 0 basechar 0
AnchorPoint: "Anchor-0" 300 730 basechar 0
LayerCount: 2
Fore
SplineSet
127 810 m 1
 261 950 l 1
 338 950 l 1
 473 810 l 1
 387 810 l 1
 300 896 l 1
 215 810 l 1
 127 810 l 1
304 -10 m 0
 163 -10 77 66 75 189 c 1
 155 189 l 1
 155 110 211 61 304 61 c 0
 393 61 445 108 445 185 c 0
 445 248 408 299 346 318 c 2
 251 348 l 2
 152 378 95 452 95 549 c 0
 95 665 178 741 306 741 c 0
 432 741 514 664 515 546 c 1
 436 546 l 1
 436 622 387 669 305 669 c 0
 223 669 175 627 175 556 c 0
 175 493 211 444 274 424 c 2
 369 394 l 2
 467 363 525 286 525 187 c 0
 525 68 437 -10 304 -10 c 0
EndSplineSet
Validated: 1048577
EndChar

StartChar: uni0218
Encoding: 536 536 133
Width: 600
GlyphClass: 2
Flags: W
AnchorPoint: "Anchor-2" 300 0 basechar 0
AnchorPoint: "Anchor-0" 300 730 basechar 0
LayerCount: 2
Fore
SplineSet
304 -10 m 0
 163 -10 77 66 75 189 c 1
 155 189 l 1
 155 110 211 61 304 61 c 0
 393 61 445 108 445 185 c 0
 445 248 408 299 346 318 c 2
 251 348 l 2
 152 378 95 452 95 549 c 0
 95 665 178 741 306 741 c 0
 432 741 514 664 515 546 c 1
 436 546 l 1
 436 622 387 669 305 669 c 0
 223 669 175 627 175 556 c 0
 175 493 211 444 274 424 c 2
 369 394 l 2
 467 363 525 286 525 187 c 0
 525 68 437 -10 304 -10 c 0
197 -240 m 1
 290 -95 l 1
 385 -95 l 1
 280 -240 l 1
 197 -240 l 1
EndSplineSet
Validated: 1048577
EndChar

StartChar: uni1E9E
Encoding: 7838 7838 134
Width: 600
Flags: W
LayerCount: 2
Fore
SplineSet
97 0 m 1
 97 529 l 2
 97 650 179 730 303 730 c 2
 526 730 l 1
 526 653 l 1
 353 419 l 1
 463 414 535 334 535 214 c 0
 535 85 450 0 321 0 c 2
 255 0 l 1
 255 72 l 1
 314 72 l 2
 398 72 452 127 452 213 c 0
 452 298 398 351 314 351 c 2
 270 351 l 1
 270 420 l 1
 443 658 l 1
 303 658 l 2
 225 658 176 608 176 529 c 2
 176 0 l 1
 97 0 l 1
EndSplineSet
Validated: 1
EndChar

StartChar: uni018F
Encoding: 399 399 135
Width: 600
Flags: W
LayerCount: 2
Fore
SplineSet
300 -10 m 0
 172 -10 94 72 94 197 c 2
 94 394 l 1
 427 394 l 1
 427 533 l 2
 427 619 382 669 300 669 c 0
 217 669 173 618 173 530 c 1
 94 530 l 1
 94 659 171 740 300 740 c 0
 430 740 506 661 506 533 c 2
 506 197 l 2
 506 72 428 -10 300 -10 c 0
300 57 m 0
 385 57 427 108 427 197 c 2
 427 331 l 1
 173 331 l 1
 173 197 l 2
 173 108 215 57 300 57 c 0
EndSplineSet
Validated: 1
EndChar

StartChar: T
Encoding: 84 84 136
Width: 600
GlyphClass: 2
Flags: W
AnchorPoint: "Anchor-2" 300 0 basechar 0
AnchorPoint: "Anchor-0" 300 730 basechar 0
LayerCount: 2
Fore
SplineSet
261 0 m 1
 261 658 l 1
 56 658 l 1
 56 730 l 1
 544 730 l 1
 544 658 l 1
 340 658 l 1
 340 0 l 1
 261 0 l 1
EndSplineSet
Validated: 1048577
EndChar

StartChar: Tbar
Encoding: 358 358 137
Width: 600
GlyphClass: 2
Flags: W
AnchorPoint: "Anchor-2" 300 0 basechar 0
AnchorPoint: "Anchor-0" 300 730 basechar 0
LayerCount: 2
Fore
SplineSet
261 0 m 1
 261 299 l 1
 113 299 l 1
 113 366 l 1
 261 366 l 1
 261 658 l 1
 56 658 l 1
 56 730 l 1
 544 730 l 1
 544 658 l 1
 340 658 l 1
 340 366 l 1
 487 366 l 1
 487 299 l 1
 340 299 l 1
 340 0 l 1
 261 0 l 1
EndSplineSet
Validated: 1048577
EndChar

StartChar: Tcaron
Encoding: 356 356 138
Width: 600
GlyphClass: 2
Flags: W
AnchorPoint: "Anchor-2" 300 0 basechar 0
AnchorPoint: "Anchor-0" 300 730 basechar 0
LayerCount: 2
Fore
SplineSet
262 810 m 1
 127 950 l 1
 213 950 l 1
 301 864 l 1
 386 950 l 1
 473 950 l 1
 339 810 l 1
 262 810 l 1
261 0 m 1
 261 658 l 1
 56 658 l 1
 56 730 l 1
 544 730 l 1
 544 658 l 1
 340 658 l 1
 340 0 l 1
 261 0 l 1
EndSplineSet
Validated: 1048577
EndChar

StartChar: uni0162
Encoding: 354 354 139
Width: 600
GlyphClass: 2
Flags: W
AnchorPoint: "Anchor-2" 300 0 basechar 0
AnchorPoint: "Anchor-0" 300 730 basechar 0
LayerCount: 2
Fore
SplineSet
261 0 m 1
 261 658 l 1
 56 658 l 1
 56 730 l 1
 544 730 l 1
 544 658 l 1
 340 658 l 1
 340 0 l 1
 328 -35 l 1
 378 -40 445 -66 445 -119 c 0
 445 -165 399 -201 330 -201 c 2
 247 -201 l 1
 247 -151 l 1
 319 -151 l 2
 349 -151 370 -133 370 -114 c 0
 370 -88 329 -68 261 -68 c 1
 286 0 l 1
 261 0 l 1
EndSplineSet
Validated: 1048577
Substitution2: "'locl' Localized Forms in Latin lookup 366 subtable" uni021A
Substitution2: "'aalt' Access All Alternates in Latin lookup 0 subtable" uni021A
EndChar

StartChar: uni021A
Encoding: 538 538 140
Width: 600
GlyphClass: 2
Flags: W
AnchorPoint: "Anchor-2" 300 0 basechar 0
AnchorPoint: "Anchor-0" 300 730 basechar 0
LayerCount: 2
Fore
SplineSet
261 0 m 1
 261 658 l 1
 56 658 l 1
 56 730 l 1
 544 730 l 1
 544 658 l 1
 340 658 l 1
 340 0 l 1
 261 0 l 1
197 -240 m 1
 290 -95 l 1
 385 -95 l 1
 280 -240 l 1
 197 -240 l 1
EndSplineSet
Validated: 1048577
EndChar

StartChar: U
Encoding: 85 85 141
Width: 600
GlyphClass: 2
Flags: W
AnchorPoint: "Anchor-3" 351 0 basechar 0
AnchorPoint: "Anchor-2" 300 0 basechar 0
AnchorPoint: "Anchor-1" 387 730 basechar 0
AnchorPoint: "Anchor-0" 300 730 basechar 0
LayerCount: 2
Fore
SplineSet
300 -10 m 0
 169 -10 95 70 95 197 c 2
 95 730 l 1
 174 730 l 1
 174 197 l 2
 174 113 217 61 300 61 c 0
 383 61 426 113 426 197 c 2
 426 730 l 1
 505 730 l 1
 505 197 l 2
 505 69 432 -10 300 -10 c 0
EndSplineSet
Validated: 1048577
EndChar

StartChar: Uacute
Encoding: 218 218 142
Width: 600
GlyphClass: 2
Flags: W
AnchorPoint: "Anchor-3" 351 0 basechar 0
AnchorPoint: "Anchor-2" 300 0 basechar 0
AnchorPoint: "Anchor-1" 387 730 basechar 0
AnchorPoint: "Anchor-0" 300 730 basechar 0
LayerCount: 2
Fore
SplineSet
248 810 m 1
 354 950 l 1
 441 950 l 1
 329 810 l 1
 248 810 l 1
300 -10 m 0
 169 -10 95 70 95 197 c 2
 95 730 l 1
 174 730 l 1
 174 197 l 2
 174 113 217 61 300 61 c 0
 383 61 426 113 426 197 c 2
 426 730 l 1
 505 730 l 1
 505 197 l 2
 505 69 432 -10 300 -10 c 0
EndSplineSet
Validated: 1048577
EndChar

StartChar: Ubreve
Encoding: 364 364 143
Width: 600
GlyphClass: 2
Flags: W
AnchorPoint: "Anchor-3" 351 0 basechar 0
AnchorPoint: "Anchor-2" 300 0 basechar 0
AnchorPoint: "Anchor-1" 387 730 basechar 0
AnchorPoint: "Anchor-0" 300 730 basechar 0
LayerCount: 2
Fore
SplineSet
300 806 m 0
 206 806 144 863 144 950 c 1
 208 950 l 1
 208 895 244 859 299 859 c 0
 355 859 392 895 392 950 c 1
 456 950 l 1
 456 863 394 806 300 806 c 0
300 -10 m 0
 169 -10 95 70 95 197 c 2
 95 730 l 1
 174 730 l 1
 174 197 l 2
 174 113 217 61 300 61 c 0
 383 61 426 113 426 197 c 2
 426 730 l 1
 505 730 l 1
 505 197 l 2
 505 69 432 -10 300 -10 c 0
EndSplineSet
Validated: 1048577
EndChar

StartChar: Ucircumflex
Encoding: 219 219 144
Width: 600
GlyphClass: 2
Flags: W
AnchorPoint: "Anchor-3" 351 0 basechar 0
AnchorPoint: "Anchor-2" 300 0 basechar 0
AnchorPoint: "Anchor-1" 387 730 basechar 0
AnchorPoint: "Anchor-0" 300 730 basechar 0
LayerCount: 2
Fore
SplineSet
127 810 m 1
 261 950 l 1
 338 950 l 1
 473 810 l 1
 387 810 l 1
 300 896 l 1
 215 810 l 1
 127 810 l 1
300 -10 m 0
 169 -10 95 70 95 197 c 2
 95 730 l 1
 174 730 l 1
 174 197 l 2
 174 113 217 61 300 61 c 0
 383 61 426 113 426 197 c 2
 426 730 l 1
 505 730 l 1
 505 197 l 2
 505 69 432 -10 300 -10 c 0
EndSplineSet
Validated: 1048577
EndChar

StartChar: Udieresis
Encoding: 220 220 145
Width: 600
GlyphClass: 2
Flags: W
AnchorPoint: "Anchor-3" 351 0 basechar 0
AnchorPoint: "Anchor-2" 300 0 basechar 0
AnchorPoint: "Anchor-1" 387 730 basechar 0
AnchorPoint: "Anchor-0" 300 730 basechar 0
LayerCount: 2
Fore
SplineSet
411 819 m 0
 374 819 350 843 350 880 c 0
 350 918 374 942 411 942 c 0
 448 942 471 918 471 880 c 0
 471 843 448 819 411 819 c 0
191 819 m 0
 154 819 130 843 130 880 c 0
 130 918 154 942 191 942 c 0
 227 942 251 918 251 880 c 0
 251 843 227 819 191 819 c 0
300 -10 m 0
 169 -10 95 70 95 197 c 2
 95 730 l 1
 174 730 l 1
 174 197 l 2
 174 113 217 61 300 61 c 0
 383 61 426 113 426 197 c 2
 426 730 l 1
 505 730 l 1
 505 197 l 2
 505 69 432 -10 300 -10 c 0
EndSplineSet
Validated: 1048577
EndChar

StartChar: uni1EE4
Encoding: 7908 7908 146
Width: 600
GlyphClass: 2
Flags: W
AnchorPoint: "Anchor-3" 351 0 basechar 0
AnchorPoint: "Anchor-2" 300 0 basechar 0
AnchorPoint: "Anchor-1" 387 730 basechar 0
AnchorPoint: "Anchor-0" 300 730 basechar 0
LayerCount: 2
Fore
SplineSet
300 -10 m 0
 169 -10 95 70 95 197 c 2
 95 730 l 1
 174 730 l 1
 174 197 l 2
 174 113 217 61 300 61 c 0
 383 61 426 113 426 197 c 2
 426 730 l 1
 505 730 l 1
 505 197 l 2
 505 69 432 -10 300 -10 c 0
300 -211 m 0
 258 -211 232 -187 232 -150 c 0
 232 -112 258 -88 300 -88 c 0
 342 -88 368 -112 368 -150 c 0
 368 -187 342 -211 300 -211 c 0
EndSplineSet
Validated: 1048577
EndChar

StartChar: Ugrave
Encoding: 217 217 147
Width: 600
GlyphClass: 2
Flags: W
AnchorPoint: "Anchor-3" 351 0 basechar 0
AnchorPoint: "Anchor-2" 300 0 basechar 0
AnchorPoint: "Anchor-1" 387 730 basechar 0
AnchorPoint: "Anchor-0" 300 730 basechar 0
LayerCount: 2
Fore
SplineSet
271 810 m 1
 157 950 l 1
 247 950 l 1
 356 810 l 1
 271 810 l 1
300 -10 m 0
 169 -10 95 70 95 197 c 2
 95 730 l 1
 174 730 l 1
 174 197 l 2
 174 113 217 61 300 61 c 0
 383 61 426 113 426 197 c 2
 426 730 l 1
 505 730 l 1
 505 197 l 2
 505 69 432 -10 300 -10 c 0
EndSplineSet
Validated: 1048577
EndChar

StartChar: uni1EE6
Encoding: 7910 7910 148
Width: 600
GlyphClass: 2
Flags: W
AnchorPoint: "Anchor-3" 351 0 basechar 0
AnchorPoint: "Anchor-2" 300 0 basechar 0
AnchorPoint: "Anchor-1" 387 730 basechar 0
AnchorPoint: "Anchor-0" 300 730 basechar 0
LayerCount: 2
Fore
SplineSet
262 800 m 1
 310 866 l 2
 320 880 325 892 325 900 c 0
 325 914 314 922 292 922 c 2
 213 922 l 1
 213 979 l 1
 295 979 l 2
 354 979 393 951 393 908 c 0
 393 891 387 871 375 855 c 2
 338 800 l 1
 262 800 l 1
300 -10 m 0
 169 -10 95 70 95 197 c 2
 95 730 l 1
 174 730 l 1
 174 197 l 2
 174 113 217 61 300 61 c 0
 383 61 426 113 426 197 c 2
 426 730 l 1
 505 730 l 1
 505 197 l 2
 505 69 432 -10 300 -10 c 0
EndSplineSet
Validated: 1048577
EndChar

StartChar: Uhorn
Encoding: 431 431 149
Width: 600
GlyphClass: 2
Flags: W
AnchorPoint: "Anchor-3" 351 0 basechar 0
AnchorPoint: "Anchor-2" 300 0 basechar 0
AnchorPoint: "Anchor-1" 387 730 basechar 0
AnchorPoint: "Anchor-0" 300 730 basechar 0
LayerCount: 2
Fore
SplineSet
300 -10 m 0
 169 -10 95 70 95 197 c 2
 95 730 l 1
 174 730 l 1
 174 197 l 2
 174 113 217 61 300 61 c 0
 383 61 426 113 426 197 c 2
 426 730 l 1
 496 730 l 2
 519 730 534 746 534 769 c 2
 534 840 l 1
 600 840 l 1
 600 765 l 2
 600 709 560 673 505 673 c 1
 505 197 l 2
 505 69 432 -10 300 -10 c 0
EndSplineSet
Validated: 1048577
EndChar

StartChar: uni1EE8
Encoding: 7912 7912 150
Width: 600
GlyphClass: 2
Flags: W
AnchorPoint: "Anchor-3" 351 0 basechar 0
AnchorPoint: "Anchor-2" 300 0 basechar 0
AnchorPoint: "Anchor-1" 387 730 basechar 0
AnchorPoint: "Anchor-0" 300 730 basechar 0
LayerCount: 2
Fore
SplineSet
248 810 m 1
 354 950 l 1
 441 950 l 1
 329 810 l 1
 248 810 l 1
300 -10 m 0
 169 -10 95 70 95 197 c 2
 95 730 l 1
 174 730 l 1
 174 197 l 2
 174 113 217 61 300 61 c 0
 383 61 426 113 426 197 c 2
 426 730 l 1
 496 730 l 2
 519 730 534 746 534 769 c 2
 534 840 l 1
 600 840 l 1
 600 765 l 2
 600 709 560 673 505 673 c 1
 505 197 l 2
 505 69 432 -10 300 -10 c 0
EndSplineSet
Validated: 1048577
EndChar

StartChar: uni1EF0
Encoding: 7920 7920 151
Width: 600
GlyphClass: 2
Flags: W
AnchorPoint: "Anchor-3" 351 0 basechar 0
AnchorPoint: "Anchor-2" 300 0 basechar 0
AnchorPoint: "Anchor-1" 387 730 basechar 0
AnchorPoint: "Anchor-0" 300 730 basechar 0
LayerCount: 2
Fore
SplineSet
300 -10 m 0
 169 -10 95 70 95 197 c 2
 95 730 l 1
 174 730 l 1
 174 197 l 2
 174 113 217 61 300 61 c 0
 383 61 426 113 426 197 c 2
 426 730 l 1
 496 730 l 2
 519 730 534 746 534 769 c 2
 534 840 l 1
 600 840 l 1
 600 765 l 2
 600 709 560 673 505 673 c 1
 505 197 l 2
 505 69 432 -10 300 -10 c 0
300 -211 m 0
 258 -211 232 -187 232 -150 c 0
 232 -112 258 -88 300 -88 c 0
 342 -88 368 -112 368 -150 c 0
 368 -187 342 -211 300 -211 c 0
EndSplineSet
Validated: 1048577
EndChar

StartChar: uni1EEA
Encoding: 7914 7914 152
Width: 600
GlyphClass: 2
Flags: W
AnchorPoint: "Anchor-3" 351 0 basechar 0
AnchorPoint: "Anchor-2" 300 0 basechar 0
AnchorPoint: "Anchor-1" 387 730 basechar 0
AnchorPoint: "Anchor-0" 300 730 basechar 0
LayerCount: 2
Fore
SplineSet
271 810 m 1
 157 950 l 1
 247 950 l 1
 356 810 l 1
 271 810 l 1
300 -10 m 0
 169 -10 95 70 95 197 c 2
 95 730 l 1
 174 730 l 1
 174 197 l 2
 174 113 217 61 300 61 c 0
 383 61 426 113 426 197 c 2
 426 730 l 1
 496 730 l 2
 519 730 534 746 534 769 c 2
 534 840 l 1
 600 840 l 1
 600 765 l 2
 600 709 560 673 505 673 c 1
 505 197 l 2
 505 69 432 -10 300 -10 c 0
EndSplineSet
Validated: 1048577
EndChar

StartChar: uni1EEC
Encoding: 7916 7916 153
Width: 600
GlyphClass: 2
Flags: W
AnchorPoint: "Anchor-3" 351 0 basechar 0
AnchorPoint: "Anchor-2" 300 0 basechar 0
AnchorPoint: "Anchor-1" 387 730 basechar 0
AnchorPoint: "Anchor-0" 300 730 basechar 0
LayerCount: 2
Fore
SplineSet
262 800 m 1
 310 866 l 2
 320 880 325 892 325 900 c 0
 325 914 314 922 292 922 c 2
 213 922 l 1
 213 979 l 1
 295 979 l 2
 354 979 393 951 393 908 c 0
 393 891 387 871 375 855 c 2
 338 800 l 1
 262 800 l 1
300 -10 m 0
 169 -10 95 70 95 197 c 2
 95 730 l 1
 174 730 l 1
 174 197 l 2
 174 113 217 61 300 61 c 0
 383 61 426 113 426 197 c 2
 426 730 l 1
 496 730 l 2
 519 730 534 746 534 769 c 2
 534 840 l 1
 600 840 l 1
 600 765 l 2
 600 709 560 673 505 673 c 1
 505 197 l 2
 505 69 432 -10 300 -10 c 0
EndSplineSet
Validated: 1048577
EndChar

StartChar: uni1EEE
Encoding: 7918 7918 154
Width: 600
GlyphClass: 2
Flags: W
AnchorPoint: "Anchor-3" 351 0 basechar 0
AnchorPoint: "Anchor-2" 300 0 basechar 0
AnchorPoint: "Anchor-1" 387 730 basechar 0
AnchorPoint: "Anchor-0" 300 730 basechar 0
LayerCount: 2
Fore
SplineSet
371 815 m 0
 293 815 280 891 234 891 c 0
 212 891 198 877 198 851 c 2
 198 820 l 1
 140 820 l 1
 140 851 l 2
 140 910 175 945 230 945 c 0
 309 945 322 869 368 869 c 0
 388 869 402 883 402 909 c 2
 402 940 l 1
 460 940 l 1
 460 909 l 2
 460 850 425 815 371 815 c 0
300 -10 m 0
 169 -10 95 70 95 197 c 2
 95 730 l 1
 174 730 l 1
 174 197 l 2
 174 113 217 61 300 61 c 0
 383 61 426 113 426 197 c 2
 426 730 l 1
 496 730 l 2
 519 730 534 746 534 769 c 2
 534 840 l 1
 600 840 l 1
 600 765 l 2
 600 709 560 673 505 673 c 1
 505 197 l 2
 505 69 432 -10 300 -10 c 0
EndSplineSet
Validated: 1048577
EndChar

StartChar: Uhungarumlaut
Encoding: 368 368 155
Width: 600
GlyphClass: 2
Flags: W
AnchorPoint: "Anchor-3" 351 0 basechar 0
AnchorPoint: "Anchor-2" 300 0 basechar 0
AnchorPoint: "Anchor-1" 387 730 basechar 0
AnchorPoint: "Anchor-0" 300 730 basechar 0
LayerCount: 2
Fore
SplineSet
328 810 m 1
 437 950 l 1
 520 950 l 1
 406 810 l 1
 328 810 l 1
155 810 m 1
 264 950 l 1
 347 950 l 1
 232 810 l 1
 155 810 l 1
300 -10 m 0
 169 -10 95 70 95 197 c 2
 95 730 l 1
 174 730 l 1
 174 197 l 2
 174 113 217 61 300 61 c 0
 383 61 426 113 426 197 c 2
 426 730 l 1
 505 730 l 1
 505 197 l 2
 505 69 432 -10 300 -10 c 0
EndSplineSet
Validated: 1048577
EndChar

StartChar: Umacron
Encoding: 362 362 156
Width: 600
GlyphClass: 2
Flags: W
AnchorPoint: "Anchor-3" 351 0 basechar 0
AnchorPoint: "Anchor-2" 300 0 basechar 0
AnchorPoint: "Anchor-1" 387 730 basechar 0
AnchorPoint: "Anchor-0" 300 730 basechar 0
LayerCount: 2
Fore
SplineSet
145 844 m 1
 145 910 l 1
 455 910 l 1
 455 844 l 1
 145 844 l 1
300 -10 m 0
 169 -10 95 70 95 197 c 2
 95 730 l 1
 174 730 l 1
 174 197 l 2
 174 113 217 61 300 61 c 0
 383 61 426 113 426 197 c 2
 426 730 l 1
 505 730 l 1
 505 197 l 2
 505 69 432 -10 300 -10 c 0
EndSplineSet
Validated: 1048577
EndChar

StartChar: Uogonek
Encoding: 370 370 157
Width: 600
GlyphClass: 2
Flags: W
AnchorPoint: "Anchor-1" 387 730 basechar 0
AnchorPoint: "Anchor-0" 300 730 basechar 0
LayerCount: 2
Fore
SplineSet
376 -201 m 2
 307 -201 263 -164 263 -111 c 0
 263 -81 284 -43 320 -9 c 1
 314 -10 306 -10 300 -10 c 0
 172 -10 95 69 95 197 c 2
 95 730 l 1
 174 730 l 1
 174 197 l 2
 174 110 218 61 300 61 c 0
 382 61 426 110 426 197 c 2
 426 730 l 1
 505 730 l 1
 505 197 l 2
 505 117 476 56 421 21 c 1
 398 1 l 2
 355 -35 338 -68 338 -96 c 0
 338 -125 358 -146 392 -146 c 2
 453 -146 l 1
 453 -201 l 1
 376 -201 l 2
EndSplineSet
Validated: 1048577
EndChar

StartChar: Uring
Encoding: 366 366 158
Width: 600
GlyphClass: 2
Flags: W
AnchorPoint: "Anchor-3" 351 0 basechar 0
AnchorPoint: "Anchor-2" 300 0 basechar 0
AnchorPoint: "Anchor-1" 387 730 basechar 0
AnchorPoint: "Anchor-0" 300 730 basechar 0
LayerCount: 2
Fore
SplineSet
300 770 m 0
 231 770 184 814 184 880 c 0
 184 946 231 990 300 990 c 0
 370 990 416 946 416 880 c 0
 416 814 370 770 300 770 c 0
300 818 m 0
 337 818 361 842 361 880 c 0
 361 918 337 943 300 943 c 0
 263 943 239 918 239 880 c 0
 239 842 263 818 300 818 c 0
300 -10 m 0
 169 -10 95 70 95 197 c 2
 95 730 l 1
 174 730 l 1
 174 197 l 2
 174 113 217 61 300 61 c 0
 383 61 426 113 426 197 c 2
 426 730 l 1
 505 730 l 1
 505 197 l 2
 505 69 432 -10 300 -10 c 0
EndSplineSet
Validated: 1048577
EndChar

StartChar: Utilde
Encoding: 360 360 159
Width: 600
GlyphClass: 2
Flags: W
AnchorPoint: "Anchor-3" 351 0 basechar 0
AnchorPoint: "Anchor-2" 300 0 basechar 0
AnchorPoint: "Anchor-1" 387 730 basechar 0
AnchorPoint: "Anchor-0" 300 730 basechar 0
LayerCount: 2
Fore
SplineSet
371 815 m 0
 293 815 280 891 234 891 c 0
 212 891 198 877 198 851 c 2
 198 820 l 1
 140 820 l 1
 140 851 l 2
 140 910 175 945 230 945 c 0
 309 945 322 869 368 869 c 0
 388 869 402 883 402 909 c 2
 402 940 l 1
 460 940 l 1
 460 909 l 2
 460 850 425 815 371 815 c 0
300 -10 m 0
 169 -10 95 70 95 197 c 2
 95 730 l 1
 174 730 l 1
 174 197 l 2
 174 113 217 61 300 61 c 0
 383 61 426 113 426 197 c 2
 426 730 l 1
 505 730 l 1
 505 197 l 2
 505 69 432 -10 300 -10 c 0
EndSplineSet
Validated: 1048577
EndChar

StartChar: V
Encoding: 86 86 160
Width: 600
GlyphClass: 2
Flags: W
AnchorPoint: "Anchor-0" 300 730 basechar 0
LayerCount: 2
Fore
SplineSet
246 0 m 1
 55 730 l 1
 137 730 l 1
 268 220 l 2
 284 154 297 91 302 62 c 1
 307 91 319 154 335 220 c 2
 465 730 l 1
 545 730 l 1
 353 0 l 1
 246 0 l 1
EndSplineSet
Validated: 1048577
EndChar

StartChar: W
Encoding: 87 87 161
Width: 600
GlyphClass: 2
Flags: W
AnchorPoint: "Anchor-2" 300 0 basechar 0
AnchorPoint: "Anchor-0" 300 730 basechar 0
LayerCount: 2
Fore
SplineSet
115 0 m 1
 29 730 l 1
 104 730 l 1
 163 190 l 2
 167 148 172 90 174 57 c 1
 178 90 184 148 190 190 c 2
 260 730 l 1
 345 730 l 1
 410 190 l 2
 415 148 423 90 426 57 c 1
 429 90 435 148 440 190 c 2
 498 730 l 1
 571 730 l 1
 484 0 l 1
 382 0 l 1
 317 545 l 2
 311 591 305 645 302 673 c 1
 298 645 292 592 287 545 c 2
 216 0 l 1
 115 0 l 1
EndSplineSet
Validated: 1048577
EndChar

StartChar: Wacute
Encoding: 7810 7810 162
Width: 600
GlyphClass: 2
Flags: W
AnchorPoint: "Anchor-2" 300 0 basechar 0
AnchorPoint: "Anchor-0" 300 730 basechar 0
LayerCount: 2
Fore
SplineSet
248 810 m 1
 354 950 l 1
 441 950 l 1
 329 810 l 1
 248 810 l 1
115 0 m 1
 29 730 l 1
 104 730 l 1
 163 190 l 2
 167 148 172 90 174 57 c 1
 178 90 184 148 190 190 c 2
 260 730 l 1
 345 730 l 1
 410 190 l 2
 415 148 423 90 426 57 c 1
 429 90 435 148 440 190 c 2
 498 730 l 1
 571 730 l 1
 484 0 l 1
 382 0 l 1
 317 545 l 2
 311 591 305 645 302 673 c 1
 298 645 292 592 287 545 c 2
 216 0 l 1
 115 0 l 1
EndSplineSet
Validated: 1048577
EndChar

StartChar: Wcircumflex
Encoding: 372 372 163
Width: 600
GlyphClass: 2
Flags: W
AnchorPoint: "Anchor-2" 300 0 basechar 0
AnchorPoint: "Anchor-0" 300 730 basechar 0
LayerCount: 2
Fore
SplineSet
127 810 m 1
 261 950 l 1
 338 950 l 1
 473 810 l 1
 387 810 l 1
 300 896 l 1
 215 810 l 1
 127 810 l 1
115 0 m 1
 29 730 l 1
 104 730 l 1
 163 190 l 2
 167 148 172 90 174 57 c 1
 178 90 184 148 190 190 c 2
 260 730 l 1
 345 730 l 1
 410 190 l 2
 415 148 423 90 426 57 c 1
 429 90 435 148 440 190 c 2
 498 730 l 1
 571 730 l 1
 484 0 l 1
 382 0 l 1
 317 545 l 2
 311 591 305 645 302 673 c 1
 298 645 292 592 287 545 c 2
 216 0 l 1
 115 0 l 1
EndSplineSet
Validated: 1048577
EndChar

StartChar: Wdieresis
Encoding: 7812 7812 164
Width: 600
GlyphClass: 2
Flags: W
AnchorPoint: "Anchor-2" 300 0 basechar 0
AnchorPoint: "Anchor-0" 300 730 basechar 0
LayerCount: 2
Fore
SplineSet
411 819 m 0
 374 819 350 843 350 880 c 0
 350 918 374 942 411 942 c 0
 448 942 471 918 471 880 c 0
 471 843 448 819 411 819 c 0
191 819 m 0
 154 819 130 843 130 880 c 0
 130 918 154 942 191 942 c 0
 227 942 251 918 251 880 c 0
 251 843 227 819 191 819 c 0
115 0 m 1
 29 730 l 1
 104 730 l 1
 163 190 l 2
 167 148 172 90 174 57 c 1
 178 90 184 148 190 190 c 2
 260 730 l 1
 345 730 l 1
 410 190 l 2
 415 148 423 90 426 57 c 1
 429 90 435 148 440 190 c 2
 498 730 l 1
 571 730 l 1
 484 0 l 1
 382 0 l 1
 317 545 l 2
 311 591 305 645 302 673 c 1
 298 645 292 592 287 545 c 2
 216 0 l 1
 115 0 l 1
EndSplineSet
Validated: 1048577
EndChar

StartChar: Wgrave
Encoding: 7808 7808 165
Width: 600
GlyphClass: 2
Flags: W
AnchorPoint: "Anchor-2" 300 0 basechar 0
AnchorPoint: "Anchor-0" 300 730 basechar 0
LayerCount: 2
Fore
SplineSet
271 810 m 1
 157 950 l 1
 247 950 l 1
 356 810 l 1
 271 810 l 1
115 0 m 1
 29 730 l 1
 104 730 l 1
 163 190 l 2
 167 148 172 90 174 57 c 1
 178 90 184 148 190 190 c 2
 260 730 l 1
 345 730 l 1
 410 190 l 2
 415 148 423 90 426 57 c 1
 429 90 435 148 440 190 c 2
 498 730 l 1
 571 730 l 1
 484 0 l 1
 382 0 l 1
 317 545 l 2
 311 591 305 645 302 673 c 1
 298 645 292 592 287 545 c 2
 216 0 l 1
 115 0 l 1
EndSplineSet
Validated: 1048577
EndChar

StartChar: X
Encoding: 88 88 166
Width: 600
GlyphClass: 2
Flags: W
AnchorPoint: "Anchor-0" 300 730 basechar 0
LayerCount: 2
Fore
SplineSet
43 0 m 1
 255 373 l 1
 56 730 l 1
 147 730 l 1
 262 512 l 2
 274 489 291 457 301 438 c 1
 311 456 328 489 340 512 c 2
 457 730 l 1
 544 730 l 1
 345 378 l 1
 557 0 l 1
 466 0 l 1
 338 237 l 2
 326 260 309 293 300 312 c 1
 290 293 273 260 261 238 c 2
 131 0 l 1
 43 0 l 1
EndSplineSet
Validated: 1048577
EndChar

StartChar: Y
Encoding: 89 89 167
Width: 600
GlyphClass: 2
Flags: W
AnchorPoint: "Anchor-2" 300 0 basechar 0
AnchorPoint: "Anchor-0" 300 730 basechar 0
LayerCount: 2
Fore
SplineSet
260 0 m 1
 260 275 l 1
 39 730 l 1
 121 730 l 1
 271 422 l 2
 287 390 297 364 301 353 c 1
 305 364 316 390 331 422 c 2
 479 730 l 1
 561 730 l 1
 340 275 l 1
 340 0 l 1
 260 0 l 1
EndSplineSet
Validated: 1048577
EndChar

StartChar: Yacute
Encoding: 221 221 168
Width: 600
GlyphClass: 2
Flags: W
AnchorPoint: "Anchor-2" 300 0 basechar 0
AnchorPoint: "Anchor-0" 300 730 basechar 0
LayerCount: 2
Fore
SplineSet
248 810 m 1
 354 950 l 1
 441 950 l 1
 329 810 l 1
 248 810 l 1
260 0 m 1
 260 275 l 1
 39 730 l 1
 121 730 l 1
 271 422 l 2
 287 390 297 364 301 353 c 1
 305 364 316 390 331 422 c 2
 479 730 l 1
 561 730 l 1
 340 275 l 1
 340 0 l 1
 260 0 l 1
EndSplineSet
Validated: 1048577
EndChar

StartChar: Ycircumflex
Encoding: 374 374 169
Width: 600
GlyphClass: 2
Flags: W
AnchorPoint: "Anchor-2" 300 0 basechar 0
AnchorPoint: "Anchor-0" 300 730 basechar 0
LayerCount: 2
Fore
SplineSet
127 810 m 1
 261 950 l 1
 338 950 l 1
 473 810 l 1
 387 810 l 1
 300 896 l 1
 215 810 l 1
 127 810 l 1
260 0 m 1
 260 275 l 1
 39 730 l 1
 121 730 l 1
 271 422 l 2
 287 390 297 364 301 353 c 1
 305 364 316 390 331 422 c 2
 479 730 l 1
 561 730 l 1
 340 275 l 1
 340 0 l 1
 260 0 l 1
EndSplineSet
Validated: 1048577
EndChar

StartChar: Ydieresis
Encoding: 376 376 170
Width: 600
GlyphClass: 2
Flags: W
AnchorPoint: "Anchor-2" 300 0 basechar 0
AnchorPoint: "Anchor-0" 300 730 basechar 0
LayerCount: 2
Fore
SplineSet
411 819 m 0
 374 819 350 843 350 880 c 0
 350 918 374 942 411 942 c 0
 448 942 471 918 471 880 c 0
 471 843 448 819 411 819 c 0
191 819 m 0
 154 819 130 843 130 880 c 0
 130 918 154 942 191 942 c 0
 227 942 251 918 251 880 c 0
 251 843 227 819 191 819 c 0
260 0 m 1
 260 275 l 1
 39 730 l 1
 121 730 l 1
 271 422 l 2
 287 390 297 364 301 353 c 1
 305 364 316 390 331 422 c 2
 479 730 l 1
 561 730 l 1
 340 275 l 1
 340 0 l 1
 260 0 l 1
EndSplineSet
Validated: 1048577
EndChar

StartChar: uni1EF4
Encoding: 7924 7924 171
Width: 600
GlyphClass: 2
Flags: W
AnchorPoint: "Anchor-2" 300 0 basechar 0
AnchorPoint: "Anchor-0" 300 730 basechar 0
LayerCount: 2
Fore
SplineSet
260 0 m 1
 260 275 l 1
 39 730 l 1
 121 730 l 1
 271 422 l 2
 287 390 297 364 301 353 c 1
 305 364 316 390 331 422 c 2
 479 730 l 1
 561 730 l 1
 340 275 l 1
 340 0 l 1
 260 0 l 1
300 -211 m 0
 258 -211 232 -187 232 -150 c 0
 232 -112 258 -88 300 -88 c 0
 342 -88 368 -112 368 -150 c 0
 368 -187 342 -211 300 -211 c 0
EndSplineSet
Validated: 1048577
EndChar

StartChar: Ygrave
Encoding: 7922 7922 172
Width: 600
GlyphClass: 2
Flags: W
AnchorPoint: "Anchor-2" 300 0 basechar 0
AnchorPoint: "Anchor-0" 300 730 basechar 0
LayerCount: 2
Fore
SplineSet
271 810 m 1
 157 950 l 1
 247 950 l 1
 356 810 l 1
 271 810 l 1
260 0 m 1
 260 275 l 1
 39 730 l 1
 121 730 l 1
 271 422 l 2
 287 390 297 364 301 353 c 1
 305 364 316 390 331 422 c 2
 479 730 l 1
 561 730 l 1
 340 275 l 1
 340 0 l 1
 260 0 l 1
EndSplineSet
Validated: 1048577
EndChar

StartChar: uni1EF6
Encoding: 7926 7926 173
Width: 600
GlyphClass: 2
Flags: W
AnchorPoint: "Anchor-2" 300 0 basechar 0
AnchorPoint: "Anchor-0" 300 730 basechar 0
LayerCount: 2
Fore
SplineSet
262 800 m 1
 310 866 l 2
 320 880 325 892 325 900 c 0
 325 914 314 922 292 922 c 2
 213 922 l 1
 213 979 l 1
 295 979 l 2
 354 979 393 951 393 908 c 0
 393 891 387 871 375 855 c 2
 338 800 l 1
 262 800 l 1
260 0 m 1
 260 275 l 1
 39 730 l 1
 121 730 l 1
 271 422 l 2
 287 390 297 364 301 353 c 1
 305 364 316 390 331 422 c 2
 479 730 l 1
 561 730 l 1
 340 275 l 1
 340 0 l 1
 260 0 l 1
EndSplineSet
Validated: 1048577
EndChar

StartChar: uni0232
Encoding: 562 562 174
Width: 600
GlyphClass: 2
Flags: W
AnchorPoint: "Anchor-2" 300 0 basechar 0
AnchorPoint: "Anchor-0" 300 730 basechar 0
LayerCount: 2
Fore
SplineSet
145 844 m 1
 145 910 l 1
 455 910 l 1
 455 844 l 1
 145 844 l 1
260 0 m 1
 260 275 l 1
 39 730 l 1
 121 730 l 1
 271 422 l 2
 287 390 297 364 301 353 c 1
 305 364 316 390 331 422 c 2
 479 730 l 1
 561 730 l 1
 340 275 l 1
 340 0 l 1
 260 0 l 1
EndSplineSet
Validated: 1048577
EndChar

StartChar: uni1EF8
Encoding: 7928 7928 175
Width: 600
GlyphClass: 2
Flags: W
AnchorPoint: "Anchor-2" 300 0 basechar 0
AnchorPoint: "Anchor-0" 300 730 basechar 0
LayerCount: 2
Fore
SplineSet
371 815 m 0
 293 815 280 891 234 891 c 0
 212 891 198 877 198 851 c 2
 198 820 l 1
 140 820 l 1
 140 851 l 2
 140 910 175 945 230 945 c 0
 309 945 322 869 368 869 c 0
 388 869 402 883 402 909 c 2
 402 940 l 1
 460 940 l 1
 460 909 l 2
 460 850 425 815 371 815 c 0
260 0 m 1
 260 275 l 1
 39 730 l 1
 121 730 l 1
 271 422 l 2
 287 390 297 364 301 353 c 1
 305 364 316 390 331 422 c 2
 479 730 l 1
 561 730 l 1
 340 275 l 1
 340 0 l 1
 260 0 l 1
EndSplineSet
Validated: 1048577
EndChar

StartChar: Z
Encoding: 90 90 176
Width: 600
GlyphClass: 2
Flags: W
AnchorPoint: "Anchor-0" 300 730 basechar 0
LayerCount: 2
Fore
SplineSet
87 0 m 1
 87 79 l 1
 423 658 l 1
 91 658 l 1
 91 730 l 1
 502 730 l 1
 502 649 l 1
 167 72 l 1
 513 72 l 1
 513 0 l 1
 87 0 l 1
EndSplineSet
Validated: 1048577
EndChar

StartChar: Zacute
Encoding: 377 377 177
Width: 600
GlyphClass: 2
Flags: W
AnchorPoint: "Anchor-0" 300 730 basechar 0
LayerCount: 2
Fore
SplineSet
248 810 m 1
 354 950 l 1
 441 950 l 1
 329 810 l 1
 248 810 l 1
87 0 m 1
 87 79 l 1
 423 658 l 1
 91 658 l 1
 91 730 l 1
 502 730 l 1
 502 649 l 1
 167 72 l 1
 513 72 l 1
 513 0 l 1
 87 0 l 1
EndSplineSet
Validated: 1048577
EndChar

StartChar: Zcaron
Encoding: 381 381 178
Width: 600
GlyphClass: 2
Flags: W
AnchorPoint: "Anchor-0" 300 730 basechar 0
LayerCount: 2
Fore
SplineSet
262 810 m 1
 127 950 l 1
 213 950 l 1
 301 864 l 1
 386 950 l 1
 473 950 l 1
 339 810 l 1
 262 810 l 1
87 0 m 1
 87 79 l 1
 423 658 l 1
 91 658 l 1
 91 730 l 1
 502 730 l 1
 502 649 l 1
 167 72 l 1
 513 72 l 1
 513 0 l 1
 87 0 l 1
EndSplineSet
Validated: 1048577
EndChar

StartChar: Zdotaccent
Encoding: 379 379 179
Width: 600
GlyphClass: 2
Flags: W
AnchorPoint: "Anchor-0" 300 730 basechar 0
LayerCount: 2
Fore
SplineSet
300 818 m 0
 258 818 232 843 232 880 c 0
 232 917 258 942 300 942 c 0
 342 942 368 917 368 880 c 0
 368 843 342 818 300 818 c 0
87 0 m 1
 87 79 l 1
 423 658 l 1
 91 658 l 1
 91 730 l 1
 502 730 l 1
 502 649 l 1
 167 72 l 1
 513 72 l 1
 513 0 l 1
 87 0 l 1
EndSplineSet
Validated: 1048577
EndChar

StartChar: a
Encoding: 97 97 180
Width: 600
GlyphClass: 2
Flags: W
AnchorPoint: "Anchor-3" 464 0 basechar 0
AnchorPoint: "Anchor-2" 305 0 basechar 0
AnchorPoint: "Anchor-0" 305 550 basechar 0
LayerCount: 2
Fore
SplineSet
257 -10 m 0
 141 -10 70 54 70 155 c 0
 70 255 140 317 251 317 c 2
 426 317 l 1
 426 375 l 2
 426 448 381 490 303 490 c 0
 234 490 186 457 177 405 c 1
 97 405 l 1
 110 499 192 560 305 560 c 0
 427 560 505 489 505 377 c 2
 505 0 l 1
 427 0 l 1
 427 101 l 1
 416 32 351 -10 257 -10 c 0
276 54 m 0
 364 54 426 103 426 173 c 2
 426 256 l 1
 252 256 l 2
 189 256 149 219 149 159 c 0
 149 94 197 54 276 54 c 0
EndSplineSet
Validated: 1048577
Substitution2: "Single Substitution lookup 375 subtable" ordfeminine
Substitution2: "'aalt' Access All Alternates in Latin lookup 0 subtable" ordfeminine
EndChar

StartChar: aacute
Encoding: 225 225 181
Width: 600
GlyphClass: 2
Flags: W
AnchorPoint: "Anchor-3" 464 0 basechar 0
AnchorPoint: "Anchor-2" 305 0 basechar 0
AnchorPoint: "Anchor-0" 305 550 basechar 0
LayerCount: 2
Fore
SplineSet
256 645 m 1
 362 785 l 1
 448 785 l 1
 337 645 l 1
 256 645 l 1
257 -10 m 0
 141 -10 70 54 70 155 c 0
 70 255 140 317 251 317 c 2
 426 317 l 1
 426 375 l 2
 426 448 381 490 303 490 c 0
 234 490 186 457 177 405 c 1
 97 405 l 1
 110 499 192 560 305 560 c 0
 427 560 505 489 505 377 c 2
 505 0 l 1
 427 0 l 1
 427 101 l 1
 416 32 351 -10 257 -10 c 0
276 54 m 0
 364 54 426 103 426 173 c 2
 426 256 l 1
 252 256 l 2
 189 256 149 219 149 159 c 0
 149 94 197 54 276 54 c 0
EndSplineSet
Validated: 1048577
EndChar

StartChar: abreve
Encoding: 259 259 182
Width: 600
GlyphClass: 2
Flags: W
AnchorPoint: "Anchor-3" 464 0 basechar 0
AnchorPoint: "Anchor-2" 305 0 basechar 0
AnchorPoint: "Anchor-0" 305 550 basechar 0
LayerCount: 2
Fore
SplineSet
305 641 m 0
 211 641 149 698 149 785 c 1
 213 785 l 1
 213 730 249 694 304 694 c 0
 360 694 397 730 397 785 c 1
 461 785 l 1
 461 698 399 641 305 641 c 0
257 -10 m 0
 141 -10 70 54 70 155 c 0
 70 255 140 317 251 317 c 2
 426 317 l 1
 426 375 l 2
 426 448 381 490 303 490 c 0
 234 490 186 457 177 405 c 1
 97 405 l 1
 110 499 192 560 305 560 c 0
 427 560 505 489 505 377 c 2
 505 0 l 1
 427 0 l 1
 427 101 l 1
 416 32 351 -10 257 -10 c 0
276 54 m 0
 364 54 426 103 426 173 c 2
 426 256 l 1
 252 256 l 2
 189 256 149 219 149 159 c 0
 149 94 197 54 276 54 c 0
EndSplineSet
Validated: 1048577
EndChar

StartChar: uni1EAF
Encoding: 7855 7855 183
Width: 600
GlyphClass: 2
Flags: W
AnchorPoint: "Anchor-3" 464 0 basechar 0
AnchorPoint: "Anchor-2" 305 0 basechar 0
AnchorPoint: "Anchor-0" 305 550 basechar 0
LayerCount: 2
Fore
SplineSet
248 760 m 1
 361 890 l 1
 448 890 l 1
 328 760 l 1
 248 760 l 1
305 641 m 0
 206 641 140 693 140 770 c 1
 204 770 l 1
 204 726 244 696 305 696 c 0
 366 696 406 726 406 770 c 1
 470 770 l 1
 470 693 404 641 305 641 c 0
257 -10 m 0
 141 -10 70 54 70 155 c 0
 70 255 140 317 251 317 c 2
 426 317 l 1
 426 375 l 2
 426 448 381 490 303 490 c 0
 234 490 186 457 177 405 c 1
 97 405 l 1
 110 499 192 560 305 560 c 0
 427 560 505 489 505 377 c 2
 505 0 l 1
 427 0 l 1
 427 101 l 1
 416 32 351 -10 257 -10 c 0
276 54 m 0
 364 54 426 103 426 173 c 2
 426 256 l 1
 252 256 l 2
 189 256 149 219 149 159 c 0
 149 94 197 54 276 54 c 0
EndSplineSet
Validated: 1048577
EndChar

StartChar: uni1EB7
Encoding: 7863 7863 184
Width: 600
GlyphClass: 2
Flags: W
AnchorPoint: "Anchor-3" 464 0 basechar 0
AnchorPoint: "Anchor-2" 305 0 basechar 0
AnchorPoint: "Anchor-0" 305 550 basechar 0
LayerCount: 2
Fore
SplineSet
305 641 m 0
 211 641 149 698 149 785 c 1
 213 785 l 1
 213 730 249 694 304 694 c 0
 360 694 397 730 397 785 c 1
 461 785 l 1
 461 698 399 641 305 641 c 0
257 -10 m 0
 141 -10 70 54 70 155 c 0
 70 255 140 317 251 317 c 2
 426 317 l 1
 426 375 l 2
 426 448 381 490 303 490 c 0
 234 490 186 457 177 405 c 1
 97 405 l 1
 110 499 192 560 305 560 c 0
 427 560 505 489 505 377 c 2
 505 0 l 1
 427 0 l 1
 427 101 l 1
 416 32 351 -10 257 -10 c 0
276 54 m 0
 364 54 426 103 426 173 c 2
 426 256 l 1
 252 256 l 2
 189 256 149 219 149 159 c 0
 149 94 197 54 276 54 c 0
305 -211 m 0
 263 -211 237 -187 237 -150 c 0
 237 -112 263 -88 305 -88 c 0
 347 -88 373 -112 373 -150 c 0
 373 -187 347 -211 305 -211 c 0
EndSplineSet
Validated: 1048577
EndChar

StartChar: uni1EB1
Encoding: 7857 7857 185
Width: 600
GlyphClass: 2
Flags: W
AnchorPoint: "Anchor-3" 464 0 basechar 0
AnchorPoint: "Anchor-2" 305 0 basechar 0
AnchorPoint: "Anchor-0" 305 550 basechar 0
LayerCount: 2
Fore
SplineSet
283 760 m 1
 163 890 l 1
 249 890 l 1
 363 760 l 1
 283 760 l 1
305 641 m 0
 206 641 140 693 140 770 c 1
 204 770 l 1
 204 726 244 696 305 696 c 0
 366 696 406 726 406 770 c 1
 470 770 l 1
 470 693 404 641 305 641 c 0
257 -10 m 0
 141 -10 70 54 70 155 c 0
 70 255 140 317 251 317 c 2
 426 317 l 1
 426 375 l 2
 426 448 381 490 303 490 c 0
 234 490 186 457 177 405 c 1
 97 405 l 1
 110 499 192 560 305 560 c 0
 427 560 505 489 505 377 c 2
 505 0 l 1
 427 0 l 1
 427 101 l 1
 416 32 351 -10 257 -10 c 0
276 54 m 0
 364 54 426 103 426 173 c 2
 426 256 l 1
 252 256 l 2
 189 256 149 219 149 159 c 0
 149 94 197 54 276 54 c 0
EndSplineSet
Validated: 1048577
EndChar

StartChar: uni1EB3
Encoding: 7859 7859 186
Width: 600
GlyphClass: 2
Flags: W
AnchorPoint: "Anchor-3" 464 0 basechar 0
AnchorPoint: "Anchor-2" 305 0 basechar 0
AnchorPoint: "Anchor-0" 305 550 basechar 0
LayerCount: 2
Fore
SplineSet
262 760 m 1
 309 822 l 2
 316 832 320 842 320 851 c 0
 320 866 309 876 291 876 c 2
 231 876 l 1
 231 929 l 1
 298 929 l 2
 352 929 387 901 387 862 c 0
 387 843 379 826 368 809 c 2
 332 760 l 1
 262 760 l 1
305 641 m 0
 206 641 140 693 140 770 c 1
 204 770 l 1
 204 726 244 696 305 696 c 0
 366 696 406 726 406 770 c 1
 470 770 l 1
 470 693 404 641 305 641 c 0
257 -10 m 0
 141 -10 70 54 70 155 c 0
 70 255 140 317 251 317 c 2
 426 317 l 1
 426 375 l 2
 426 448 381 490 303 490 c 0
 234 490 186 457 177 405 c 1
 97 405 l 1
 110 499 192 560 305 560 c 0
 427 560 505 489 505 377 c 2
 505 0 l 1
 427 0 l 1
 427 101 l 1
 416 32 351 -10 257 -10 c 0
276 54 m 0
 364 54 426 103 426 173 c 2
 426 256 l 1
 252 256 l 2
 189 256 149 219 149 159 c 0
 149 94 197 54 276 54 c 0
EndSplineSet
Validated: 1048577
EndChar

StartChar: uni1EB5
Encoding: 7861 7861 187
Width: 600
GlyphClass: 2
Flags: W
AnchorPoint: "Anchor-3" 464 0 basechar 0
AnchorPoint: "Anchor-2" 305 0 basechar 0
AnchorPoint: "Anchor-0" 305 550 basechar 0
LayerCount: 2
Fore
SplineSet
372 813 m 0
 290 813 286 878 240 878 c 0
 219 878 207 867 207 845 c 2
 207 820 l 1
 149 820 l 1
 149 841 l 2
 149 894 184 927 239 927 c 0
 322 927 325 862 371 862 c 0
 392 862 403 874 403 895 c 2
 403 920 l 1
 461 920 l 1
 461 899 l 2
 461 846 426 813 372 813 c 0
305 645 m 0
 211 645 148 696 148 774 c 1
 207 774 l 1
 207 729 246 699 304 699 c 0
 363 699 403 729 403 774 c 1
 462 774 l 1
 462 696 399 645 305 645 c 0
257 -10 m 0
 141 -10 70 54 70 155 c 0
 70 255 140 317 251 317 c 2
 426 317 l 1
 426 375 l 2
 426 448 381 490 303 490 c 0
 234 490 186 457 177 405 c 1
 97 405 l 1
 110 499 192 560 305 560 c 0
 427 560 505 489 505 377 c 2
 505 0 l 1
 427 0 l 1
 427 101 l 1
 416 32 351 -10 257 -10 c 0
276 54 m 0
 364 54 426 103 426 173 c 2
 426 256 l 1
 252 256 l 2
 189 256 149 219 149 159 c 0
 149 94 197 54 276 54 c 0
EndSplineSet
Validated: 1048577
EndChar

StartChar: uni01CE
Encoding: 462 462 188
Width: 600
GlyphClass: 2
Flags: W
AnchorPoint: "Anchor-3" 464 0 basechar 0
AnchorPoint: "Anchor-2" 305 0 basechar 0
AnchorPoint: "Anchor-0" 305 550 basechar 0
LayerCount: 2
Fore
SplineSet
267 645 m 1
 132 785 l 1
 218 785 l 1
 306 699 l 1
 391 785 l 1
 478 785 l 1
 344 645 l 1
 267 645 l 1
257 -10 m 0
 141 -10 70 54 70 155 c 0
 70 255 140 317 251 317 c 2
 426 317 l 1
 426 375 l 2
 426 448 381 490 303 490 c 0
 234 490 186 457 177 405 c 1
 97 405 l 1
 110 499 192 560 305 560 c 0
 427 560 505 489 505 377 c 2
 505 0 l 1
 427 0 l 1
 427 101 l 1
 416 32 351 -10 257 -10 c 0
276 54 m 0
 364 54 426 103 426 173 c 2
 426 256 l 1
 252 256 l 2
 189 256 149 219 149 159 c 0
 149 94 197 54 276 54 c 0
EndSplineSet
Validated: 1048577
EndChar

StartChar: acircumflex
Encoding: 226 226 189
Width: 600
GlyphClass: 2
Flags: W
AnchorPoint: "Anchor-3" 464 0 basechar 0
AnchorPoint: "Anchor-2" 305 0 basechar 0
AnchorPoint: "Anchor-0" 305 550 basechar 0
LayerCount: 2
Fore
SplineSet
132 645 m 1
 266 785 l 1
 343 785 l 1
 478 645 l 1
 392 645 l 1
 305 731 l 1
 220 645 l 1
 132 645 l 1
257 -10 m 0
 141 -10 70 54 70 155 c 0
 70 255 140 317 251 317 c 2
 426 317 l 1
 426 375 l 2
 426 448 381 490 303 490 c 0
 234 490 186 457 177 405 c 1
 97 405 l 1
 110 499 192 560 305 560 c 0
 427 560 505 489 505 377 c 2
 505 0 l 1
 427 0 l 1
 427 101 l 1
 416 32 351 -10 257 -10 c 0
276 54 m 0
 364 54 426 103 426 173 c 2
 426 256 l 1
 252 256 l 2
 189 256 149 219 149 159 c 0
 149 94 197 54 276 54 c 0
EndSplineSet
Validated: 1048577
EndChar

StartChar: uni1EA5
Encoding: 7845 7845 190
Width: 600
GlyphClass: 2
Flags: W
AnchorPoint: "Anchor-3" 464 0 basechar 0
AnchorPoint: "Anchor-2" 305 0 basechar 0
AnchorPoint: "Anchor-0" 305 550 basechar 0
LayerCount: 2
Fore
SplineSet
414 760 m 1
 529 900 l 1
 618 900 l 1
 497 760 l 1
 414 760 l 1
133 645 m 1
 266 785 l 1
 344 785 l 1
 478 645 l 1
 391 645 l 1
 305 731 l 1
 219 645 l 1
 133 645 l 1
257 -10 m 0
 141 -10 70 54 70 155 c 0
 70 255 140 317 251 317 c 2
 426 317 l 1
 426 375 l 2
 426 448 381 490 303 490 c 0
 234 490 186 457 177 405 c 1
 97 405 l 1
 110 499 192 560 305 560 c 0
 427 560 505 489 505 377 c 2
 505 0 l 1
 427 0 l 1
 427 101 l 1
 416 32 351 -10 257 -10 c 0
276 54 m 0
 364 54 426 103 426 173 c 2
 426 256 l 1
 252 256 l 2
 189 256 149 219 149 159 c 0
 149 94 197 54 276 54 c 0
EndSplineSet
Validated: 1048577
EndChar

StartChar: uni1EAD
Encoding: 7853 7853 191
Width: 600
GlyphClass: 2
Flags: W
AnchorPoint: "Anchor-3" 464 0 basechar 0
AnchorPoint: "Anchor-2" 305 0 basechar 0
AnchorPoint: "Anchor-0" 305 550 basechar 0
LayerCount: 2
Fore
SplineSet
132 645 m 1
 266 785 l 1
 343 785 l 1
 478 645 l 1
 392 645 l 1
 305 731 l 1
 220 645 l 1
 132 645 l 1
257 -10 m 0
 141 -10 70 54 70 155 c 0
 70 255 140 317 251 317 c 2
 426 317 l 1
 426 375 l 2
 426 448 381 490 303 490 c 0
 234 490 186 457 177 405 c 1
 97 405 l 1
 110 499 192 560 305 560 c 0
 427 560 505 489 505 377 c 2
 505 0 l 1
 427 0 l 1
 427 101 l 1
 416 32 351 -10 257 -10 c 0
276 54 m 0
 364 54 426 103 426 173 c 2
 426 256 l 1
 252 256 l 2
 189 256 149 219 149 159 c 0
 149 94 197 54 276 54 c 0
305 -211 m 0
 263 -211 237 -187 237 -150 c 0
 237 -112 263 -88 305 -88 c 0
 347 -88 373 -112 373 -150 c 0
 373 -187 347 -211 305 -211 c 0
EndSplineSet
Validated: 1048577
EndChar

StartChar: uni1EA7
Encoding: 7847 7847 192
Width: 600
GlyphClass: 2
Flags: W
AnchorPoint: "Anchor-3" 464 0 basechar 0
AnchorPoint: "Anchor-2" 305 0 basechar 0
AnchorPoint: "Anchor-0" 305 550 basechar 0
LayerCount: 2
Fore
SplineSet
456 760 m 1
 327 900 l 1
 416 900 l 1
 539 760 l 1
 456 760 l 1
133 645 m 1
 266 785 l 1
 344 785 l 1
 478 645 l 1
 391 645 l 1
 305 731 l 1
 219 645 l 1
 133 645 l 1
257 -10 m 0
 141 -10 70 54 70 155 c 0
 70 255 140 317 251 317 c 2
 426 317 l 1
 426 375 l 2
 426 448 381 490 303 490 c 0
 234 490 186 457 177 405 c 1
 97 405 l 1
 110 499 192 560 305 560 c 0
 427 560 505 489 505 377 c 2
 505 0 l 1
 427 0 l 1
 427 101 l 1
 416 32 351 -10 257 -10 c 0
276 54 m 0
 364 54 426 103 426 173 c 2
 426 256 l 1
 252 256 l 2
 189 256 149 219 149 159 c 0
 149 94 197 54 276 54 c 0
EndSplineSet
Validated: 1048577
EndChar

StartChar: uni1EA9
Encoding: 7849 7849 193
Width: 600
GlyphClass: 2
Flags: W
AnchorPoint: "Anchor-3" 464 0 basechar 0
AnchorPoint: "Anchor-2" 305 0 basechar 0
AnchorPoint: "Anchor-0" 305 550 basechar 0
LayerCount: 2
Fore
SplineSet
428 760 m 1
 474 822 l 2
 482 833 486 842 486 850 c 0
 486 866 473 876 453 876 c 2
 396 876 l 1
 396 929 l 1
 456 929 l 2
 513 929 550 901 550 859 c 0
 550 842 543 827 530 809 c 2
 495 760 l 1
 428 760 l 1
133 645 m 1
 266 785 l 1
 344 785 l 1
 478 645 l 1
 391 645 l 1
 305 731 l 1
 219 645 l 1
 133 645 l 1
257 -10 m 0
 141 -10 70 54 70 155 c 0
 70 255 140 317 251 317 c 2
 426 317 l 1
 426 375 l 2
 426 448 381 490 303 490 c 0
 234 490 186 457 177 405 c 1
 97 405 l 1
 110 499 192 560 305 560 c 0
 427 560 505 489 505 377 c 2
 505 0 l 1
 427 0 l 1
 427 101 l 1
 416 32 351 -10 257 -10 c 0
276 54 m 0
 364 54 426 103 426 173 c 2
 426 256 l 1
 252 256 l 2
 189 256 149 219 149 159 c 0
 149 94 197 54 276 54 c 0
EndSplineSet
Validated: 1048577
EndChar

StartChar: uni1EAB
Encoding: 7851 7851 194
Width: 600
GlyphClass: 2
Flags: W
AnchorPoint: "Anchor-3" 464 0 basechar 0
AnchorPoint: "Anchor-2" 305 0 basechar 0
AnchorPoint: "Anchor-0" 305 550 basechar 0
LayerCount: 2
Fore
SplineSet
372 813 m 0
 290 813 286 878 240 878 c 0
 219 878 207 867 207 845 c 2
 207 820 l 1
 149 820 l 1
 149 841 l 2
 149 894 184 927 239 927 c 0
 322 927 325 862 371 862 c 0
 392 862 403 874 403 895 c 2
 403 920 l 1
 461 920 l 1
 461 899 l 2
 461 846 426 813 372 813 c 0
133 645 m 1
 266 785 l 1
 344 785 l 1
 478 645 l 1
 391 645 l 1
 305 731 l 1
 219 645 l 1
 133 645 l 1
257 -10 m 0
 141 -10 70 54 70 155 c 0
 70 255 140 317 251 317 c 2
 426 317 l 1
 426 375 l 2
 426 448 381 490 303 490 c 0
 234 490 186 457 177 405 c 1
 97 405 l 1
 110 499 192 560 305 560 c 0
 427 560 505 489 505 377 c 2
 505 0 l 1
 427 0 l 1
 427 101 l 1
 416 32 351 -10 257 -10 c 0
276 54 m 0
 364 54 426 103 426 173 c 2
 426 256 l 1
 252 256 l 2
 189 256 149 219 149 159 c 0
 149 94 197 54 276 54 c 0
EndSplineSet
Validated: 1048577
EndChar

StartChar: adieresis
Encoding: 228 228 195
Width: 600
GlyphClass: 2
Flags: W
AnchorPoint: "Anchor-3" 464 0 basechar 0
AnchorPoint: "Anchor-2" 305 0 basechar 0
AnchorPoint: "Anchor-0" 305 550 basechar 0
LayerCount: 2
Fore
SplineSet
415 651 m 0
 378 651 354 674 354 711 c 0
 354 750 378 774 415 774 c 0
 452 774 476 750 476 711 c 0
 476 674 452 651 415 651 c 0
195 651 m 0
 158 651 134 674 134 711 c 0
 134 750 158 774 195 774 c 0
 232 774 256 750 256 711 c 0
 256 674 232 651 195 651 c 0
257 -10 m 0
 141 -10 70 54 70 155 c 0
 70 255 140 317 251 317 c 2
 426 317 l 1
 426 375 l 2
 426 448 381 490 303 490 c 0
 234 490 186 457 177 405 c 1
 97 405 l 1
 110 499 192 560 305 560 c 0
 427 560 505 489 505 377 c 2
 505 0 l 1
 427 0 l 1
 427 101 l 1
 416 32 351 -10 257 -10 c 0
276 54 m 0
 364 54 426 103 426 173 c 2
 426 256 l 1
 252 256 l 2
 189 256 149 219 149 159 c 0
 149 94 197 54 276 54 c 0
EndSplineSet
Validated: 1048577
EndChar

StartChar: uni1EA1
Encoding: 7841 7841 196
Width: 600
GlyphClass: 2
Flags: W
AnchorPoint: "Anchor-3" 464 0 basechar 0
AnchorPoint: "Anchor-2" 305 0 basechar 0
AnchorPoint: "Anchor-0" 305 550 basechar 0
LayerCount: 2
Fore
SplineSet
257 -10 m 0
 141 -10 70 54 70 155 c 0
 70 255 140 317 251 317 c 2
 426 317 l 1
 426 375 l 2
 426 448 381 490 303 490 c 0
 234 490 186 457 177 405 c 1
 97 405 l 1
 110 499 192 560 305 560 c 0
 427 560 505 489 505 377 c 2
 505 0 l 1
 427 0 l 1
 427 101 l 1
 416 32 351 -10 257 -10 c 0
276 54 m 0
 364 54 426 103 426 173 c 2
 426 256 l 1
 252 256 l 2
 189 256 149 219 149 159 c 0
 149 94 197 54 276 54 c 0
305 -211 m 0
 263 -211 237 -187 237 -150 c 0
 237 -112 263 -88 305 -88 c 0
 347 -88 373 -112 373 -150 c 0
 373 -187 347 -211 305 -211 c 0
EndSplineSet
Validated: 1048577
EndChar

StartChar: agrave
Encoding: 224 224 197
Width: 600
GlyphClass: 2
Flags: W
AnchorPoint: "Anchor-3" 464 0 basechar 0
AnchorPoint: "Anchor-2" 305 0 basechar 0
AnchorPoint: "Anchor-0" 305 550 basechar 0
LayerCount: 2
Fore
SplineSet
276 645 m 1
 162 785 l 1
 252 785 l 1
 361 645 l 1
 276 645 l 1
257 -10 m 0
 141 -10 70 54 70 155 c 0
 70 255 140 317 251 317 c 2
 426 317 l 1
 426 375 l 2
 426 448 381 490 303 490 c 0
 234 490 186 457 177 405 c 1
 97 405 l 1
 110 499 192 560 305 560 c 0
 427 560 505 489 505 377 c 2
 505 0 l 1
 427 0 l 1
 427 101 l 1
 416 32 351 -10 257 -10 c 0
276 54 m 0
 364 54 426 103 426 173 c 2
 426 256 l 1
 252 256 l 2
 189 256 149 219 149 159 c 0
 149 94 197 54 276 54 c 0
EndSplineSet
Validated: 1048577
EndChar

StartChar: uni1EA3
Encoding: 7843 7843 198
Width: 600
GlyphClass: 2
Flags: W
AnchorPoint: "Anchor-3" 464 0 basechar 0
AnchorPoint: "Anchor-2" 305 0 basechar 0
AnchorPoint: "Anchor-0" 305 550 basechar 0
LayerCount: 2
Fore
SplineSet
267 645 m 1
 319 711 l 2
 328 724 334 735 334 745 c 0
 334 759 323 767 300 767 c 2
 218 767 l 1
 218 824 l 1
 319 824 l 2
 369 824 402 797 402 754 c 0
 402 735 395 715 384 700 c 2
 343 645 l 1
 267 645 l 1
257 -10 m 0
 141 -10 70 54 70 155 c 0
 70 255 140 317 251 317 c 2
 426 317 l 1
 426 375 l 2
 426 448 381 490 303 490 c 0
 234 490 186 457 177 405 c 1
 97 405 l 1
 110 499 192 560 305 560 c 0
 427 560 505 489 505 377 c 2
 505 0 l 1
 427 0 l 1
 427 101 l 1
 416 32 351 -10 257 -10 c 0
276 54 m 0
 364 54 426 103 426 173 c 2
 426 256 l 1
 252 256 l 2
 189 256 149 219 149 159 c 0
 149 94 197 54 276 54 c 0
EndSplineSet
Validated: 1048577
EndChar

StartChar: amacron
Encoding: 257 257 199
Width: 600
GlyphClass: 2
Flags: W
AnchorPoint: "Anchor-3" 464 0 basechar 0
AnchorPoint: "Anchor-2" 305 0 basechar 0
AnchorPoint: "Anchor-0" 305 550 basechar 0
LayerCount: 2
Fore
SplineSet
150 674 m 1
 150 740 l 1
 460 740 l 1
 460 674 l 1
 150 674 l 1
257 -10 m 0
 141 -10 70 54 70 155 c 0
 70 255 140 317 251 317 c 2
 426 317 l 1
 426 375 l 2
 426 448 381 490 303 490 c 0
 234 490 186 457 177 405 c 1
 97 405 l 1
 110 499 192 560 305 560 c 0
 427 560 505 489 505 377 c 2
 505 0 l 1
 427 0 l 1
 427 101 l 1
 416 32 351 -10 257 -10 c 0
276 54 m 0
 364 54 426 103 426 173 c 2
 426 256 l 1
 252 256 l 2
 189 256 149 219 149 159 c 0
 149 94 197 54 276 54 c 0
EndSplineSet
Validated: 1048577
EndChar

StartChar: aogonek
Encoding: 261 261 200
Width: 600
GlyphClass: 2
Flags: W
AnchorPoint: "Anchor-3" 464 0 basechar 0
AnchorPoint: "Anchor-2" 305 0 basechar 0
AnchorPoint: "Anchor-0" 305 550 basechar 0
LayerCount: 2
Fore
SplineSet
257 -10 m 0
 141 -10 70 54 70 155 c 0
 70 255 140 317 251 317 c 2
 426 317 l 1
 426 375 l 2
 426 448 381 490 303 490 c 0
 234 490 186 457 177 405 c 1
 97 405 l 1
 110 499 192 560 305 560 c 0
 427 560 505 489 505 377 c 2
 505 0 l 1
 462 -37 442 -68 442 -96 c 0
 442 -125 462 -146 496 -146 c 2
 557 -146 l 1
 557 -201 l 1
 480 -201 l 2
 411 -201 367 -164 367 -111 c 0
 367 -76 388 -39 438 0 c 1
 427 0 l 1
 427 101 l 1
 416 32 351 -10 257 -10 c 0
276 54 m 0
 364 54 426 103 426 173 c 2
 426 256 l 1
 252 256 l 2
 189 256 149 219 149 159 c 0
 149 94 197 54 276 54 c 0
EndSplineSet
Validated: 1048577
EndChar

StartChar: aring
Encoding: 229 229 201
Width: 600
GlyphClass: 2
Flags: W
AnchorPoint: "Anchor-3" 464 0 basechar 0
AnchorPoint: "Anchor-2" 305 0 basechar 0
AnchorPoint: "Anchor-0" 305 550 basechar 0
LayerCount: 2
Fore
SplineSet
305 610 m 0
 236 610 189 654 189 720 c 0
 189 786 236 830 305 830 c 0
 375 830 421 786 421 720 c 0
 421 654 375 610 305 610 c 0
305 658 m 0
 342 658 366 683 366 720 c 0
 366 758 342 783 305 783 c 0
 268 783 244 758 244 720 c 0
 244 683 268 658 305 658 c 0
257 -10 m 0
 141 -10 70 54 70 155 c 0
 70 255 140 317 251 317 c 2
 426 317 l 1
 426 375 l 2
 426 448 381 490 303 490 c 0
 234 490 186 457 177 405 c 1
 97 405 l 1
 110 499 192 560 305 560 c 0
 427 560 505 489 505 377 c 2
 505 0 l 1
 427 0 l 1
 427 101 l 1
 416 32 351 -10 257 -10 c 0
276 54 m 0
 364 54 426 103 426 173 c 2
 426 256 l 1
 252 256 l 2
 189 256 149 219 149 159 c 0
 149 94 197 54 276 54 c 0
EndSplineSet
Validated: 1048577
EndChar

StartChar: atilde
Encoding: 227 227 202
Width: 600
GlyphClass: 2
Flags: W
AnchorPoint: "Anchor-3" 464 0 basechar 0
AnchorPoint: "Anchor-2" 305 0 basechar 0
AnchorPoint: "Anchor-0" 305 550 basechar 0
LayerCount: 2
Fore
SplineSet
376 650 m 0
 298 650 285 726 239 726 c 0
 217 726 203 712 203 686 c 2
 203 655 l 1
 145 655 l 1
 145 686 l 2
 145 745 180 780 235 780 c 0
 314 780 327 704 373 704 c 0
 393 704 407 718 407 744 c 2
 407 775 l 1
 465 775 l 1
 465 744 l 2
 465 685 430 650 376 650 c 0
257 -10 m 0
 141 -10 70 54 70 155 c 0
 70 255 140 317 251 317 c 2
 426 317 l 1
 426 375 l 2
 426 448 381 490 303 490 c 0
 234 490 186 457 177 405 c 1
 97 405 l 1
 110 499 192 560 305 560 c 0
 427 560 505 489 505 377 c 2
 505 0 l 1
 427 0 l 1
 427 101 l 1
 416 32 351 -10 257 -10 c 0
276 54 m 0
 364 54 426 103 426 173 c 2
 426 256 l 1
 252 256 l 2
 189 256 149 219 149 159 c 0
 149 94 197 54 276 54 c 0
EndSplineSet
Validated: 1048577
EndChar

StartChar: ae
Encoding: 230 230 203
Width: 600
GlyphClass: 2
Flags: W
AnchorPoint: "Anchor-0" 300 550 basechar 0
LayerCount: 2
Fore
SplineSet
171 -10 m 0
 88 -10 36 46 36 132 c 2
 36 189 l 2
 36 270 93 322 183 322 c 2
 266 322 l 1
 266 402 l 2
 266 461 240 492 192 492 c 0
 150 492 122 463 121 421 c 1
 45 421 l 1
 47 505 100 560 180 560 c 0
 258 560 295 513 301 478 c 1
 305 478 l 1
 312 513 348 560 421 560 c 0
 509 560 564 499 564 403 c 2
 564 258 l 1
 339 258 l 1
 339 147 l 2
 339 94 369 58 413 58 c 0
 459 58 487 86 488 129 c 1
 564 129 l 1
 562 45 507 -10 422 -10 c 0
 346 -10 310 37 305 71 c 1
 301 71 l 1
 295 37 255 -10 171 -10 c 0
339 322 m 1
 488 322 l 1
 488 403 l 2
 488 455 459 492 413 492 c 0
 367 492 339 455 339 403 c 2
 339 322 l 1
188 58 m 0
 234 58 266 94 266 147 c 2
 266 258 l 1
 185 258 l 2
 142 258 116 231 116 189 c 2
 116 132 l 2
 116 87 144 58 188 58 c 0
EndSplineSet
Validated: 1048577
EndChar

StartChar: aeacute
Encoding: 509 509 204
Width: 600
GlyphClass: 2
Flags: W
AnchorPoint: "Anchor-0" 300 550 basechar 0
LayerCount: 2
Fore
SplineSet
251 645 m 1
 357 785 l 1
 443 785 l 1
 332 645 l 1
 251 645 l 1
171 -10 m 0
 88 -10 36 46 36 132 c 2
 36 189 l 2
 36 270 93 322 183 322 c 2
 266 322 l 1
 266 402 l 2
 266 461 240 492 192 492 c 0
 150 492 122 463 121 421 c 1
 45 421 l 1
 47 505 100 560 180 560 c 0
 258 560 295 513 301 478 c 1
 305 478 l 1
 312 513 348 560 421 560 c 0
 509 560 564 499 564 403 c 2
 564 258 l 1
 339 258 l 1
 339 147 l 2
 339 94 369 58 413 58 c 0
 459 58 487 86 488 129 c 1
 564 129 l 1
 562 45 507 -10 422 -10 c 0
 346 -10 310 37 305 71 c 1
 301 71 l 1
 295 37 255 -10 171 -10 c 0
339 322 m 1
 488 322 l 1
 488 403 l 2
 488 455 459 492 413 492 c 0
 367 492 339 455 339 403 c 2
 339 322 l 1
188 58 m 0
 234 58 266 94 266 147 c 2
 266 258 l 1
 185 258 l 2
 142 258 116 231 116 189 c 2
 116 132 l 2
 116 87 144 58 188 58 c 0
EndSplineSet
Validated: 1048577
EndChar

StartChar: b
Encoding: 98 98 205
Width: 600
GlyphClass: 2
Flags: W
AnchorPoint: "Anchor-2" 300 0 basechar 0
AnchorPoint: "Anchor-0" 300 730 basechar 0
LayerCount: 2
Fore
SplineSet
327 -10 m 0
 247 -10 190 30 177 97 c 1
 176 97 l 1
 176 0 l 1
 97 0 l 1
 97 730 l 1
 176 730 l 1
 176 573 l 1
 175 453 l 1
 177 453 l 1
 191 519 248 560 327 560 c 0
 438 560 510 481 510 356 c 2
 510 193 l 2
 510 68 437 -10 327 -10 c 0
302 59 m 0
 382 59 430 109 430 197 c 2
 430 353 l 2
 430 441 382 491 302 491 c 0
 224 491 176 440 176 353 c 2
 176 197 l 2
 176 110 224 59 302 59 c 0
EndSplineSet
Validated: 1048577
EndChar

StartChar: c
Encoding: 99 99 206
Width: 600
GlyphClass: 2
Flags: W
AnchorPoint: "Anchor-2" 303 0 basechar 0
AnchorPoint: "Anchor-0" 303 550 basechar 0
LayerCount: 2
Fore
SplineSet
303 -10 m 0
 174 -10 90 69 90 197 c 2
 90 353 l 2
 90 481 174 560 303 560 c 0
 429 560 510 487 513 370 c 1
 434 370 l 1
 431 445 382 489 303 489 c 0
 221 489 170 439 170 353 c 2
 170 197 l 2
 170 111 221 61 303 61 c 0
 382 61 431 105 434 180 c 1
 513 180 l 1
 510 63 429 -10 303 -10 c 0
EndSplineSet
Validated: 1048577
EndChar

StartChar: cacute
Encoding: 263 263 207
Width: 600
GlyphClass: 2
Flags: W
AnchorPoint: "Anchor-2" 303 0 basechar 0
AnchorPoint: "Anchor-0" 303 550 basechar 0
LayerCount: 2
Fore
SplineSet
254 645 m 1
 360 785 l 1
 447 785 l 1
 336 645 l 1
 254 645 l 1
303 -10 m 0
 174 -10 90 69 90 197 c 2
 90 353 l 2
 90 481 174 560 303 560 c 0
 429 560 510 487 513 370 c 1
 434 370 l 1
 431 445 382 489 303 489 c 0
 221 489 170 439 170 353 c 2
 170 197 l 2
 170 111 221 61 303 61 c 0
 382 61 431 105 434 180 c 1
 513 180 l 1
 510 63 429 -10 303 -10 c 0
EndSplineSet
Validated: 1048577
EndChar

StartChar: ccaron
Encoding: 269 269 208
Width: 600
GlyphClass: 2
Flags: W
AnchorPoint: "Anchor-2" 303 0 basechar 0
AnchorPoint: "Anchor-0" 303 550 basechar 0
LayerCount: 2
Fore
SplineSet
265 645 m 1
 131 785 l 1
 217 785 l 1
 304 699 l 1
 389 785 l 1
 476 785 l 1
 342 645 l 1
 265 645 l 1
303 -10 m 0
 174 -10 90 69 90 197 c 2
 90 353 l 2
 90 481 174 560 303 560 c 0
 429 560 510 487 513 370 c 1
 434 370 l 1
 431 445 382 489 303 489 c 0
 221 489 170 439 170 353 c 2
 170 197 l 2
 170 111 221 61 303 61 c 0
 382 61 431 105 434 180 c 1
 513 180 l 1
 510 63 429 -10 303 -10 c 0
EndSplineSet
Validated: 1048577
EndChar

StartChar: ccedilla
Encoding: 231 231 209
Width: 600
GlyphClass: 2
Flags: W
AnchorPoint: "Anchor-2" 303 0 basechar 0
AnchorPoint: "Anchor-0" 303 550 basechar 0
LayerCount: 2
Fore
SplineSet
210 -201 m 1
 210 -151 l 1
 282 -151 l 2
 312 -151 333 -133 333 -114 c 0
 333 -88 292 -68 224 -68 c 1
 248 -5 l 1
 150 15 90 88 90 197 c 2
 90 353 l 2
 90 481 174 560 303 560 c 0
 429 560 510 487 513 370 c 1
 434 370 l 1
 431 445 382 489 303 489 c 0
 221 489 170 439 170 353 c 2
 170 197 l 2
 170 111 221 61 303 61 c 0
 382 61 431 105 434 180 c 1
 513 180 l 1
 510 63 429 -10 303 -10 c 0
 302 -10 301 -10 300 -10 c 2
 291 -35 l 1
 341 -40 408 -66 408 -119 c 0
 408 -165 362 -201 293 -201 c 2
 210 -201 l 1
EndSplineSet
Validated: 1048577
EndChar

StartChar: ccircumflex
Encoding: 265 265 210
Width: 600
GlyphClass: 2
Flags: W
AnchorPoint: "Anchor-2" 303 0 basechar 0
AnchorPoint: "Anchor-0" 303 550 basechar 0
LayerCount: 2
Fore
SplineSet
131 645 m 1
 265 785 l 1
 342 785 l 1
 476 645 l 1
 391 645 l 1
 303 731 l 1
 218 645 l 1
 131 645 l 1
303 -10 m 0
 174 -10 90 69 90 197 c 2
 90 353 l 2
 90 481 174 560 303 560 c 0
 429 560 510 487 513 370 c 1
 434 370 l 1
 431 445 382 489 303 489 c 0
 221 489 170 439 170 353 c 2
 170 197 l 2
 170 111 221 61 303 61 c 0
 382 61 431 105 434 180 c 1
 513 180 l 1
 510 63 429 -10 303 -10 c 0
EndSplineSet
Validated: 1048577
EndChar

StartChar: cdotaccent
Encoding: 267 267 211
Width: 600
GlyphClass: 2
Flags: W
AnchorPoint: "Anchor-2" 303 0 basechar 0
AnchorPoint: "Anchor-0" 303 550 basechar 0
LayerCount: 2
Fore
SplineSet
303 651 m 0
 262 651 236 674 236 711 c 0
 236 750 262 774 303 774 c 0
 345 774 371 750 371 711 c 0
 371 674 345 651 303 651 c 0
303 -10 m 0
 174 -10 90 69 90 197 c 2
 90 353 l 2
 90 481 174 560 303 560 c 0
 429 560 510 487 513 370 c 1
 434 370 l 1
 431 445 382 489 303 489 c 0
 221 489 170 439 170 353 c 2
 170 197 l 2
 170 111 221 61 303 61 c 0
 382 61 431 105 434 180 c 1
 513 180 l 1
 510 63 429 -10 303 -10 c 0
EndSplineSet
Validated: 1048577
EndChar

StartChar: d
Encoding: 100 100 212
Width: 600
Flags: W
LayerCount: 2
Fore
SplineSet
273 -10 m 0
 163 -10 90 68 90 193 c 2
 90 356 l 2
 90 481 162 560 273 560 c 0
 352 560 409 519 423 453 c 1
 425 453 l 1
 424 573 l 1
 424 730 l 1
 503 730 l 1
 503 0 l 1
 424 0 l 1
 424 97 l 1
 423 97 l 1
 410 30 353 -10 273 -10 c 0
298 59 m 0
 376 59 424 110 424 197 c 2
 424 353 l 2
 424 440 376 491 298 491 c 0
 218 491 170 441 170 353 c 2
 170 197 l 2
 170 109 218 59 298 59 c 0
EndSplineSet
Validated: 1
EndChar

StartChar: eth
Encoding: 240 240 213
Width: 600
Flags: W
LayerCount: 2
Fore
SplineSet
299 -10 m 0
 163 -10 73 80 73 215 c 0
 73 349 156 436 283 436 c 0
 345 436 391 399 408 371 c 1
 419 371 l 1
 413 386 390 427 348 483 c 2
 281 577 l 1
 117 500 l 1
 117 570 l 1
 244 629 l 1
 170 730 l 1
 264 730 l 1
 312 660 l 1
 461 730 l 1
 461 660 l 1
 349 608 l 1
 424 499 l 2
 490 406 527 306 527 220 c 0
 527 82 437 -10 299 -10 c 0
299 62 m 0
 388 62 447 123 447 215 c 0
 447 306 387 368 299 368 c 0
 211 368 153 307 153 215 c 0
 153 123 211 62 299 62 c 0
EndSplineSet
Validated: 1
EndChar

StartChar: dcaron
Encoding: 271 271 214
Width: 600
Flags: W
LayerCount: 2
Fore
SplineSet
510 550 m 1
 513 730 l 1
 592 730 l 1
 581 550 l 1
 510 550 l 1
237 -10 m 0
 135 -10 70 67 70 189 c 2
 70 360 l 2
 70 483 135 560 237 560 c 0
 311 560 362 519 374 453 c 1
 376 453 l 1
 374 573 l 1
 374 730 l 1
 454 730 l 1
 454 0 l 1
 374 0 l 1
 374 97 l 1
 362 31 311 -10 237 -10 c 0
262 59 m 0
 332 59 374 109 374 193 c 2
 374 356 l 2
 374 441 332 491 262 491 c 0
 192 491 150 441 150 356 c 2
 150 193 l 2
 150 109 192 59 262 59 c 0
EndSplineSet
Validated: 1
EndChar

StartChar: dcroat
Encoding: 273 273 215
Width: 600
Flags: W
LayerCount: 2
Fore
SplineSet
273 -10 m 0
 163 -10 94 68 94 193 c 2
 94 296 l 2
 94 421 162 500 273 500 c 0
 352 500 408 459 422 393 c 1
 424 393 l 1
 422 513 l 1
 422 574 l 1
 253 574 l 1
 253 641 l 1
 422 641 l 1
 422 730 l 1
 502 730 l 1
 502 641 l 1
 597 641 l 1
 597 574 l 1
 502 574 l 1
 502 0 l 1
 422 0 l 1
 422 97 l 1
 408 30 353 -10 273 -10 c 0
298 59 m 0
 376 59 422 110 422 197 c 2
 422 293 l 2
 422 380 376 431 298 431 c 0
 218 431 173 381 173 293 c 2
 173 197 l 2
 173 109 218 59 298 59 c 0
EndSplineSet
Validated: 1
EndChar

StartChar: e
Encoding: 101 101 216
Width: 600
GlyphClass: 2
Flags: W
AnchorPoint: "Anchor-3" 351 0 basechar 0
AnchorPoint: "Anchor-2" 300 0 basechar 0
AnchorPoint: "Anchor-0" 300 550 basechar 0
LayerCount: 2
Fore
SplineSet
300 -10 m 0
 172 -10 90 72 90 197 c 2
 90 353 l 2
 90 478 172 560 300 560 c 0
 428 560 510 478 510 353 c 2
 510 256 l 1
 168 256 l 1
 168 197 l 2
 168 108 215 57 300 57 c 0
 371 57 416 86 429 139 c 1
 508 139 l 1
 494 47 413 -10 300 -10 c 0
168 318 m 1
 432 318 l 1
 432 353 l 2
 432 442 385 493 300 493 c 0
 215 493 168 442 168 353 c 2
 168 318 l 1
EndSplineSet
Validated: 1048577
EndChar

StartChar: eacute
Encoding: 233 233 217
Width: 600
GlyphClass: 2
Flags: W
AnchorPoint: "Anchor-3" 351 0 basechar 0
AnchorPoint: "Anchor-2" 300 0 basechar 0
AnchorPoint: "Anchor-0" 300 550 basechar 0
LayerCount: 2
Fore
SplineSet
251 645 m 1
 357 785 l 1
 443 785 l 1
 332 645 l 1
 251 645 l 1
300 -10 m 0
 172 -10 90 72 90 197 c 2
 90 353 l 2
 90 478 172 560 300 560 c 0
 428 560 510 478 510 353 c 2
 510 256 l 1
 168 256 l 1
 168 197 l 2
 168 108 215 57 300 57 c 0
 371 57 416 86 429 139 c 1
 508 139 l 1
 494 47 413 -10 300 -10 c 0
168 318 m 1
 432 318 l 1
 432 353 l 2
 432 442 385 493 300 493 c 0
 215 493 168 442 168 353 c 2
 168 318 l 1
EndSplineSet
Validated: 1048577
EndChar

StartChar: ebreve
Encoding: 277 277 218
Width: 600
GlyphClass: 2
Flags: W
AnchorPoint: "Anchor-3" 351 0 basechar 0
AnchorPoint: "Anchor-2" 300 0 basechar 0
AnchorPoint: "Anchor-0" 300 550 basechar 0
LayerCount: 2
Fore
SplineSet
300 641 m 0
 206 641 144 698 144 785 c 1
 208 785 l 1
 208 730 244 694 299 694 c 0
 355 694 392 730 392 785 c 1
 456 785 l 1
 456 698 394 641 300 641 c 0
300 -10 m 0
 172 -10 90 72 90 197 c 2
 90 353 l 2
 90 478 172 560 300 560 c 0
 428 560 510 478 510 353 c 2
 510 256 l 1
 168 256 l 1
 168 197 l 2
 168 108 215 57 300 57 c 0
 371 57 416 86 429 139 c 1
 508 139 l 1
 494 47 413 -10 300 -10 c 0
168 318 m 1
 432 318 l 1
 432 353 l 2
 432 442 385 493 300 493 c 0
 215 493 168 442 168 353 c 2
 168 318 l 1
EndSplineSet
Validated: 1048577
EndChar

StartChar: ecaron
Encoding: 283 283 219
Width: 600
GlyphClass: 2
Flags: W
AnchorPoint: "Anchor-3" 351 0 basechar 0
AnchorPoint: "Anchor-2" 300 0 basechar 0
AnchorPoint: "Anchor-0" 300 550 basechar 0
LayerCount: 2
Fore
SplineSet
262 645 m 1
 127 785 l 1
 213 785 l 1
 301 699 l 1
 386 785 l 1
 473 785 l 1
 339 645 l 1
 262 645 l 1
300 -10 m 0
 172 -10 90 72 90 197 c 2
 90 353 l 2
 90 478 172 560 300 560 c 0
 428 560 510 478 510 353 c 2
 510 256 l 1
 168 256 l 1
 168 197 l 2
 168 108 215 57 300 57 c 0
 371 57 416 86 429 139 c 1
 508 139 l 1
 494 47 413 -10 300 -10 c 0
168 318 m 1
 432 318 l 1
 432 353 l 2
 432 442 385 493 300 493 c 0
 215 493 168 442 168 353 c 2
 168 318 l 1
EndSplineSet
Validated: 1048577
EndChar

StartChar: ecircumflex
Encoding: 234 234 220
Width: 600
GlyphClass: 2
Flags: W
AnchorPoint: "Anchor-3" 351 0 basechar 0
AnchorPoint: "Anchor-2" 300 0 basechar 0
AnchorPoint: "Anchor-0" 300 550 basechar 0
LayerCount: 2
Fore
SplineSet
127 645 m 1
 261 785 l 1
 338 785 l 1
 473 645 l 1
 387 645 l 1
 300 731 l 1
 215 645 l 1
 127 645 l 1
300 -10 m 0
 172 -10 90 72 90 197 c 2
 90 353 l 2
 90 478 172 560 300 560 c 0
 428 560 510 478 510 353 c 2
 510 256 l 1
 168 256 l 1
 168 197 l 2
 168 108 215 57 300 57 c 0
 371 57 416 86 429 139 c 1
 508 139 l 1
 494 47 413 -10 300 -10 c 0
168 318 m 1
 432 318 l 1
 432 353 l 2
 432 442 385 493 300 493 c 0
 215 493 168 442 168 353 c 2
 168 318 l 1
EndSplineSet
Validated: 1048577
EndChar

StartChar: uni1EBF
Encoding: 7871 7871 221
Width: 600
GlyphClass: 2
Flags: W
AnchorPoint: "Anchor-3" 351 0 basechar 0
AnchorPoint: "Anchor-2" 300 0 basechar 0
AnchorPoint: "Anchor-0" 300 550 basechar 0
LayerCount: 2
Fore
SplineSet
409 760 m 1
 524 900 l 1
 613 900 l 1
 492 760 l 1
 409 760 l 1
128 645 m 1
 261 785 l 1
 339 785 l 1
 473 645 l 1
 386 645 l 1
 300 731 l 1
 214 645 l 1
 128 645 l 1
300 -10 m 0
 172 -10 90 72 90 197 c 2
 90 353 l 2
 90 478 172 560 300 560 c 0
 428 560 510 478 510 353 c 2
 510 256 l 1
 168 256 l 1
 168 197 l 2
 168 108 215 57 300 57 c 0
 371 57 416 86 429 139 c 1
 508 139 l 1
 494 47 413 -10 300 -10 c 0
168 318 m 1
 432 318 l 1
 432 353 l 2
 432 442 385 493 300 493 c 0
 215 493 168 442 168 353 c 2
 168 318 l 1
EndSplineSet
Validated: 1048577
EndChar

StartChar: uni1EC7
Encoding: 7879 7879 222
Width: 600
GlyphClass: 2
Flags: W
AnchorPoint: "Anchor-3" 351 0 basechar 0
AnchorPoint: "Anchor-2" 300 0 basechar 0
AnchorPoint: "Anchor-0" 300 550 basechar 0
LayerCount: 2
Fore
SplineSet
127 645 m 1
 261 785 l 1
 338 785 l 1
 473 645 l 1
 387 645 l 1
 300 731 l 1
 215 645 l 1
 127 645 l 1
300 -10 m 0
 172 -10 90 72 90 197 c 2
 90 353 l 2
 90 478 172 560 300 560 c 0
 428 560 510 478 510 353 c 2
 510 256 l 1
 168 256 l 1
 168 197 l 2
 168 108 215 57 300 57 c 0
 371 57 416 86 429 139 c 1
 508 139 l 1
 494 47 413 -10 300 -10 c 0
168 318 m 1
 432 318 l 1
 432 353 l 2
 432 442 385 493 300 493 c 0
 215 493 168 442 168 353 c 2
 168 318 l 1
300 -211 m 0
 258 -211 232 -187 232 -150 c 0
 232 -112 258 -88 300 -88 c 0
 342 -88 368 -112 368 -150 c 0
 368 -187 342 -211 300 -211 c 0
EndSplineSet
Validated: 1048577
EndChar

StartChar: uni1EC1
Encoding: 7873 7873 223
Width: 600
GlyphClass: 2
Flags: W
AnchorPoint: "Anchor-3" 351 0 basechar 0
AnchorPoint: "Anchor-2" 300 0 basechar 0
AnchorPoint: "Anchor-0" 300 550 basechar 0
LayerCount: 2
Fore
SplineSet
451 760 m 1
 322 900 l 1
 411 900 l 1
 534 760 l 1
 451 760 l 1
128 645 m 1
 261 785 l 1
 339 785 l 1
 473 645 l 1
 386 645 l 1
 300 731 l 1
 214 645 l 1
 128 645 l 1
300 -10 m 0
 172 -10 90 72 90 197 c 2
 90 353 l 2
 90 478 172 560 300 560 c 0
 428 560 510 478 510 353 c 2
 510 256 l 1
 168 256 l 1
 168 197 l 2
 168 108 215 57 300 57 c 0
 371 57 416 86 429 139 c 1
 508 139 l 1
 494 47 413 -10 300 -10 c 0
168 318 m 1
 432 318 l 1
 432 353 l 2
 432 442 385 493 300 493 c 0
 215 493 168 442 168 353 c 2
 168 318 l 1
EndSplineSet
Validated: 1048577
EndChar

StartChar: uni1EC3
Encoding: 7875 7875 224
Width: 600
GlyphClass: 2
Flags: W
AnchorPoint: "Anchor-3" 351 0 basechar 0
AnchorPoint: "Anchor-2" 300 0 basechar 0
AnchorPoint: "Anchor-0" 300 550 basechar 0
LayerCount: 2
Fore
SplineSet
423 760 m 1
 469 822 l 2
 477 833 481 842 481 850 c 0
 481 866 468 876 448 876 c 2
 391 876 l 1
 391 929 l 1
 451 929 l 2
 508 929 545 901 545 859 c 0
 545 842 538 827 525 809 c 2
 490 760 l 1
 423 760 l 1
128 645 m 1
 261 785 l 1
 339 785 l 1
 473 645 l 1
 386 645 l 1
 300 731 l 1
 214 645 l 1
 128 645 l 1
300 -10 m 0
 172 -10 90 72 90 197 c 2
 90 353 l 2
 90 478 172 560 300 560 c 0
 428 560 510 478 510 353 c 2
 510 256 l 1
 168 256 l 1
 168 197 l 2
 168 108 215 57 300 57 c 0
 371 57 416 86 429 139 c 1
 508 139 l 1
 494 47 413 -10 300 -10 c 0
168 318 m 1
 432 318 l 1
 432 353 l 2
 432 442 385 493 300 493 c 0
 215 493 168 442 168 353 c 2
 168 318 l 1
EndSplineSet
Validated: 1048577
EndChar

StartChar: uni1EC5
Encoding: 7877 7877 225
Width: 600
GlyphClass: 2
Flags: W
AnchorPoint: "Anchor-3" 351 0 basechar 0
AnchorPoint: "Anchor-2" 300 0 basechar 0
AnchorPoint: "Anchor-0" 300 550 basechar 0
LayerCount: 2
Fore
SplineSet
367 813 m 0
 285 813 281 878 235 878 c 0
 214 878 202 867 202 845 c 2
 202 820 l 1
 144 820 l 1
 144 841 l 2
 144 894 179 927 234 927 c 0
 317 927 320 862 366 862 c 0
 387 862 398 874 398 895 c 2
 398 920 l 1
 456 920 l 1
 456 899 l 2
 456 846 421 813 367 813 c 0
128 645 m 1
 261 785 l 1
 339 785 l 1
 473 645 l 1
 386 645 l 1
 300 731 l 1
 214 645 l 1
 128 645 l 1
300 -10 m 0
 172 -10 90 72 90 197 c 2
 90 353 l 2
 90 478 172 560 300 560 c 0
 428 560 510 478 510 353 c 2
 510 256 l 1
 168 256 l 1
 168 197 l 2
 168 108 215 57 300 57 c 0
 371 57 416 86 429 139 c 1
 508 139 l 1
 494 47 413 -10 300 -10 c 0
168 318 m 1
 432 318 l 1
 432 353 l 2
 432 442 385 493 300 493 c 0
 215 493 168 442 168 353 c 2
 168 318 l 1
EndSplineSet
Validated: 1048577
EndChar

StartChar: edieresis
Encoding: 235 235 226
Width: 600
GlyphClass: 2
Flags: W
AnchorPoint: "Anchor-3" 351 0 basechar 0
AnchorPoint: "Anchor-2" 300 0 basechar 0
AnchorPoint: "Anchor-0" 300 550 basechar 0
LayerCount: 2
Fore
SplineSet
410 651 m 0
 373 651 349 674 349 711 c 0
 349 750 373 774 410 774 c 0
 447 774 471 750 471 711 c 0
 471 674 447 651 410 651 c 0
190 651 m 0
 153 651 129 674 129 711 c 0
 129 750 153 774 190 774 c 0
 227 774 251 750 251 711 c 0
 251 674 227 651 190 651 c 0
300 -10 m 0
 172 -10 90 72 90 197 c 2
 90 353 l 2
 90 478 172 560 300 560 c 0
 428 560 510 478 510 353 c 2
 510 256 l 1
 168 256 l 1
 168 197 l 2
 168 108 215 57 300 57 c 0
 371 57 416 86 429 139 c 1
 508 139 l 1
 494 47 413 -10 300 -10 c 0
168 318 m 1
 432 318 l 1
 432 353 l 2
 432 442 385 493 300 493 c 0
 215 493 168 442 168 353 c 2
 168 318 l 1
EndSplineSet
Validated: 1048577
EndChar

StartChar: edotaccent
Encoding: 279 279 227
Width: 600
GlyphClass: 2
Flags: W
AnchorPoint: "Anchor-3" 351 0 basechar 0
AnchorPoint: "Anchor-2" 300 0 basechar 0
AnchorPoint: "Anchor-0" 300 550 basechar 0
LayerCount: 2
Fore
SplineSet
300 651 m 0
 258 651 232 674 232 711 c 0
 232 750 258 774 300 774 c 0
 342 774 368 750 368 711 c 0
 368 674 342 651 300 651 c 0
300 -10 m 0
 172 -10 90 72 90 197 c 2
 90 353 l 2
 90 478 172 560 300 560 c 0
 428 560 510 478 510 353 c 2
 510 256 l 1
 168 256 l 1
 168 197 l 2
 168 108 215 57 300 57 c 0
 371 57 416 86 429 139 c 1
 508 139 l 1
 494 47 413 -10 300 -10 c 0
168 318 m 1
 432 318 l 1
 432 353 l 2
 432 442 385 493 300 493 c 0
 215 493 168 442 168 353 c 2
 168 318 l 1
EndSplineSet
Validated: 1048577
EndChar

StartChar: uni1EB9
Encoding: 7865 7865 228
Width: 600
GlyphClass: 2
Flags: W
AnchorPoint: "Anchor-3" 351 0 basechar 0
AnchorPoint: "Anchor-2" 300 0 basechar 0
AnchorPoint: "Anchor-0" 300 550 basechar 0
LayerCount: 2
Fore
SplineSet
300 -10 m 0
 172 -10 90 72 90 197 c 2
 90 353 l 2
 90 478 172 560 300 560 c 0
 428 560 510 478 510 353 c 2
 510 256 l 1
 168 256 l 1
 168 197 l 2
 168 108 215 57 300 57 c 0
 371 57 416 86 429 139 c 1
 508 139 l 1
 494 47 413 -10 300 -10 c 0
168 318 m 1
 432 318 l 1
 432 353 l 2
 432 442 385 493 300 493 c 0
 215 493 168 442 168 353 c 2
 168 318 l 1
300 -211 m 0
 258 -211 232 -187 232 -150 c 0
 232 -112 258 -88 300 -88 c 0
 342 -88 368 -112 368 -150 c 0
 368 -187 342 -211 300 -211 c 0
EndSplineSet
Validated: 1048577
EndChar

StartChar: egrave
Encoding: 232 232 229
Width: 600
GlyphClass: 2
Flags: W
AnchorPoint: "Anchor-3" 351 0 basechar 0
AnchorPoint: "Anchor-2" 300 0 basechar 0
AnchorPoint: "Anchor-0" 300 550 basechar 0
LayerCount: 2
Fore
SplineSet
271 645 m 1
 157 785 l 1
 247 785 l 1
 356 645 l 1
 271 645 l 1
300 -10 m 0
 172 -10 90 72 90 197 c 2
 90 353 l 2
 90 478 172 560 300 560 c 0
 428 560 510 478 510 353 c 2
 510 256 l 1
 168 256 l 1
 168 197 l 2
 168 108 215 57 300 57 c 0
 371 57 416 86 429 139 c 1
 508 139 l 1
 494 47 413 -10 300 -10 c 0
168 318 m 1
 432 318 l 1
 432 353 l 2
 432 442 385 493 300 493 c 0
 215 493 168 442 168 353 c 2
 168 318 l 1
EndSplineSet
Validated: 1048577
EndChar

StartChar: uni1EBB
Encoding: 7867 7867 230
Width: 600
GlyphClass: 2
Flags: W
AnchorPoint: "Anchor-3" 351 0 basechar 0
AnchorPoint: "Anchor-2" 300 0 basechar 0
AnchorPoint: "Anchor-0" 300 550 basechar 0
LayerCount: 2
Fore
SplineSet
262 645 m 1
 314 711 l 2
 323 724 329 735 329 745 c 0
 329 759 318 767 295 767 c 2
 213 767 l 1
 213 824 l 1
 314 824 l 2
 364 824 397 797 397 754 c 0
 397 735 390 715 379 700 c 2
 338 645 l 1
 262 645 l 1
300 -10 m 0
 172 -10 90 72 90 197 c 2
 90 353 l 2
 90 478 172 560 300 560 c 0
 428 560 510 478 510 353 c 2
 510 256 l 1
 168 256 l 1
 168 197 l 2
 168 108 215 57 300 57 c 0
 371 57 416 86 429 139 c 1
 508 139 l 1
 494 47 413 -10 300 -10 c 0
168 318 m 1
 432 318 l 1
 432 353 l 2
 432 442 385 493 300 493 c 0
 215 493 168 442 168 353 c 2
 168 318 l 1
EndSplineSet
Validated: 1048577
EndChar

StartChar: emacron
Encoding: 275 275 231
Width: 600
GlyphClass: 2
Flags: W
AnchorPoint: "Anchor-3" 351 0 basechar 0
AnchorPoint: "Anchor-2" 300 0 basechar 0
AnchorPoint: "Anchor-0" 300 550 basechar 0
LayerCount: 2
Fore
SplineSet
145 674 m 1
 145 740 l 1
 455 740 l 1
 455 674 l 1
 145 674 l 1
300 -10 m 0
 172 -10 90 72 90 197 c 2
 90 353 l 2
 90 478 172 560 300 560 c 0
 428 560 510 478 510 353 c 2
 510 256 l 1
 168 256 l 1
 168 197 l 2
 168 108 215 57 300 57 c 0
 371 57 416 86 429 139 c 1
 508 139 l 1
 494 47 413 -10 300 -10 c 0
168 318 m 1
 432 318 l 1
 432 353 l 2
 432 442 385 493 300 493 c 0
 215 493 168 442 168 353 c 2
 168 318 l 1
EndSplineSet
Validated: 1048577
EndChar

StartChar: eogonek
Encoding: 281 281 232
Width: 600
GlyphClass: 2
Flags: W
AnchorPoint: "Anchor-0" 300 550 basechar 0
LayerCount: 2
Fore
SplineSet
374 -201 m 2
 305 -201 261 -164 261 -111 c 0
 261 -81 280 -46 321 -9 c 1
 314 -9 307 -10 300 -10 c 0
 172 -10 93 72 93 197 c 2
 93 353 l 2
 93 478 172 560 300 560 c 0
 428 560 507 478 507 353 c 2
 507 256 l 1
 170 256 l 1
 170 197 l 2
 170 108 215 57 300 57 c 0
 371 57 414 86 426 139 c 1
 506 139 l 1
 498 84 466 42 418 17 c 1
 399 1 l 2
 356 -36 335 -68 335 -96 c 0
 335 -125 356 -146 389 -146 c 2
 450 -146 l 1
 450 -201 l 1
 374 -201 l 2
170 318 m 1
 430 318 l 1
 430 353 l 2
 430 442 385 493 300 493 c 0
 215 493 170 442 170 353 c 2
 170 318 l 1
EndSplineSet
Validated: 1048577
EndChar

StartChar: uni1EBD
Encoding: 7869 7869 233
Width: 600
GlyphClass: 2
Flags: W
AnchorPoint: "Anchor-3" 351 0 basechar 0
AnchorPoint: "Anchor-2" 300 0 basechar 0
AnchorPoint: "Anchor-0" 300 550 basechar 0
LayerCount: 2
Fore
SplineSet
371 650 m 0
 293 650 280 726 234 726 c 0
 212 726 198 712 198 686 c 2
 198 655 l 1
 140 655 l 1
 140 686 l 2
 140 745 175 780 230 780 c 0
 309 780 322 704 368 704 c 0
 388 704 402 718 402 744 c 2
 402 775 l 1
 460 775 l 1
 460 744 l 2
 460 685 425 650 371 650 c 0
300 -10 m 0
 172 -10 90 72 90 197 c 2
 90 353 l 2
 90 478 172 560 300 560 c 0
 428 560 510 478 510 353 c 2
 510 256 l 1
 168 256 l 1
 168 197 l 2
 168 108 215 57 300 57 c 0
 371 57 416 86 429 139 c 1
 508 139 l 1
 494 47 413 -10 300 -10 c 0
168 318 m 1
 432 318 l 1
 432 353 l 2
 432 442 385 493 300 493 c 0
 215 493 168 442 168 353 c 2
 168 318 l 1
EndSplineSet
Validated: 1048577
EndChar

StartChar: uni0259
Encoding: 601 601 234
Width: 600
Flags: W
LayerCount: 2
Fore
SplineSet
300 -10 m 0
 172 -10 94 72 94 197 c 2
 94 294 l 1
 428 294 l 1
 428 353 l 2
 428 442 385 493 300 493 c 0
 229 493 187 464 175 411 c 1
 96 411 l 1
 110 503 187 560 300 560 c 0
 428 560 506 478 506 353 c 2
 506 197 l 2
 506 72 428 -10 300 -10 c 0
300 57 m 0
 385 57 428 108 428 197 c 2
 428 232 l 1
 172 232 l 1
 172 197 l 2
 172 108 215 57 300 57 c 0
EndSplineSet
Validated: 1
EndChar

StartChar: f
Encoding: 102 102 235
Width: 600
Flags: W
LayerCount: 2
Fore
SplineSet
225 0 m 1
 225 423 l 1
 63 423 l 1
 63 495 l 1
 225 495 l 1
 225 594 l 2
 225 679 281 730 373 730 c 2
 532 730 l 1
 532 658 l 1
 373 658 l 2
 329 658 305 635 305 594 c 2
 305 495 l 1
 532 495 l 1
 532 423 l 1
 305 423 l 1
 305 0 l 1
 225 0 l 1
EndSplineSet
Validated: 1
EndChar

StartChar: g
Encoding: 103 103 236
Width: 600
GlyphClass: 2
Flags: W
AnchorPoint: "Anchor-0" 297 550 basechar 0
LayerCount: 2
Fore
SplineSet
164 -180 m 1
 164 -108 l 1
 331 -108 l 2
 394 -108 423 -79 423 -19 c 2
 423 45 l 1
 425 149 l 1
 424 149 l 1
 414 79 357 36 275 36 c 0
 163 36 93 115 93 240 c 2
 93 357 l 2
 93 481 163 560 275 560 c 0
 357 560 413 518 424 449 c 1
 424 550 l 1
 502 550 l 1
 502 -19 l 2
 502 -120 440 -180 331 -180 c 2
 164 -180 l 1
298 105 m 0
 376 105 424 156 424 243 c 2
 424 353 l 2
 424 440 376 491 298 491 c 0
 218 491 172 441 172 353 c 2
 172 243 l 2
 172 155 218 105 298 105 c 0
EndSplineSet
Validated: 1048577
EndChar

StartChar: uni01F5
Encoding: 501 501 237
Width: 600
GlyphClass: 2
Flags: W
AnchorPoint: "Anchor-0" 297 550 basechar 0
LayerCount: 2
Fore
SplineSet
248 645 m 1
 354 785 l 1
 440 785 l 1
 329 645 l 1
 248 645 l 1
164 -180 m 1
 164 -108 l 1
 331 -108 l 2
 394 -108 423 -79 423 -19 c 2
 423 45 l 1
 425 149 l 1
 424 149 l 1
 414 79 357 36 275 36 c 0
 163 36 93 115 93 240 c 2
 93 357 l 2
 93 481 163 560 275 560 c 0
 357 560 413 518 424 449 c 1
 424 550 l 1
 502 550 l 1
 502 -19 l 2
 502 -120 440 -180 331 -180 c 2
 164 -180 l 1
298 105 m 0
 376 105 424 156 424 243 c 2
 424 353 l 2
 424 440 376 491 298 491 c 0
 218 491 172 441 172 353 c 2
 172 243 l 2
 172 155 218 105 298 105 c 0
EndSplineSet
Validated: 1048577
EndChar

StartChar: gbreve
Encoding: 287 287 238
Width: 600
GlyphClass: 2
Flags: W
AnchorPoint: "Anchor-0" 297 550 basechar 0
LayerCount: 2
Fore
SplineSet
297 641 m 0
 203 641 141 698 141 785 c 1
 205 785 l 1
 205 730 241 694 296 694 c 0
 352 694 389 730 389 785 c 1
 453 785 l 1
 453 698 391 641 297 641 c 0
164 -180 m 1
 164 -108 l 1
 331 -108 l 2
 394 -108 423 -79 423 -19 c 2
 423 45 l 1
 425 149 l 1
 424 149 l 1
 414 79 357 36 275 36 c 0
 163 36 93 115 93 240 c 2
 93 357 l 2
 93 481 163 560 275 560 c 0
 357 560 413 518 424 449 c 1
 424 550 l 1
 502 550 l 1
 502 -19 l 2
 502 -120 440 -180 331 -180 c 2
 164 -180 l 1
298 105 m 0
 376 105 424 156 424 243 c 2
 424 353 l 2
 424 440 376 491 298 491 c 0
 218 491 172 441 172 353 c 2
 172 243 l 2
 172 155 218 105 298 105 c 0
EndSplineSet
Validated: 1048577
EndChar

StartChar: gcaron
Encoding: 487 487 239
Width: 600
GlyphClass: 2
Flags: W
AnchorPoint: "Anchor-0" 297 550 basechar 0
LayerCount: 2
Fore
SplineSet
259 645 m 1
 124 785 l 1
 210 785 l 1
 298 699 l 1
 383 785 l 1
 470 785 l 1
 336 645 l 1
 259 645 l 1
164 -180 m 1
 164 -108 l 1
 331 -108 l 2
 394 -108 423 -79 423 -19 c 2
 423 45 l 1
 425 149 l 1
 424 149 l 1
 414 79 357 36 275 36 c 0
 163 36 93 115 93 240 c 2
 93 357 l 2
 93 481 163 560 275 560 c 0
 357 560 413 518 424 449 c 1
 424 550 l 1
 502 550 l 1
 502 -19 l 2
 502 -120 440 -180 331 -180 c 2
 164 -180 l 1
298 105 m 0
 376 105 424 156 424 243 c 2
 424 353 l 2
 424 440 376 491 298 491 c 0
 218 491 172 441 172 353 c 2
 172 243 l 2
 172 155 218 105 298 105 c 0
EndSplineSet
Validated: 1048577
EndChar

StartChar: gcircumflex
Encoding: 285 285 240
Width: 600
GlyphClass: 2
Flags: W
AnchorPoint: "Anchor-0" 297 550 basechar 0
LayerCount: 2
Fore
SplineSet
124 645 m 1
 258 785 l 1
 335 785 l 1
 470 645 l 1
 384 645 l 1
 297 731 l 1
 212 645 l 1
 124 645 l 1
164 -180 m 1
 164 -108 l 1
 331 -108 l 2
 394 -108 423 -79 423 -19 c 2
 423 45 l 1
 425 149 l 1
 424 149 l 1
 414 79 357 36 275 36 c 0
 163 36 93 115 93 240 c 2
 93 357 l 2
 93 481 163 560 275 560 c 0
 357 560 413 518 424 449 c 1
 424 550 l 1
 502 550 l 1
 502 -19 l 2
 502 -120 440 -180 331 -180 c 2
 164 -180 l 1
298 105 m 0
 376 105 424 156 424 243 c 2
 424 353 l 2
 424 440 376 491 298 491 c 0
 218 491 172 441 172 353 c 2
 172 243 l 2
 172 155 218 105 298 105 c 0
EndSplineSet
Validated: 1048577
EndChar

StartChar: uni0123
Encoding: 291 291 241
Width: 600
GlyphClass: 2
Flags: W
AnchorPoint: "Anchor-0" 297 550 basechar 0
LayerCount: 2
Fore
SplineSet
408 880 m 1
 324 645 l 1
 215 645 l 1
 341 880 l 1
 408 880 l 1
164 -180 m 1
 164 -108 l 1
 331 -108 l 2
 394 -108 423 -79 423 -19 c 2
 423 45 l 1
 425 149 l 1
 424 149 l 1
 414 79 357 36 275 36 c 0
 163 36 93 115 93 240 c 2
 93 357 l 2
 93 481 163 560 275 560 c 0
 357 560 413 518 424 449 c 1
 424 550 l 1
 502 550 l 1
 502 -19 l 2
 502 -120 440 -180 331 -180 c 2
 164 -180 l 1
298 105 m 0
 376 105 424 156 424 243 c 2
 424 353 l 2
 424 440 376 491 298 491 c 0
 218 491 172 441 172 353 c 2
 172 243 l 2
 172 155 218 105 298 105 c 0
EndSplineSet
Validated: 1048577
EndChar

StartChar: gdotaccent
Encoding: 289 289 242
Width: 600
GlyphClass: 2
Flags: W
AnchorPoint: "Anchor-0" 297 550 basechar 0
LayerCount: 2
Fore
SplineSet
297 651 m 0
 255 651 229 674 229 711 c 0
 229 750 255 774 297 774 c 0
 339 774 365 750 365 711 c 0
 365 674 339 651 297 651 c 0
164 -180 m 1
 164 -108 l 1
 331 -108 l 2
 394 -108 423 -79 423 -19 c 2
 423 45 l 1
 425 149 l 1
 424 149 l 1
 414 79 357 36 275 36 c 0
 163 36 93 115 93 240 c 2
 93 357 l 2
 93 481 163 560 275 560 c 0
 357 560 413 518 424 449 c 1
 424 550 l 1
 502 550 l 1
 502 -19 l 2
 502 -120 440 -180 331 -180 c 2
 164 -180 l 1
298 105 m 0
 376 105 424 156 424 243 c 2
 424 353 l 2
 424 440 376 491 298 491 c 0
 218 491 172 441 172 353 c 2
 172 243 l 2
 172 155 218 105 298 105 c 0
EndSplineSet
Validated: 1048577
EndChar

StartChar: h
Encoding: 104 104 243
Width: 600
Flags: W
LayerCount: 2
Fore
SplineSet
97 0 m 1
 97 730 l 1
 176 730 l 1
 176 452 l 1
 177 452 l 1
 189 520 243 560 325 560 c 0
 434 560 505 486 505 369 c 2
 505 0 l 1
 426 0 l 1
 426 360 l 2
 426 444 379 493 303 493 c 0
 225 493 176 441 176 353 c 2
 176 0 l 1
 97 0 l 1
EndSplineSet
Validated: 1
EndChar

StartChar: hbar
Encoding: 295 295 244
Width: 600
Flags: W
LayerCount: 2
Fore
SplineSet
2 574 m 1
 2 641 l 1
 97 641 l 1
 97 730 l 1
 176 730 l 1
 176 641 l 1
 347 641 l 1
 347 574 l 1
 176 574 l 1
 176 392 l 1
 178 392 l 1
 190 460 244 500 325 500 c 0
 434 500 505 426 505 309 c 2
 505 0 l 1
 426 0 l 1
 426 300 l 2
 426 384 379 433 303 433 c 0
 225 433 176 381 176 293 c 2
 176 0 l 1
 97 0 l 1
 97 574 l 1
 2 574 l 1
EndSplineSet
Validated: 1
EndChar

StartChar: hcircumflex
Encoding: 293 293 245
Width: 600
Flags: W
LayerCount: 2
Fore
SplineSet
-23 805 m 1
 111 945 l 1
 188 945 l 1
 323 805 l 1
 237 805 l 1
 150 891 l 1
 65 805 l 1
 -23 805 l 1
97 0 m 1
 97 730 l 1
 176 730 l 1
 176 452 l 1
 177 452 l 1
 189 520 243 560 325 560 c 0
 434 560 505 486 505 369 c 2
 505 0 l 1
 426 0 l 1
 426 360 l 2
 426 444 379 493 303 493 c 0
 225 493 176 441 176 353 c 2
 176 0 l 1
 97 0 l 1
EndSplineSet
Validated: 1
EndChar

StartChar: i
Encoding: 105 105 246
Width: 600
GlyphClass: 2
Flags: W
AnchorPoint: "Anchor-3" 330 0 basechar 0
AnchorPoint: "Anchor-2" 315 0 basechar 0
AnchorPoint: "Anchor-0" 315 550 basechar 0
LayerCount: 2
Fore
SplineSet
315 651 m 0
 273 651 247 674 247 711 c 0
 247 750 273 774 315 774 c 0
 357 774 383 750 383 711 c 0
 383 674 357 651 315 651 c 0
88 0 m 1
 88 72 l 1
 284 72 l 1
 284 478 l 1
 113 478 l 1
 113 550 l 1
 364 550 l 1
 364 72 l 1
 550 72 l 1
 550 0 l 1
 88 0 l 1
EndSplineSet
Validated: 1048577
Substitution2: "'locl' Localized Forms in Latin lookup 365 subtable" i.loclTRK
Substitution2: "Single Substitution lookup 360 subtable" dotlessi
Substitution2: "Single Substitution lookup 359 subtable" dotlessi
Substitution2: "'aalt' Access All Alternates in Latin lookup 0 subtable" i.loclTRK
EndChar

StartChar: dotlessi
Encoding: 305 305 247
Width: 600
GlyphClass: 2
Flags: W
AnchorPoint: "Anchor-3" 330 0 basechar 0
AnchorPoint: "Anchor-2" 315 0 basechar 0
AnchorPoint: "Anchor-0" 315 550 basechar 0
LayerCount: 2
Fore
SplineSet
88 0 m 1
 88 72 l 1
 284 72 l 1
 284 478 l 1
 113 478 l 1
 113 550 l 1
 364 550 l 1
 364 72 l 1
 550 72 l 1
 550 0 l 1
 88 0 l 1
EndSplineSet
Validated: 1048577
EndChar

StartChar: iacute
Encoding: 237 237 248
Width: 600
GlyphClass: 2
Flags: W
AnchorPoint: "Anchor-3" 330 0 basechar 0
AnchorPoint: "Anchor-2" 315 0 basechar 0
AnchorPoint: "Anchor-0" 315 550 basechar 0
LayerCount: 2
Fore
SplineSet
266 645 m 1
 372 785 l 1
 458 785 l 1
 347 645 l 1
 266 645 l 1
88 0 m 1
 88 72 l 1
 284 72 l 1
 284 478 l 1
 113 478 l 1
 113 550 l 1
 364 550 l 1
 364 72 l 1
 550 72 l 1
 550 0 l 1
 88 0 l 1
EndSplineSet
Validated: 1048577
EndChar

StartChar: ibreve
Encoding: 301 301 249
Width: 600
GlyphClass: 2
Flags: W
AnchorPoint: "Anchor-3" 330 0 basechar 0
AnchorPoint: "Anchor-2" 315 0 basechar 0
AnchorPoint: "Anchor-0" 315 550 basechar 0
LayerCount: 2
Fore
SplineSet
315 641 m 0
 221 641 159 698 159 785 c 1
 223 785 l 1
 223 730 259 694 314 694 c 0
 370 694 407 730 407 785 c 1
 471 785 l 1
 471 698 409 641 315 641 c 0
88 0 m 1
 88 72 l 1
 284 72 l 1
 284 478 l 1
 113 478 l 1
 113 550 l 1
 364 550 l 1
 364 72 l 1
 550 72 l 1
 550 0 l 1
 88 0 l 1
EndSplineSet
Validated: 1048577
EndChar

StartChar: icircumflex
Encoding: 238 238 250
Width: 600
GlyphClass: 2
Flags: W
AnchorPoint: "Anchor-3" 330 0 basechar 0
AnchorPoint: "Anchor-2" 315 0 basechar 0
AnchorPoint: "Anchor-0" 315 550 basechar 0
LayerCount: 2
Fore
SplineSet
142 645 m 1
 276 785 l 1
 353 785 l 1
 488 645 l 1
 402 645 l 1
 315 731 l 1
 230 645 l 1
 142 645 l 1
88 0 m 1
 88 72 l 1
 284 72 l 1
 284 478 l 1
 113 478 l 1
 113 550 l 1
 364 550 l 1
 364 72 l 1
 550 72 l 1
 550 0 l 1
 88 0 l 1
EndSplineSet
Validated: 1048577
EndChar

StartChar: idieresis
Encoding: 239 239 251
Width: 600
GlyphClass: 2
Flags: W
AnchorPoint: "Anchor-3" 330 0 basechar 0
AnchorPoint: "Anchor-2" 315 0 basechar 0
AnchorPoint: "Anchor-0" 315 550 basechar 0
LayerCount: 2
Fore
SplineSet
425 651 m 0
 388 651 364 674 364 711 c 0
 364 750 388 774 425 774 c 0
 462 774 486 750 486 711 c 0
 486 674 462 651 425 651 c 0
205 651 m 0
 168 651 144 674 144 711 c 0
 144 750 168 774 205 774 c 0
 242 774 266 750 266 711 c 0
 266 674 242 651 205 651 c 0
88 0 m 1
 88 72 l 1
 284 72 l 1
 284 478 l 1
 113 478 l 1
 113 550 l 1
 364 550 l 1
 364 72 l 1
 550 72 l 1
 550 0 l 1
 88 0 l 1
EndSplineSet
Validated: 1048577
EndChar

StartChar: i.loclTRK
Encoding: 65537 -1 252
Width: 600
GlyphClass: 2
Flags: W
AnchorPoint: "Anchor-3" 330 0 basechar 0
AnchorPoint: "Anchor-2" 315 0 basechar 0
AnchorPoint: "Anchor-0" 315 550 basechar 0
LayerCount: 2
Fore
SplineSet
315 651 m 0
 273 651 247 674 247 711 c 0
 247 750 273 774 315 774 c 0
 357 774 383 750 383 711 c 0
 383 674 357 651 315 651 c 0
88 0 m 1
 88 72 l 1
 284 72 l 1
 284 478 l 1
 113 478 l 1
 113 550 l 1
 364 550 l 1
 364 72 l 1
 550 72 l 1
 550 0 l 1
 88 0 l 1
EndSplineSet
Validated: 1048577
EndChar

StartChar: uni1ECB
Encoding: 7883 7883 253
Width: 600
GlyphClass: 2
Flags: W
AnchorPoint: "Anchor-3" 330 0 basechar 0
AnchorPoint: "Anchor-2" 315 0 basechar 0
AnchorPoint: "Anchor-0" 315 550 basechar 0
LayerCount: 2
Fore
SplineSet
315 651 m 0
 273 651 247 674 247 711 c 0
 247 750 273 774 315 774 c 0
 357 774 383 750 383 711 c 0
 383 674 357 651 315 651 c 0
88 0 m 1
 88 72 l 1
 284 72 l 1
 284 478 l 1
 113 478 l 1
 113 550 l 1
 364 550 l 1
 364 72 l 1
 550 72 l 1
 550 0 l 1
 88 0 l 1
315 -211 m 0
 273 -211 247 -187 247 -150 c 0
 247 -112 273 -88 315 -88 c 0
 357 -88 383 -112 383 -150 c 0
 383 -187 357 -211 315 -211 c 0
EndSplineSet
Validated: 1048577
EndChar

StartChar: igrave
Encoding: 236 236 254
Width: 600
GlyphClass: 2
Flags: W
AnchorPoint: "Anchor-3" 330 0 basechar 0
AnchorPoint: "Anchor-2" 315 0 basechar 0
AnchorPoint: "Anchor-0" 315 550 basechar 0
LayerCount: 2
Fore
SplineSet
286 645 m 1
 172 785 l 1
 262 785 l 1
 371 645 l 1
 286 645 l 1
88 0 m 1
 88 72 l 1
 284 72 l 1
 284 478 l 1
 113 478 l 1
 113 550 l 1
 364 550 l 1
 364 72 l 1
 550 72 l 1
 550 0 l 1
 88 0 l 1
EndSplineSet
Validated: 1048577
EndChar

StartChar: uni1EC9
Encoding: 7881 7881 255
Width: 600
GlyphClass: 2
Flags: W
AnchorPoint: "Anchor-3" 330 0 basechar 0
AnchorPoint: "Anchor-2" 315 0 basechar 0
AnchorPoint: "Anchor-0" 315 550 basechar 0
LayerCount: 2
Fore
SplineSet
277 645 m 1
 329 711 l 2
 338 724 344 735 344 745 c 0
 344 759 333 767 310 767 c 2
 228 767 l 1
 228 824 l 1
 329 824 l 2
 379 824 412 797 412 754 c 0
 412 735 405 715 394 700 c 2
 353 645 l 1
 277 645 l 1
88 0 m 1
 88 72 l 1
 284 72 l 1
 284 478 l 1
 113 478 l 1
 113 550 l 1
 364 550 l 1
 364 72 l 1
 550 72 l 1
 550 0 l 1
 88 0 l 1
EndSplineSet
Validated: 1048577
EndChar

StartChar: imacron
Encoding: 299 299 256
Width: 600
GlyphClass: 2
Flags: W
AnchorPoint: "Anchor-3" 330 0 basechar 0
AnchorPoint: "Anchor-2" 315 0 basechar 0
AnchorPoint: "Anchor-0" 315 550 basechar 0
LayerCount: 2
Fore
SplineSet
160 674 m 1
 160 740 l 1
 470 740 l 1
 470 674 l 1
 160 674 l 1
88 0 m 1
 88 72 l 1
 284 72 l 1
 284 478 l 1
 113 478 l 1
 113 550 l 1
 364 550 l 1
 364 72 l 1
 550 72 l 1
 550 0 l 1
 88 0 l 1
EndSplineSet
Validated: 1048577
EndChar

StartChar: iogonek
Encoding: 303 303 257
Width: 600
GlyphClass: 2
Flags: W
AnchorPoint: "Anchor-3" 330 0 basechar 0
AnchorPoint: "Anchor-2" 315 0 basechar 0
AnchorPoint: "Anchor-0" 315 550 basechar 0
LayerCount: 2
Fore
SplineSet
315 651 m 0
 273 651 247 674 247 711 c 0
 247 750 273 774 315 774 c 0
 357 774 383 750 383 711 c 0
 383 674 357 651 315 651 c 0
88 0 m 1
 88 72 l 1
 284 72 l 1
 284 478 l 1
 113 478 l 1
 113 550 l 1
 364 550 l 1
 364 72 l 1
 550 72 l 1
 550 0 l 1
 345 0 l 1
 302 -36 282 -68 282 -96 c 0
 282 -125 303 -146 336 -146 c 2
 397 -146 l 1
 397 -201 l 1
 321 -201 l 2
 252 -201 207 -164 207 -111 c 0
 207 -76 228 -39 278 0 c 1
 88 0 l 1
EndSplineSet
Validated: 1048577
EndChar

StartChar: itilde
Encoding: 297 297 258
Width: 600
GlyphClass: 2
Flags: W
AnchorPoint: "Anchor-3" 330 0 basechar 0
AnchorPoint: "Anchor-2" 315 0 basechar 0
AnchorPoint: "Anchor-0" 315 550 basechar 0
LayerCount: 2
Fore
SplineSet
386 650 m 0
 308 650 295 726 249 726 c 0
 227 726 213 712 213 686 c 2
 213 655 l 1
 155 655 l 1
 155 686 l 2
 155 745 190 780 245 780 c 0
 324 780 337 704 383 704 c 0
 403 704 417 718 417 744 c 2
 417 775 l 1
 475 775 l 1
 475 744 l 2
 475 685 440 650 386 650 c 0
88 0 m 1
 88 72 l 1
 284 72 l 1
 284 478 l 1
 113 478 l 1
 113 550 l 1
 364 550 l 1
 364 72 l 1
 550 72 l 1
 550 0 l 1
 88 0 l 1
EndSplineSet
Validated: 1048577
EndChar

StartChar: j
Encoding: 106 106 259
Width: 600
GlyphClass: 2
Flags: W
AnchorPoint: "Anchor-0" 387 550 basechar 0
LayerCount: 2
Fore
SplineSet
387 651 m 0
 346 651 320 674 320 711 c 0
 320 750 346 774 387 774 c 0
 429 774 455 750 455 711 c 0
 455 674 429 651 387 651 c 0
75 -180 m 1
 75 -107 l 1
 218 -107 l 2
 304 -107 353 -60 353 25 c 2
 353 478 l 1
 95 478 l 1
 95 550 l 1
 432 550 l 1
 432 25 l 2
 432 -101 350 -180 218 -180 c 2
 75 -180 l 1
EndSplineSet
Validated: 1048577
Substitution2: "Single Substitution lookup 360 subtable" uni0237
Substitution2: "Single Substitution lookup 359 subtable" uni0237
EndChar

StartChar: uni0237
Encoding: 567 567 260
Width: 600
GlyphClass: 2
Flags: W
AnchorPoint: "Anchor-0" 387 550 basechar 0
LayerCount: 2
Fore
SplineSet
75 -180 m 1
 75 -107 l 1
 218 -107 l 2
 304 -107 353 -60 353 25 c 2
 353 478 l 1
 95 478 l 1
 95 550 l 1
 432 550 l 1
 432 25 l 2
 432 -101 350 -180 218 -180 c 2
 75 -180 l 1
EndSplineSet
Validated: 1048577
EndChar

StartChar: jcircumflex
Encoding: 309 309 261
Width: 600
GlyphClass: 2
Flags: W
AnchorPoint: "Anchor-0" 387 550 basechar 0
LayerCount: 2
Fore
SplineSet
215 645 m 1
 349 785 l 1
 425 785 l 1
 560 645 l 1
 474 645 l 1
 387 731 l 1
 302 645 l 1
 215 645 l 1
75 -180 m 1
 75 -107 l 1
 218 -107 l 2
 304 -107 353 -60 353 25 c 2
 353 478 l 1
 95 478 l 1
 95 550 l 1
 432 550 l 1
 432 25 l 2
 432 -101 350 -180 218 -180 c 2
 75 -180 l 1
EndSplineSet
Validated: 1048577
EndChar

StartChar: k
Encoding: 107 107 262
Width: 600
GlyphClass: 2
Flags: W
AnchorPoint: "Anchor-2" 300 0 basechar 0
AnchorPoint: "Anchor-0" 300 730 basechar 0
LayerCount: 2
Fore
SplineSet
100 0 m 1
 100 730 l 1
 179 730 l 1
 179 319 l 1
 292 319 l 1
 455 550 l 1
 547 550 l 1
 362 288 l 1
 550 0 l 1
 457 0 l 1
 293 250 l 1
 179 250 l 1
 179 0 l 1
 100 0 l 1
EndSplineSet
Validated: 1048577
EndChar

StartChar: uni0137
Encoding: 311 311 263
Width: 600
GlyphClass: 2
Flags: W
AnchorPoint: "Anchor-2" 300 0 basechar 0
AnchorPoint: "Anchor-0" 300 730 basechar 0
LayerCount: 2
Fore
SplineSet
100 0 m 1
 100 730 l 1
 179 730 l 1
 179 319 l 1
 292 319 l 1
 455 550 l 1
 547 550 l 1
 362 288 l 1
 550 0 l 1
 457 0 l 1
 293 250 l 1
 179 250 l 1
 179 0 l 1
 100 0 l 1
197 -240 m 1
 290 -95 l 1
 385 -95 l 1
 280 -240 l 1
 197 -240 l 1
EndSplineSet
Validated: 1048577
EndChar

StartChar: kgreenlandic
Encoding: 312 312 264
Width: 600
GlyphClass: 2
Flags: W
AnchorPoint: "Anchor-0" 300 550 basechar 0
LayerCount: 2
Fore
SplineSet
101 0 m 1
 101 550 l 1
 181 550 l 1
 181 319 l 1
 285 319 l 1
 448 550 l 1
 539 550 l 1
 354 288 l 1
 543 0 l 1
 450 0 l 1
 285 250 l 1
 181 250 l 1
 181 0 l 1
 101 0 l 1
EndSplineSet
Validated: 1048577
EndChar

StartChar: l
Encoding: 108 108 265
Width: 600
GlyphClass: 2
Flags: W
AnchorPoint: "Anchor-2" 320 0 basechar 0
AnchorPoint: "Anchor-0" 250 730 basechar 0
LayerCount: 2
Fore
SplineSet
377 0 m 2
 282 0 223 58 223 150 c 2
 223 658 l 1
 35 658 l 1
 35 730 l 1
 302 730 l 1
 302 150 l 2
 302 101 330 72 377 72 c 2
 547 72 l 1
 547 0 l 1
 377 0 l 2
EndSplineSet
Validated: 1048577
EndChar

StartChar: lacute
Encoding: 314 314 266
Width: 600
GlyphClass: 2
Flags: W
AnchorPoint: "Anchor-2" 320 0 basechar 0
AnchorPoint: "Anchor-0" 250 730 basechar 0
LayerCount: 2
Fore
SplineSet
198 810 m 1
 304 950 l 1
 391 950 l 1
 279 810 l 1
 198 810 l 1
377 0 m 2
 282 0 223 58 223 150 c 2
 223 658 l 1
 35 658 l 1
 35 730 l 1
 302 730 l 1
 302 150 l 2
 302 101 330 72 377 72 c 2
 547 72 l 1
 547 0 l 1
 377 0 l 2
EndSplineSet
Validated: 1048577
EndChar

StartChar: lcaron
Encoding: 318 318 267
Width: 600
GlyphClass: 2
Flags: W
AnchorPoint: "Anchor-2" 320 0 basechar 0
AnchorPoint: "Anchor-0" 250 730 basechar 0
LayerCount: 2
Fore
SplineSet
377 0 m 2
 282 0 223 58 223 150 c 2
 223 658 l 1
 35 658 l 1
 35 730 l 1
 302 730 l 1
 302 150 l 2
 302 101 330 72 377 72 c 2
 547 72 l 1
 547 0 l 1
 377 0 l 2
450 550 m 1
 460 730 l 1
 536 730 l 1
 516 550 l 1
 450 550 l 1
EndSplineSet
Validated: 1048577
EndChar

StartChar: uni013C
Encoding: 316 316 268
Width: 600
GlyphClass: 2
Flags: W
AnchorPoint: "Anchor-2" 320 0 basechar 0
AnchorPoint: "Anchor-0" 250 730 basechar 0
LayerCount: 2
Fore
SplineSet
377 0 m 2
 282 0 223 58 223 150 c 2
 223 658 l 1
 35 658 l 1
 35 730 l 1
 302 730 l 1
 302 150 l 2
 302 101 330 72 377 72 c 2
 547 72 l 1
 547 0 l 1
 377 0 l 2
217 -240 m 1
 310 -95 l 1
 405 -95 l 1
 300 -240 l 1
 217 -240 l 1
EndSplineSet
Validated: 1048577
EndChar

StartChar: ldot
Encoding: 320 320 269
Width: 600
GlyphClass: 2
Flags: W
AnchorPoint: "Anchor-2" 300 0 basechar 0
AnchorPoint: "Anchor-0" 230 730 basechar 0
LayerCount: 2
Fore
SplineSet
357 0 m 2
 262 0 203 58 203 150 c 2
 203 658 l 1
 15 658 l 1
 15 730 l 1
 282 730 l 1
 282 150 l 2
 282 101 310 72 357 72 c 2
 527 72 l 1
 527 0 l 1
 357 0 l 2
548 265 m 0
 499 265 468 295 468 344 c 0
 468 395 499 426 548 426 c 0
 598 426 629 395 629 344 c 0
 629 295 598 265 548 265 c 0
EndSplineSet
Validated: 1048577
EndChar

StartChar: lslash
Encoding: 322 322 270
Width: 600
GlyphClass: 2
Flags: W
AnchorPoint: "Anchor-2" 320 0 basechar 0
AnchorPoint: "Anchor-0" 250 730 basechar 0
LayerCount: 2
Fore
SplineSet
100 233 m 1
 100 306 l 1
 223 389 l 1
 223 658 l 1
 35 658 l 1
 35 730 l 1
 302 730 l 1
 302 443 l 1
 470 557 l 1
 470 484 l 1
 302 370 l 1
 302 150 l 2
 302 101 330 72 377 72 c 2
 547 72 l 1
 547 0 l 1
 377 0 l 2
 282 0 223 58 223 150 c 2
 223 316 l 1
 100 233 l 1
EndSplineSet
Validated: 1048577
EndChar

StartChar: m
Encoding: 109 109 271
Width: 600
Flags: W
LayerCount: 2
Fore
SplineSet
69 0 m 1
 69 550 l 1
 139 550 l 1
 139 482 l 1
 144 482 l 1
 152 530 185 560 235 560 c 0
 282 560 315 532 327 482 c 1
 330 482 l 1
 338 530 373 560 423 560 c 0
 491 560 531 505 531 421 c 2
 531 0 l 1
 457 0 l 1
 457 421 l 2
 457 469 435 498 396 498 c 0
 357 498 333 469 333 421 c 2
 333 0 l 1
 267 0 l 1
 267 421 l 2
 267 470 244 498 205 498 c 0
 166 498 143 470 143 421 c 2
 143 0 l 1
 69 0 l 1
EndSplineSet
Validated: 1
EndChar

StartChar: n
Encoding: 110 110 272
Width: 600
GlyphClass: 2
Flags: W
AnchorPoint: "Anchor-2" 300 0 basechar 0
AnchorPoint: "Anchor-0" 305 550 basechar 0
LayerCount: 2
Fore
SplineSet
97 0 m 1
 97 550 l 1
 176 550 l 1
 176 448 l 1
 188 519 242 560 325 560 c 0
 434 560 505 486 505 369 c 2
 505 0 l 1
 426 0 l 1
 426 360 l 2
 426 444 379 491 303 491 c 0
 225 491 176 441 176 353 c 2
 176 0 l 1
 97 0 l 1
EndSplineSet
Validated: 1048577
EndChar

StartChar: nacute
Encoding: 324 324 273
Width: 600
GlyphClass: 2
Flags: W
AnchorPoint: "Anchor-2" 300 0 basechar 0
AnchorPoint: "Anchor-0" 305 550 basechar 0
LayerCount: 2
Fore
SplineSet
256 645 m 1
 362 785 l 1
 448 785 l 1
 337 645 l 1
 256 645 l 1
97 0 m 1
 97 550 l 1
 176 550 l 1
 176 448 l 1
 188 519 242 560 325 560 c 0
 434 560 505 486 505 369 c 2
 505 0 l 1
 426 0 l 1
 426 360 l 2
 426 444 379 491 303 491 c 0
 225 491 176 441 176 353 c 2
 176 0 l 1
 97 0 l 1
EndSplineSet
Validated: 1048577
EndChar

StartChar: napostrophe
Encoding: 329 329 274
Width: 600
GlyphClass: 2
Flags: W
AnchorPoint: "Anchor-2" 300 0 basechar 0
AnchorPoint: "Anchor-0" 305 550 basechar 0
LayerCount: 2
Fore
SplineSet
-3 645 m 1
 90 790 l 1
 185 790 l 1
 80 645 l 1
 -3 645 l 1
97 0 m 1
 97 550 l 1
 176 550 l 1
 176 448 l 1
 188 519 242 560 325 560 c 0
 434 560 505 486 505 369 c 2
 505 0 l 1
 426 0 l 1
 426 360 l 2
 426 444 379 491 303 491 c 0
 225 491 176 441 176 353 c 2
 176 0 l 1
 97 0 l 1
EndSplineSet
Validated: 1048577
EndChar

StartChar: ncaron
Encoding: 328 328 275
Width: 600
GlyphClass: 2
Flags: W
AnchorPoint: "Anchor-2" 300 0 basechar 0
AnchorPoint: "Anchor-0" 305 550 basechar 0
LayerCount: 2
Fore
SplineSet
267 645 m 1
 132 785 l 1
 218 785 l 1
 306 699 l 1
 391 785 l 1
 478 785 l 1
 344 645 l 1
 267 645 l 1
97 0 m 1
 97 550 l 1
 176 550 l 1
 176 448 l 1
 188 519 242 560 325 560 c 0
 434 560 505 486 505 369 c 2
 505 0 l 1
 426 0 l 1
 426 360 l 2
 426 444 379 491 303 491 c 0
 225 491 176 441 176 353 c 2
 176 0 l 1
 97 0 l 1
EndSplineSet
Validated: 1048577
EndChar

StartChar: uni0146
Encoding: 326 326 276
Width: 600
GlyphClass: 2
Flags: W
AnchorPoint: "Anchor-2" 300 0 basechar 0
AnchorPoint: "Anchor-0" 305 550 basechar 0
LayerCount: 2
Fore
SplineSet
97 0 m 1
 97 550 l 1
 176 550 l 1
 176 448 l 1
 188 519 242 560 325 560 c 0
 434 560 505 486 505 369 c 2
 505 0 l 1
 426 0 l 1
 426 360 l 2
 426 444 379 491 303 491 c 0
 225 491 176 441 176 353 c 2
 176 0 l 1
 97 0 l 1
197 -240 m 1
 290 -95 l 1
 385 -95 l 1
 280 -240 l 1
 197 -240 l 1
EndSplineSet
Validated: 1048577
EndChar

StartChar: eng
Encoding: 331 331 277
Width: 600
Flags: W
LayerCount: 2
Fore
SplineSet
241 -180 m 1
 241 -108 l 1
 298 -108 l 2
 376 -108 424 -61 424 15 c 2
 424 360 l 2
 424 444 379 493 303 493 c 0
 225 493 178 441 178 353 c 2
 178 0 l 1
 98 0 l 1
 98 550 l 1
 178 550 l 1
 178 448 l 1
 189 519 242 560 325 560 c 0
 434 560 504 486 504 369 c 2
 504 15 l 2
 504 -103 423 -180 298 -180 c 2
 241 -180 l 1
EndSplineSet
Validated: 1
EndChar

StartChar: ntilde
Encoding: 241 241 278
Width: 600
GlyphClass: 2
Flags: W
AnchorPoint: "Anchor-2" 300 0 basechar 0
AnchorPoint: "Anchor-0" 305 550 basechar 0
LayerCount: 2
Fore
SplineSet
376 650 m 0
 298 650 285 726 239 726 c 0
 217 726 203 712 203 686 c 2
 203 655 l 1
 145 655 l 1
 145 686 l 2
 145 745 180 780 235 780 c 0
 314 780 327 704 373 704 c 0
 393 704 407 718 407 744 c 2
 407 775 l 1
 465 775 l 1
 465 744 l 2
 465 685 430 650 376 650 c 0
97 0 m 1
 97 550 l 1
 176 550 l 1
 176 448 l 1
 188 519 242 560 325 560 c 0
 434 560 505 486 505 369 c 2
 505 0 l 1
 426 0 l 1
 426 360 l 2
 426 444 379 491 303 491 c 0
 225 491 176 441 176 353 c 2
 176 0 l 1
 97 0 l 1
EndSplineSet
Validated: 1048577
EndChar

StartChar: o
Encoding: 111 111 279
Width: 600
GlyphClass: 2
Flags: W
AnchorPoint: "Anchor-4" 300 275 basechar 0
AnchorPoint: "Anchor-3" 351 0 basechar 0
AnchorPoint: "Anchor-2" 300 0 basechar 0
AnchorPoint: "Anchor-1" 329 550 basechar 0
AnchorPoint: "Anchor-0" 300 550 basechar 0
LayerCount: 2
Fore
SplineSet
300 -9 m 0
 171 -9 90 71 90 199 c 2
 90 351 l 2
 90 479 171 559 300 559 c 0
 429 559 510 479 510 352 c 2
 510 199 l 2
 510 71 429 -9 300 -9 c 0
300 62 m 0
 382 62 430 110 430 199 c 2
 430 351 l 2
 430 440 381 488 300 488 c 0
 219 488 170 440 170 351 c 2
 170 199 l 2
 170 110 218 62 300 62 c 0
EndSplineSet
Validated: 1
Substitution2: "Single Substitution lookup 375 subtable" ordmasculine
Substitution2: "'aalt' Access All Alternates in Latin lookup 0 subtable" ordmasculine
EndChar

StartChar: oacute
Encoding: 243 243 280
Width: 600
GlyphClass: 2
Flags: W
AnchorPoint: "Anchor-4" 300 275 basechar 0
AnchorPoint: "Anchor-3" 351 0 basechar 0
AnchorPoint: "Anchor-2" 300 0 basechar 0
AnchorPoint: "Anchor-1" 329 550 basechar 0
AnchorPoint: "Anchor-0" 300 550 basechar 0
LayerCount: 2
Fore
SplineSet
251 645 m 1
 357 785 l 1
 443 785 l 1
 332 645 l 1
 251 645 l 1
300 -9 m 0
 171 -9 90 71 90 199 c 2
 90 351 l 2
 90 479 171 559 300 559 c 0
 429 559 510 479 510 352 c 2
 510 199 l 2
 510 71 429 -9 300 -9 c 0
300 62 m 0
 382 62 430 110 430 199 c 2
 430 351 l 2
 430 440 381 488 300 488 c 0
 219 488 170 440 170 351 c 2
 170 199 l 2
 170 110 218 62 300 62 c 0
EndSplineSet
Validated: 1
EndChar

StartChar: obreve
Encoding: 335 335 281
Width: 600
GlyphClass: 2
Flags: W
AnchorPoint: "Anchor-4" 300 275 basechar 0
AnchorPoint: "Anchor-3" 351 0 basechar 0
AnchorPoint: "Anchor-2" 300 0 basechar 0
AnchorPoint: "Anchor-1" 329 550 basechar 0
AnchorPoint: "Anchor-0" 300 550 basechar 0
LayerCount: 2
Fore
SplineSet
300 641 m 0
 206 641 144 698 144 785 c 1
 208 785 l 1
 208 730 244 694 299 694 c 0
 355 694 392 730 392 785 c 1
 456 785 l 1
 456 698 394 641 300 641 c 0
300 -9 m 0
 171 -9 90 71 90 199 c 2
 90 351 l 2
 90 479 171 559 300 559 c 0
 429 559 510 479 510 352 c 2
 510 199 l 2
 510 71 429 -9 300 -9 c 0
300 62 m 0
 382 62 430 110 430 199 c 2
 430 351 l 2
 430 440 381 488 300 488 c 0
 219 488 170 440 170 351 c 2
 170 199 l 2
 170 110 218 62 300 62 c 0
EndSplineSet
Validated: 1
EndChar

StartChar: ocircumflex
Encoding: 244 244 282
Width: 600
GlyphClass: 2
Flags: W
AnchorPoint: "Anchor-4" 300 275 basechar 0
AnchorPoint: "Anchor-3" 351 0 basechar 0
AnchorPoint: "Anchor-2" 300 0 basechar 0
AnchorPoint: "Anchor-1" 329 550 basechar 0
AnchorPoint: "Anchor-0" 300 550 basechar 0
LayerCount: 2
Fore
SplineSet
127 645 m 1
 261 785 l 1
 338 785 l 1
 473 645 l 1
 387 645 l 1
 300 731 l 1
 215 645 l 1
 127 645 l 1
300 -9 m 0
 171 -9 90 71 90 199 c 2
 90 351 l 2
 90 479 171 559 300 559 c 0
 429 559 510 479 510 352 c 2
 510 199 l 2
 510 71 429 -9 300 -9 c 0
300 62 m 0
 382 62 430 110 430 199 c 2
 430 351 l 2
 430 440 381 488 300 488 c 0
 219 488 170 440 170 351 c 2
 170 199 l 2
 170 110 218 62 300 62 c 0
EndSplineSet
Validated: 1
EndChar

StartChar: uni1ED1
Encoding: 7889 7889 283
Width: 600
GlyphClass: 2
Flags: W
AnchorPoint: "Anchor-4" 300 275 basechar 0
AnchorPoint: "Anchor-3" 351 0 basechar 0
AnchorPoint: "Anchor-2" 300 0 basechar 0
AnchorPoint: "Anchor-1" 329 550 basechar 0
AnchorPoint: "Anchor-0" 300 550 basechar 0
LayerCount: 2
Fore
SplineSet
409 760 m 1
 524 900 l 1
 613 900 l 1
 492 760 l 1
 409 760 l 1
128 645 m 1
 261 785 l 1
 339 785 l 1
 473 645 l 1
 386 645 l 1
 300 731 l 1
 214 645 l 1
 128 645 l 1
300 -9 m 0
 171 -9 90 71 90 199 c 2
 90 351 l 2
 90 479 171 559 300 559 c 0
 429 559 510 479 510 352 c 2
 510 199 l 2
 510 71 429 -9 300 -9 c 0
300 62 m 0
 382 62 430 110 430 199 c 2
 430 351 l 2
 430 440 381 488 300 488 c 0
 219 488 170 440 170 351 c 2
 170 199 l 2
 170 110 218 62 300 62 c 0
EndSplineSet
Validated: 1
EndChar

StartChar: uni1ED9
Encoding: 7897 7897 284
Width: 600
GlyphClass: 2
Flags: W
AnchorPoint: "Anchor-4" 300 275 basechar 0
AnchorPoint: "Anchor-3" 351 0 basechar 0
AnchorPoint: "Anchor-2" 300 0 basechar 0
AnchorPoint: "Anchor-1" 329 550 basechar 0
AnchorPoint: "Anchor-0" 300 550 basechar 0
LayerCount: 2
Fore
SplineSet
127 645 m 1
 261 785 l 1
 338 785 l 1
 473 645 l 1
 387 645 l 1
 300 731 l 1
 215 645 l 1
 127 645 l 1
300 -9 m 0
 171 -9 90 71 90 199 c 2
 90 351 l 2
 90 479 171 559 300 559 c 0
 429 559 510 479 510 352 c 2
 510 199 l 2
 510 71 429 -9 300 -9 c 0
300 62 m 0
 382 62 430 110 430 199 c 2
 430 351 l 2
 430 440 381 488 300 488 c 0
 219 488 170 440 170 351 c 2
 170 199 l 2
 170 110 218 62 300 62 c 0
300 -211 m 0
 258 -211 232 -187 232 -150 c 0
 232 -112 258 -88 300 -88 c 0
 342 -88 368 -112 368 -150 c 0
 368 -187 342 -211 300 -211 c 0
EndSplineSet
Validated: 1
EndChar

StartChar: uni1ED3
Encoding: 7891 7891 285
Width: 600
GlyphClass: 2
Flags: W
AnchorPoint: "Anchor-4" 300 275 basechar 0
AnchorPoint: "Anchor-3" 351 0 basechar 0
AnchorPoint: "Anchor-2" 300 0 basechar 0
AnchorPoint: "Anchor-1" 329 550 basechar 0
AnchorPoint: "Anchor-0" 300 550 basechar 0
LayerCount: 2
Fore
SplineSet
451 760 m 1
 322 900 l 1
 411 900 l 1
 534 760 l 1
 451 760 l 1
128 645 m 1
 261 785 l 1
 339 785 l 1
 473 645 l 1
 386 645 l 1
 300 731 l 1
 214 645 l 1
 128 645 l 1
300 -9 m 0
 171 -9 90 71 90 199 c 2
 90 351 l 2
 90 479 171 559 300 559 c 0
 429 559 510 479 510 352 c 2
 510 199 l 2
 510 71 429 -9 300 -9 c 0
300 62 m 0
 382 62 430 110 430 199 c 2
 430 351 l 2
 430 440 381 488 300 488 c 0
 219 488 170 440 170 351 c 2
 170 199 l 2
 170 110 218 62 300 62 c 0
EndSplineSet
Validated: 1
EndChar

StartChar: uni1ED5
Encoding: 7893 7893 286
Width: 600
GlyphClass: 2
Flags: W
AnchorPoint: "Anchor-4" 300 275 basechar 0
AnchorPoint: "Anchor-3" 351 0 basechar 0
AnchorPoint: "Anchor-2" 300 0 basechar 0
AnchorPoint: "Anchor-1" 329 550 basechar 0
AnchorPoint: "Anchor-0" 300 550 basechar 0
LayerCount: 2
Fore
SplineSet
423 760 m 1
 469 822 l 2
 477 833 481 842 481 850 c 0
 481 866 468 876 448 876 c 2
 391 876 l 1
 391 929 l 1
 451 929 l 2
 508 929 545 901 545 859 c 0
 545 842 538 827 525 809 c 2
 490 760 l 1
 423 760 l 1
128 645 m 1
 261 785 l 1
 339 785 l 1
 473 645 l 1
 386 645 l 1
 300 731 l 1
 214 645 l 1
 128 645 l 1
300 -9 m 0
 171 -9 90 71 90 199 c 2
 90 351 l 2
 90 479 171 559 300 559 c 0
 429 559 510 479 510 352 c 2
 510 199 l 2
 510 71 429 -9 300 -9 c 0
300 62 m 0
 382 62 430 110 430 199 c 2
 430 351 l 2
 430 440 381 488 300 488 c 0
 219 488 170 440 170 351 c 2
 170 199 l 2
 170 110 218 62 300 62 c 0
EndSplineSet
Validated: 1
EndChar

StartChar: uni1ED7
Encoding: 7895 7895 287
Width: 600
GlyphClass: 2
Flags: W
AnchorPoint: "Anchor-4" 300 275 basechar 0
AnchorPoint: "Anchor-3" 351 0 basechar 0
AnchorPoint: "Anchor-2" 300 0 basechar 0
AnchorPoint: "Anchor-1" 329 550 basechar 0
AnchorPoint: "Anchor-0" 300 550 basechar 0
LayerCount: 2
Fore
SplineSet
367 813 m 0
 285 813 281 878 235 878 c 0
 214 878 202 867 202 845 c 2
 202 820 l 1
 144 820 l 1
 144 841 l 2
 144 894 179 927 234 927 c 0
 317 927 320 862 366 862 c 0
 387 862 398 874 398 895 c 2
 398 920 l 1
 456 920 l 1
 456 899 l 2
 456 846 421 813 367 813 c 0
128 645 m 1
 261 785 l 1
 339 785 l 1
 473 645 l 1
 386 645 l 1
 300 731 l 1
 214 645 l 1
 128 645 l 1
300 -9 m 0
 171 -9 90 71 90 199 c 2
 90 351 l 2
 90 479 171 559 300 559 c 0
 429 559 510 479 510 352 c 2
 510 199 l 2
 510 71 429 -9 300 -9 c 0
300 62 m 0
 382 62 430 110 430 199 c 2
 430 351 l 2
 430 440 381 488 300 488 c 0
 219 488 170 440 170 351 c 2
 170 199 l 2
 170 110 218 62 300 62 c 0
EndSplineSet
Validated: 1
EndChar

StartChar: odieresis
Encoding: 246 246 288
Width: 600
GlyphClass: 2
Flags: W
AnchorPoint: "Anchor-4" 300 275 basechar 0
AnchorPoint: "Anchor-3" 351 0 basechar 0
AnchorPoint: "Anchor-2" 300 0 basechar 0
AnchorPoint: "Anchor-1" 329 550 basechar 0
AnchorPoint: "Anchor-0" 300 550 basechar 0
LayerCount: 2
Fore
SplineSet
410 651 m 0
 373 651 349 674 349 711 c 0
 349 750 373 774 410 774 c 0
 447 774 471 750 471 711 c 0
 471 674 447 651 410 651 c 0
190 651 m 0
 153 651 129 674 129 711 c 0
 129 750 153 774 190 774 c 0
 227 774 251 750 251 711 c 0
 251 674 227 651 190 651 c 0
300 -9 m 0
 171 -9 90 71 90 199 c 2
 90 351 l 2
 90 479 171 559 300 559 c 0
 429 559 510 479 510 352 c 2
 510 199 l 2
 510 71 429 -9 300 -9 c 0
300 62 m 0
 382 62 430 110 430 199 c 2
 430 351 l 2
 430 440 381 488 300 488 c 0
 219 488 170 440 170 351 c 2
 170 199 l 2
 170 110 218 62 300 62 c 0
EndSplineSet
Validated: 1
EndChar

StartChar: uni1ECD
Encoding: 7885 7885 289
Width: 600
GlyphClass: 2
Flags: W
AnchorPoint: "Anchor-4" 300 275 basechar 0
AnchorPoint: "Anchor-3" 351 0 basechar 0
AnchorPoint: "Anchor-2" 300 0 basechar 0
AnchorPoint: "Anchor-1" 329 550 basechar 0
AnchorPoint: "Anchor-0" 300 550 basechar 0
LayerCount: 2
Fore
SplineSet
300 -9 m 0
 171 -9 90 71 90 199 c 2
 90 351 l 2
 90 479 171 559 300 559 c 0
 429 559 510 479 510 352 c 2
 510 199 l 2
 510 71 429 -9 300 -9 c 0
300 62 m 0
 382 62 430 110 430 199 c 2
 430 351 l 2
 430 440 381 488 300 488 c 0
 219 488 170 440 170 351 c 2
 170 199 l 2
 170 110 218 62 300 62 c 0
300 -211 m 0
 258 -211 232 -187 232 -150 c 0
 232 -112 258 -88 300 -88 c 0
 342 -88 368 -112 368 -150 c 0
 368 -187 342 -211 300 -211 c 0
EndSplineSet
Validated: 1
EndChar

StartChar: ograve
Encoding: 242 242 290
Width: 600
GlyphClass: 2
Flags: W
AnchorPoint: "Anchor-4" 300 275 basechar 0
AnchorPoint: "Anchor-3" 351 0 basechar 0
AnchorPoint: "Anchor-2" 300 0 basechar 0
AnchorPoint: "Anchor-1" 329 550 basechar 0
AnchorPoint: "Anchor-0" 300 550 basechar 0
LayerCount: 2
Fore
SplineSet
271 645 m 1
 157 785 l 1
 247 785 l 1
 356 645 l 1
 271 645 l 1
300 -9 m 0
 171 -9 90 71 90 199 c 2
 90 351 l 2
 90 479 171 559 300 559 c 0
 429 559 510 479 510 352 c 2
 510 199 l 2
 510 71 429 -9 300 -9 c 0
300 62 m 0
 382 62 430 110 430 199 c 2
 430 351 l 2
 430 440 381 488 300 488 c 0
 219 488 170 440 170 351 c 2
 170 199 l 2
 170 110 218 62 300 62 c 0
EndSplineSet
Validated: 1
EndChar

StartChar: uni1ECF
Encoding: 7887 7887 291
Width: 600
GlyphClass: 2
Flags: W
AnchorPoint: "Anchor-4" 300 275 basechar 0
AnchorPoint: "Anchor-3" 351 0 basechar 0
AnchorPoint: "Anchor-2" 300 0 basechar 0
AnchorPoint: "Anchor-1" 329 550 basechar 0
AnchorPoint: "Anchor-0" 300 550 basechar 0
LayerCount: 2
Fore
SplineSet
262 645 m 1
 314 711 l 2
 323 724 329 735 329 745 c 0
 329 759 318 767 295 767 c 2
 213 767 l 1
 213 824 l 1
 314 824 l 2
 364 824 397 797 397 754 c 0
 397 735 390 715 379 700 c 2
 338 645 l 1
 262 645 l 1
300 -9 m 0
 171 -9 90 71 90 199 c 2
 90 351 l 2
 90 479 171 559 300 559 c 0
 429 559 510 479 510 352 c 2
 510 199 l 2
 510 71 429 -9 300 -9 c 0
300 62 m 0
 382 62 430 110 430 199 c 2
 430 351 l 2
 430 440 381 488 300 488 c 0
 219 488 170 440 170 351 c 2
 170 199 l 2
 170 110 218 62 300 62 c 0
EndSplineSet
Validated: 1
EndChar

StartChar: ohorn
Encoding: 417 417 292
Width: 600
GlyphClass: 2
Flags: W
AnchorPoint: "Anchor-4" 300 275 basechar 0
AnchorPoint: "Anchor-3" 351 0 basechar 0
AnchorPoint: "Anchor-2" 300 0 basechar 0
AnchorPoint: "Anchor-1" 329 550 basechar 0
AnchorPoint: "Anchor-0" 290 550 basechar 0
LayerCount: 2
Fore
SplineSet
300 -9 m 0
 171 -9 90 71 90 199 c 2
 90 351 l 2
 90 479 171 559 300 559 c 0
 346 559 385 549 417 530 c 1
 429 530 l 2
 453 530 466 544 466 569 c 2
 466 640 l 1
 532 640 l 1
 532 565 l 2
 532 524 509 493 473 480 c 1
 497 446 510 403 510 352 c 2
 510 199 l 2
 510 71 429 -9 300 -9 c 0
300 62 m 0
 382 62 430 110 430 199 c 2
 430 351 l 2
 430 440 381 488 300 488 c 0
 219 488 170 440 170 351 c 2
 170 199 l 2
 170 110 218 62 300 62 c 0
EndSplineSet
Validated: 1
EndChar

StartChar: uni1EDB
Encoding: 7899 7899 293
Width: 600
GlyphClass: 2
Flags: W
AnchorPoint: "Anchor-4" 300 275 basechar 0
AnchorPoint: "Anchor-3" 351 0 basechar 0
AnchorPoint: "Anchor-2" 300 0 basechar 0
AnchorPoint: "Anchor-1" 329 550 basechar 0
AnchorPoint: "Anchor-0" 290 550 basechar 0
LayerCount: 2
Fore
SplineSet
241 645 m 1
 347 785 l 1
 433 785 l 1
 322 645 l 1
 241 645 l 1
300 -9 m 0
 171 -9 90 71 90 199 c 2
 90 351 l 2
 90 479 171 559 300 559 c 0
 346 559 385 549 417 530 c 1
 429 530 l 2
 453 530 466 544 466 569 c 2
 466 640 l 1
 532 640 l 1
 532 565 l 2
 532 524 509 493 473 480 c 1
 497 446 510 403 510 352 c 2
 510 199 l 2
 510 71 429 -9 300 -9 c 0
300 62 m 0
 382 62 430 110 430 199 c 2
 430 351 l 2
 430 440 381 488 300 488 c 0
 219 488 170 440 170 351 c 2
 170 199 l 2
 170 110 218 62 300 62 c 0
EndSplineSet
Validated: 1
EndChar

StartChar: uni1EE3
Encoding: 7907 7907 294
Width: 600
GlyphClass: 2
Flags: W
AnchorPoint: "Anchor-4" 300 275 basechar 0
AnchorPoint: "Anchor-3" 351 0 basechar 0
AnchorPoint: "Anchor-2" 300 0 basechar 0
AnchorPoint: "Anchor-1" 329 550 basechar 0
AnchorPoint: "Anchor-0" 290 550 basechar 0
LayerCount: 2
Fore
SplineSet
300 -9 m 0
 171 -9 90 71 90 199 c 2
 90 351 l 2
 90 479 171 559 300 559 c 0
 346 559 385 549 417 530 c 1
 429 530 l 2
 453 530 466 544 466 569 c 2
 466 640 l 1
 532 640 l 1
 532 565 l 2
 532 524 509 493 473 480 c 1
 497 446 510 403 510 352 c 2
 510 199 l 2
 510 71 429 -9 300 -9 c 0
300 62 m 0
 382 62 430 110 430 199 c 2
 430 351 l 2
 430 440 381 488 300 488 c 0
 219 488 170 440 170 351 c 2
 170 199 l 2
 170 110 218 62 300 62 c 0
300 -211 m 0
 258 -211 232 -187 232 -150 c 0
 232 -112 258 -88 300 -88 c 0
 342 -88 368 -112 368 -150 c 0
 368 -187 342 -211 300 -211 c 0
EndSplineSet
Validated: 1
EndChar

StartChar: uni1EDD
Encoding: 7901 7901 295
Width: 600
GlyphClass: 2
Flags: W
AnchorPoint: "Anchor-4" 300 275 basechar 0
AnchorPoint: "Anchor-3" 351 0 basechar 0
AnchorPoint: "Anchor-2" 300 0 basechar 0
AnchorPoint: "Anchor-1" 329 550 basechar 0
AnchorPoint: "Anchor-0" 290 550 basechar 0
LayerCount: 2
Fore
SplineSet
261 645 m 1
 147 785 l 1
 237 785 l 1
 346 645 l 1
 261 645 l 1
300 -9 m 0
 171 -9 90 71 90 199 c 2
 90 351 l 2
 90 479 171 559 300 559 c 0
 346 559 385 549 417 530 c 1
 429 530 l 2
 453 530 466 544 466 569 c 2
 466 640 l 1
 532 640 l 1
 532 565 l 2
 532 524 509 493 473 480 c 1
 497 446 510 403 510 352 c 2
 510 199 l 2
 510 71 429 -9 300 -9 c 0
300 62 m 0
 382 62 430 110 430 199 c 2
 430 351 l 2
 430 440 381 488 300 488 c 0
 219 488 170 440 170 351 c 2
 170 199 l 2
 170 110 218 62 300 62 c 0
EndSplineSet
Validated: 1
EndChar

StartChar: uni1EDF
Encoding: 7903 7903 296
Width: 600
GlyphClass: 2
Flags: W
AnchorPoint: "Anchor-4" 300 275 basechar 0
AnchorPoint: "Anchor-3" 351 0 basechar 0
AnchorPoint: "Anchor-2" 300 0 basechar 0
AnchorPoint: "Anchor-1" 329 550 basechar 0
AnchorPoint: "Anchor-0" 290 550 basechar 0
LayerCount: 2
Fore
SplineSet
252 645 m 1
 304 711 l 2
 313 724 319 735 319 745 c 0
 319 759 308 767 285 767 c 2
 203 767 l 1
 203 824 l 1
 304 824 l 2
 354 824 387 797 387 754 c 0
 387 735 380 715 369 700 c 2
 328 645 l 1
 252 645 l 1
300 -9 m 0
 171 -9 90 71 90 199 c 2
 90 351 l 2
 90 479 171 559 300 559 c 0
 346 559 385 549 417 530 c 1
 429 530 l 2
 453 530 466 544 466 569 c 2
 466 640 l 1
 532 640 l 1
 532 565 l 2
 532 524 509 493 473 480 c 1
 497 446 510 403 510 352 c 2
 510 199 l 2
 510 71 429 -9 300 -9 c 0
300 62 m 0
 382 62 430 110 430 199 c 2
 430 351 l 2
 430 440 381 488 300 488 c 0
 219 488 170 440 170 351 c 2
 170 199 l 2
 170 110 218 62 300 62 c 0
EndSplineSet
Validated: 1
EndChar

StartChar: uni1EE1
Encoding: 7905 7905 297
Width: 600
GlyphClass: 2
Flags: W
AnchorPoint: "Anchor-4" 300 275 basechar 0
AnchorPoint: "Anchor-3" 351 0 basechar 0
AnchorPoint: "Anchor-2" 300 0 basechar 0
AnchorPoint: "Anchor-1" 329 550 basechar 0
AnchorPoint: "Anchor-0" 290 550 basechar 0
LayerCount: 2
Fore
SplineSet
361 650 m 0
 283 650 270 726 224 726 c 0
 202 726 188 712 188 686 c 2
 188 655 l 1
 130 655 l 1
 130 686 l 2
 130 745 165 780 220 780 c 0
 299 780 312 704 358 704 c 0
 378 704 392 718 392 744 c 2
 392 775 l 1
 450 775 l 1
 450 744 l 2
 450 685 415 650 361 650 c 0
300 -9 m 0
 171 -9 90 71 90 199 c 2
 90 351 l 2
 90 479 171 559 300 559 c 0
 346 559 385 549 417 530 c 1
 429 530 l 2
 453 530 466 544 466 569 c 2
 466 640 l 1
 532 640 l 1
 532 565 l 2
 532 524 509 493 473 480 c 1
 497 446 510 403 510 352 c 2
 510 199 l 2
 510 71 429 -9 300 -9 c 0
300 62 m 0
 382 62 430 110 430 199 c 2
 430 351 l 2
 430 440 381 488 300 488 c 0
 219 488 170 440 170 351 c 2
 170 199 l 2
 170 110 218 62 300 62 c 0
EndSplineSet
Validated: 1
EndChar

StartChar: ohungarumlaut
Encoding: 337 337 298
Width: 600
GlyphClass: 2
Flags: W
AnchorPoint: "Anchor-4" 300 275 basechar 0
AnchorPoint: "Anchor-3" 351 0 basechar 0
AnchorPoint: "Anchor-2" 300 0 basechar 0
AnchorPoint: "Anchor-1" 329 550 basechar 0
AnchorPoint: "Anchor-0" 300 550 basechar 0
LayerCount: 2
Fore
SplineSet
328 645 m 1
 437 785 l 1
 520 785 l 1
 406 645 l 1
 328 645 l 1
155 645 m 1
 264 785 l 1
 347 785 l 1
 232 645 l 1
 155 645 l 1
300 -9 m 0
 171 -9 90 71 90 199 c 2
 90 351 l 2
 90 479 171 559 300 559 c 0
 429 559 510 479 510 352 c 2
 510 199 l 2
 510 71 429 -9 300 -9 c 0
300 62 m 0
 382 62 430 110 430 199 c 2
 430 351 l 2
 430 440 381 488 300 488 c 0
 219 488 170 440 170 351 c 2
 170 199 l 2
 170 110 218 62 300 62 c 0
EndSplineSet
Validated: 1
EndChar

StartChar: omacron
Encoding: 333 333 299
Width: 600
GlyphClass: 2
Flags: W
AnchorPoint: "Anchor-4" 300 275 basechar 0
AnchorPoint: "Anchor-3" 351 0 basechar 0
AnchorPoint: "Anchor-2" 300 0 basechar 0
AnchorPoint: "Anchor-1" 329 550 basechar 0
AnchorPoint: "Anchor-0" 300 550 basechar 0
LayerCount: 2
Fore
SplineSet
145 674 m 1
 145 740 l 1
 455 740 l 1
 455 674 l 1
 145 674 l 1
300 -9 m 0
 171 -9 90 71 90 199 c 2
 90 351 l 2
 90 479 171 559 300 559 c 0
 429 559 510 479 510 352 c 2
 510 199 l 2
 510 71 429 -9 300 -9 c 0
300 62 m 0
 382 62 430 110 430 199 c 2
 430 351 l 2
 430 440 381 488 300 488 c 0
 219 488 170 440 170 351 c 2
 170 199 l 2
 170 110 218 62 300 62 c 0
EndSplineSet
Validated: 1
EndChar

StartChar: uni01EB
Encoding: 491 491 300
Width: 600
GlyphClass: 2
Flags: W
AnchorPoint: "Anchor-1" 329 550 basechar 0
AnchorPoint: "Anchor-0" 300 550 basechar 0
LayerCount: 2
Fore
SplineSet
372 -201 m 2
 303 -201 259 -164 259 -111 c 0
 259 -82 274 -50 319 -9 c 1
 313 -10 306 -10 300 -10 c 0
 172 -10 93 69 93 197 c 2
 93 353 l 2
 93 481 172 560 300 560 c 0
 428 560 507 481 507 353 c 2
 507 197 l 2
 507 117 477 56 422 22 c 1
 397 1 l 2
 354 -36 334 -68 334 -96 c 0
 334 -125 354 -146 388 -146 c 2
 449 -146 l 1
 449 -201 l 1
 372 -201 l 2
300 60 m 0
 382 60 428 109 428 197 c 2
 428 353 l 2
 428 441 381 490 300 490 c 0
 219 490 172 441 172 353 c 2
 172 197 l 2
 172 109 218 60 300 60 c 0
EndSplineSet
Validated: 1048577
EndChar

StartChar: oslash
Encoding: 248 248 301
Width: 600
GlyphClass: 2
Flags: W
AnchorPoint: "Anchor-2" 300 0 basechar 0
AnchorPoint: "Anchor-1" 329 550 basechar 0
AnchorPoint: "Anchor-0" 300 550 basechar 0
LayerCount: 2
Fore
SplineSet
41 -30 m 1
 120 82 l 1
 102 114 93 152 93 197 c 2
 93 353 l 2
 93 481 172 560 300 560 c 0
 352 560 397 547 431 522 c 1
 479 590 l 1
 559 590 l 1
 476 474 l 1
 497 441 507 401 507 353 c 2
 507 197 l 2
 507 69 428 -10 300 -10 c 0
 245 -10 199 5 164 32 c 1
 120 -30 l 1
 41 -30 l 1
168 197 m 2
 168 182 170 168 172 156 c 1
 388 462 l 1
 366 480 336 490 300 490 c 0
 217 490 168 439 168 353 c 2
 168 197 l 2
300 60 m 0
 383 60 432 111 432 197 c 2
 432 353 l 2
 432 371 430 387 426 402 c 1
 207 92 l 1
 229 72 261 60 300 60 c 0
EndSplineSet
Validated: 1048577
EndChar

